<?xml version="1.0" encoding="utf-8"?><svg xmlns="http://www.w3.org/2000/svg" viewBox="0 0 49.83 49.83" width="49.83" height="49.83"><defs><style>.bcls-1{fill:transparent}.bcls-2{fill:#fff}</style></defs><g id="bLayer_1" data-name="Layer 1"><path class="bcls-1" d="M49.83 3.51v42.81a3.51 3.51 0 01-3.52 3.51H3.51A3.51 3.51 0 010 46.32V3.51A3.51 3.51 0 013.51 0h42.8a3.51 3.51 0 013.52 3.51z"/><path class="bcls-2" d="M24.68 17.77a7 7 0 107 7 7 7 0 00-7-7zm2.74 10.74h-5v-1.18a1.28 1.28 0 001-1.39v-.6h-.89v-1.13h.89v-1a2.21 2.21 0 01.58-1.63 2.32 2.32 0 011.71-.64 2.86 2.86 0 011.21.26v1.34a1.87 1.87 0 00-1.08-.34c-.64 0-1 .39-1 1.19v.82h1.4v1.13H24.9v.44a1.68 1.68 0 01-.78 1.48h3.3z"/><path class="bcls-1" d="M12.15 15.35H6.59v5.56a8.14 8.14 0 005.56-5.56z"/><path class="bcls-2" d="M6.09 21.58v-6.73h6.73l-.19.64a8.66 8.66 0 01-5.9 5.9zm1-5.73v4.37a7.73 7.73 0 004.37-4.37z"/><path class="bcls-1" d="M6.59 28.63v5.56h5.56a8.14 8.14 0 00-5.56-5.56z"/><path class="bcls-2" d="M12.82 34.69H6.09V28l.64.18a8.66 8.66 0 015.9 5.9zm-5.73-1h4.37a7.71 7.71 0 00-4.37-4.36z"/><path class="bcls-1" d="M37.21 34.19h5.56v-5.56a8.1 8.1 0 00-5.56 5.56z"/><path class="bcls-2" d="M43.27 34.69h-6.73l.19-.64a8.63 8.63 0 015.9-5.9l.64-.18zm-5.37-1h4.37v-4.37a7.66 7.66 0 00-4.37 4.37z"/><path class="bcls-1" d="M42.77 20.91v-5.56h-5.56a8.14 8.14 0 005.56 5.56z"/><path class="bcls-2" d="M43.27 21.58l-.64-.19a8.66 8.66 0 01-5.9-5.9l-.19-.64h6.73zm-5.37-5.73a7.76 7.76 0 004.37 4.37v-4.37z"/><path class="bcls-2" d="M42.8 13.09H6.61a1.14 1.14 0 00-1.13 1.13v21a1.4 1.4 0 001.4 1.4H42.8a1.14 1.14 0 001.13-1.13V14.22a1.14 1.14 0 00-1.13-1.13zm-1.15 7.82v13.28H7.71V15.35h33.94z"/></g></svg>