<?xml version="1.0" encoding="utf-8"?><svg xmlns="http://www.w3.org/2000/svg" viewBox="0 0 49.83 49.83" width="49.83" height="49.83"><defs><style>.gcls-1{fill:#3ab0c8}.gcls-2{fill:#fff}</style></defs><g id="gLayer_1" data-name="Layer 1"><path class="gcls-1" d="M49.83 3.51v42.81a3.51 3.51 0 01-3.52 3.51H3.51A3.51 3.51 0 010 46.32V3.51A3.51 3.51 0 013.51 0h42.8a3.51 3.51 0 013.52 3.51z"/><path class="gcls-2" d="M40.36 9.23h-31a2 2 0 00-2 2V31h34.98V11.2a2 2 0 00-1.98-1.97zm-15.5 18.1A7.09 7.09 0 1132 20.24a7.1 7.1 0 01-7.14 7.09zm0-13.12a6 6 0 106 6 6 6 0 00-6-6zm3.27 6.57l-4.94 2.75c-.16.15-.53.15-.53 0v-6c0-.15.37-.15.52 0l4.95 2.73a.4.4 0 010 .52zM30 31.74H7.4v2.07c0 .76.88 1.39 2 1.39h10.3v3.87a.48.48 0 00.06.24h-1.32a2.68 2.68 0 00-1.57.39 1.51 1.51 0 00-.52 1.45v.29a.32.32 0 00.15.29.65.65 0 00.4.12h15.92a.69.69 0 00.41-.12.34.34 0 00.15-.29 1.3 1.3 0 010-.28 1.49 1.49 0 00-.55-1.46 2.57 2.57 0 00-1.54-.39H30a.6.6 0 00.05-.24V35.2h10.31c1.09 0 2-.63 2-1.39v-2.07z"/></g></svg>