<?xml version="1.0" encoding="utf-8"?><svg xmlns="http://www.w3.org/2000/svg" viewBox="0 0 49.83 49.83" width="49.83" height="49.83"><defs><style>.icls-1{fill:#b22672}.icls-2{fill:#fff}</style></defs><g id="iLayer_1" data-name="Layer 1"><path class="icls-1" d="M49.83 3.51v42.81a3.51 3.51 0 01-3.52 3.51H3.51A3.51 3.51 0 010 46.32V3.51A3.51 3.51 0 013.51 0h42.8a3.51 3.51 0 013.52 3.51z"/><path class="icls-2" d="M40 11.68v-2a3.75 3.75 0 00-3.71-3.8 3.75 3.75 0 00-3.7 3.8v2zM19.76 25.12a7.48 7.48 0 007.37 7.58 7.39 7.39 0 002.46-.43V43.9h-5.88a1.14 1.14 0 01-1.21-1.23l.07-2.89a13.49 13.49 0 01-3.32-1.38l-2.05 2.11a1.18 1.18 0 01-1.78 0l-3.74-3.83a1.32 1.32 0 010-1.84l2.08-2.14a14.73 14.73 0 01-1.33-3.4l-2.83.07a1.2 1.2 0 01-1.2-1.23l.12-5.57a1.33 1.33 0 011.25-1.29l2.83-.06a15.39 15.39 0 011.49-3.46l-2-2a1.26 1.26 0 010-1.82l3.95-4.06a1.23 1.23 0 011.78 0l2 2a15.2 15.2 0 013.38-1.52l.06-2.89a1.32 1.32 0 011.25-1.29h5V18a7.19 7.19 0 00-2.46-.43 7.48 7.48 0 00-7.29 7.55zM32.6 37.78l3.63 6.53h.14L40 37.72zM32.62 12.85h7.41v23.77h-7.41z"/></g></svg>