<?xml version="1.0" encoding="UTF-8"?><svg width="850" height="1496" xmlns="http://www.w3.org/2000/svg" xmlns:xlink="http://www.w3.org/1999/xlink" viewBox="0 0 850 1496"><defs><linearGradient x1="50%" y1="0%" x2="50%" y2="99.669%" id="jd"><stop stop-color="#222" offset="0%"/><stop stop-color="#2A2A2A" offset="100%"/></linearGradient><linearGradient x1="-76.693%" y1="50%" x2="100%" y2="50%" id="jk"><stop stop-color="#D0D0D0" stop-opacity=".565" offset="0%"/><stop stop-opacity="0" offset="100%"/></linearGradient><linearGradient x1="-47.221%" y1="50%" x2="135.096%" y2="50%" id="jh"><stop stop-color="#FFF" stop-opacity="0" offset="0%"/><stop stop-color="#BBB" offset="100%"/></linearGradient><linearGradient x1="-55.692%" y1="50%" x2="100%" y2="50%" id="ji"><stop stop-color="#E2E2E2" offset="0%"/><stop stop-color="#838383" stop-opacity="0" offset="100%"/></linearGradient><linearGradient x1="0%" y1="50%" x2="100%" y2="50%" id="jj"><stop stop-color="#FFF" stop-opacity="0" offset="0%"/><stop stop-color="#C8C8C8" offset="100%"/></linearGradient><filter x="-59.5%" y="-36.9%" width="218.9%" height="173.8%" filterUnits="objectBoundingBox" id="jg"><feGaussianBlur stdDeviation="1.373" in="SourceGraphic"/></filter><filter x="-1.1%" y="-.5%" width="102.2%" height="101.1%" filterUnits="objectBoundingBox" id="jc"><feGaussianBlur stdDeviation="3" in="SourceAlpha" result="shadowBlurInner1"/><feOffset dx="3" dy="8" in="shadowBlurInner1" result="shadowOffsetInner1"/><feComposite in="shadowOffsetInner1" in2="SourceAlpha" operator="arithmetic" k2="-1" k3="1" result="shadowInnerInner1"/><feColorMatrix values="0 0 0 0 0.708041029 0 0 0 0 0.708041029 0 0 0 0 0.708041029 0 0 0 0.123329937 0" in="shadowInnerInner1" result="shadowMatrixInner1"/><feGaussianBlur stdDeviation="1.5" in="SourceAlpha" result="shadowBlurInner2"/><feOffset dx="-6" in="shadowBlurInner2" result="shadowOffsetInner2"/><feComposite in="shadowOffsetInner2" in2="SourceAlpha" operator="arithmetic" k2="-1" k3="1" result="shadowInnerInner2"/><feColorMatrix values="0 0 0 0 0 0 0 0 0 0 0 0 0 0 0 0 0 0 0.02 0" in="shadowInnerInner2" result="shadowMatrixInner2"/><feMerge><feMergeNode in="shadowMatrixInner1"/><feMergeNode in="shadowMatrixInner2"/></feMerge></filter><filter x="-44.2%" y="-22.2%" width="188.3%" height="144.4%" filterUnits="objectBoundingBox" id="ja"><feOffset dx="50" dy="50" in="SourceAlpha" result="shadowOffsetOuter1"/><feGaussianBlur stdDeviation="50" in="shadowOffsetOuter1" result="shadowBlurOuter1"/><feColorMatrix values="0 0 0 0 0 0 0 0 0 0 0 0 0 0 0 0 0 0 0.301109047 0" in="shadowBlurOuter1" result="shadowMatrixOuter1"/><feMerge><feMergeNode in="shadowMatrixOuter1"/><feMergeNode in="SourceGraphic"/></feMerge></filter><filter x="-33.3%" y="-55.7%" width="166.5%" height="211.5%" filterUnits="objectBoundingBox" id="je"><feGaussianBlur stdDeviation="1.331" in="SourceGraphic"/></filter><filter x="-25%" y="-38.7%" width="150%" height="177.4%" filterUnits="objectBoundingBox" id="jf"><feGaussianBlur stdDeviation="1" in="SourceGraphic"/></filter><path d="M6 99.999C6 44.77 50.78 0 106 0h440c55.228 0 100 44.774 100 99.999V1198c0 55.228-44.78 99.999-100 99.999H106c-55.228 0-100-44.774-100-99.999V100z" id="jb"/><path d="M0 56.999C0 25.519 25.51 0 57 0h63.025a4.005 4.005 0 014.004 4.007v8.997C124.029 29.57 137.462 43 154.033 43h254.962C425.566 43 439 29.571 439 13.004V4.007A4.006 4.006 0 01443.004 0h62.49C536.979 0 562.5 25.51 562.5 56.999V1161c0 31.48-25.516 56.999-56.998 56.999H56.998C25.52 1218 0 1192.49 0 1161.001V57z" id="jl"/><path id="jn" d="M-78 0h718v1277H-78z"/></defs><g filter="url(#ja)" transform="translate(49 49)" fill="none" fill-rule="evenodd"><g transform="translate(0 176)" fill="#FFF"><rect width="10" height="50" rx="5"/><path d="M0 98c0-2.761 2.244-5 5-5 2.761 0 5 2.23 5 5v83c0 2.761-2.244 5-5 5-2.761 0-5-2.23-5-5V98zM0 216c0-2.761 2.244-5 5-5 2.761 0 5 2.23 5 5v83c0 2.761-2.244 5-5 5-2.761 0-5-2.23-5-5v-83zM642 128.99a4.999 4.999 0 015-4.99c2.761 0 5 2.237 5 4.99v140.02a4.999 4.999 0 01-5 4.99c-2.761 0-5-2.237-5-4.99V128.99z"/></g><use fill="#FFF" xlink:href="#jb"/><use fill="#000" filter="url(#jc)" xlink:href="#jb"/><rect width="79" height="10" rx="5" transform="translate(285 48)" fill="url(#jd)"/><g transform="translate(383 42)"><circle fill="#202022" cx="11" cy="11" r="11"/><path d="M11 17.164a6 6 0 006-6c0-3.314-2.686 1.5-6 1.5s-6-4.814-6-1.5a6 6 0 006 6z" fill="#133456" filter="url(#je)"/><path d="M11 13.5c3.314 0 6 1.314 6-2S14.314 6 11 6s-6 2.186-6 5.5 2.686 2 6 2z" fill="#2771BD" filter="url(#jf)"/><path d="M7.5 17.164c.655 0 6.096-.568 6.5-.957.404-.39-.211-2.17-1-3.154-1.081-1.35 1.2-4.995 1-6.42-.2-1.424-2.115 0-2.5 0-1.38 0-1.5 4.943-1.5 6.42 0 1.477-3.88 4.111-2.5 4.111z" fill="#000" filter="url(#jg)"/></g><g opacity=".618"><path fill="url(#jh)" d="M627 0h13v13h-13z" transform="translate(6 104)"/><path fill="url(#ji)" d="M0 0h14v13H0z" transform="translate(6 104)"/><g><path fill="url(#jj)" d="M625 0h15v13h-15z" transform="translate(6 1161)"/><path fill="url(#jk)" d="M0 0h14v13H0z" transform="translate(6 1161)"/></g></g><g fill="#FFF"><path d="M550.492 67h31.216c.824 0 1.492.668 1.492 1.49v11.46c0 .813-.668 1.49-1.492 1.49h-31.216A1.491 1.491 0 01549 79.95V68.49c0-.813.668-1.49 1.492-1.49zm33.468 4.56h1.273a.997.997 0 011.007 1v3.32c0 .546-.45 1-1.007 1h-1.273v-5.32zm-33.204-3.8a.994.994 0 00-.996.992v10.936c0 .548.45.992.996.992h30.688c.55 0 .996-.445.996-.992V68.752a.996.996 0 00-.996-.992h-30.688zm.266.76h30.156c.27 0 .502.226.502.505v10.39a.498.498 0 01-.502.505h-30.156a.509.509 0 01-.502-.505v-10.39c0-.287.225-.505.502-.505zM535.942 79.408l-4.395 4.27-4.48-4.338a5.918 5.918 0 014.407-1.94c1.792 0 3.395.78 4.468 2.008zm4.514-4.385l-2.256 2.191a9.149 9.149 0 00-6.726-2.905 9.151 9.151 0 00-6.666 2.842l-2.258-2.188c2.232-2.305 5.404-3.745 8.924-3.745 3.55 0 6.747 1.465 8.982 3.805zm4.508-4.38l-2.254 2.19c-2.813-2.897-6.806-4.706-11.236-4.706-4.4 0-8.371 1.786-11.181 4.65l-2.257-2.186c3.388-3.424 8.156-5.555 13.438-5.555 5.31 0 10.1 2.153 13.49 5.607z"/><g transform="translate(484 63)"><rect y="12" width="5" height="8" rx="2"/><rect x="8" y="8" width="5" height="12" rx="2"/><rect x="16" y="4" width="5" height="16" rx="2"/><rect x="24" width="5" height="20" rx="2"/></g><text font-family="Helvetica" font-size="24" letter-spacing="-.96" transform="translate(95 59)"><tspan x="0" y="23">9:41</tspan></text></g></g></svg>