<?xml version="1.0" encoding="UTF-8" standalone="no"?><svg viewBox="0 0 961 252" xmlns="http://www.w3.org/2000/svg" fill-rule="evenodd" clip-rule="evenodd" stroke-linejoin="round" stroke-miterlimit="1.414" width="961" height="252"><path fill="none" d="M0 0h961v252H0z"/><path fill="#3ab0c8" d="M103.098 5.5h65.39v65.989h-65.39z"/><path fill="#b22672" d="M103.098 105.794h65.39v65.989h-65.39z"/><path fill="#f15f3f" d="M202.414 5.5h65.407v65.989h-65.407z"/><path fill="#fdb528" d="M6.1 5.5h65.391v65.989H6.1z"/><path fill="#a0d5b3" d="M6.1 105.794h65.391v65.989H6.1z"/><g fill="#3a3a49" fill-rule="nonzero"><path d="M520.354 233.548l2.467-2.92c3.677 3.324 7.201 4.985 12.086 4.985 4.731 0 7.854-2.518 7.854-5.992v-.101c0-3.273-1.762-5.137-9.163-6.697-8.107-1.762-11.834-4.381-11.834-10.172v-.102c0-5.538 4.884-9.615 11.582-9.615 5.136 0 8.811 1.459 12.386 4.33l-2.316 3.071c-3.271-2.67-6.545-3.827-10.171-3.827-4.583 0-7.502 2.518-7.502 5.688v.102c0 3.324 1.813 5.188 9.566 6.849 7.854 1.711 11.481 4.582 11.481 9.971v.1c0 6.044-5.036 9.97-12.035 9.97-5.589 0-10.17-1.863-14.401-5.64zM552.28 231.132v-.101c0-5.59 4.532-8.511 11.128-8.511 3.323 0 5.641.454 7.957 1.108v-.806c0-4.634-2.821-7.051-7.705-7.051-3.07 0-5.488.757-7.906 1.863l-1.157-3.172c2.87-1.309 5.64-2.214 9.467-2.214 3.676 0 6.545 1.007 8.408 2.868 1.813 1.814 2.721 4.331 2.721 7.654v15.912h-3.827v-3.878c-1.813 2.316-4.784 4.433-9.366 4.433-4.885.002-9.72-2.768-9.72-8.105zm19.135-2.014V226.7c-1.914-.553-4.432-1.107-7.603-1.107-4.834 0-7.604 2.114-7.604 5.237v.1c0 3.273 3.021 5.187 6.546 5.187 4.784-.001 8.661-2.871 8.661-6.999zM583.098 243.216l1.763-3.021c2.971 2.166 6.294 3.324 10.021 3.324 5.74 0 9.466-3.173 9.466-9.265v-3.072c-2.266 3.021-5.438 5.489-10.222 5.489-6.244 0-12.236-4.683-12.236-12.185v-.103c0-7.603 6.043-12.286 12.236-12.286 4.884 0 8.057 2.418 10.172 5.236v-4.683h3.877v21.502c0 4.028-1.208 7.1-3.324 9.215-2.315 2.316-5.791 3.475-9.919 3.475-4.332.001-8.36-1.209-11.834-3.626zm21.349-18.781v-.102c0-5.337-4.632-8.811-9.566-8.811-4.934 0-9.014 3.423-9.014 8.762v.1c0 5.237 4.18 8.862 9.014 8.862 4.934 0 9.566-3.575 9.566-8.811zM628.316 235.915c3.574 0 6.093-1.461 8.207-3.677l2.418 2.166c-2.619 2.921-5.791 4.885-10.726 4.885-7.15 0-12.991-5.488-12.991-13.596 0-7.553 5.287-13.596 12.487-13.596 7.704 0 12.136 6.144 12.136 13.797 0 .353 0 .755-.051 1.359H619.15c.555 5.49 4.584 8.662 9.166 8.662zm7.605-11.783c-.455-4.732-3.174-8.762-8.309-8.762-4.482 0-7.907 3.728-8.461 8.762h16.77zM662.407 203.437h12.236c11.077 0 18.731 7.604 18.731 17.524v.101c0 9.92-7.654 17.623-18.731 17.623h-12.236v-35.248zm12.237 31.572c8.912 0 14.603-6.043 14.603-13.848v-.1c0-7.805-5.69-13.948-14.603-13.948h-8.259v27.896h8.259zM699.167 231.132v-.101c0-5.59 4.53-8.511 11.129-8.511 3.321 0 5.64.454 7.955 1.108v-.806c0-4.634-2.82-7.051-7.705-7.051-3.071 0-5.487.757-7.905 1.863l-1.158-3.172c2.871-1.309 5.64-2.214 9.467-2.214 3.676 0 6.546 1.007 8.409 2.868 1.813 1.814 2.719 4.331 2.719 7.654v15.912h-3.826v-3.878c-1.813 2.316-4.783 4.433-9.366 4.433-4.887.002-9.719-2.768-9.719-8.105zm19.135-2.014V226.7c-1.914-.553-4.433-1.107-7.604-1.107-4.834 0-7.603 2.114-7.603 5.237v.1c0 3.273 3.021 5.187 6.546 5.187 4.783-.001 8.661-2.871 8.661-6.999zM728.121 235.361l1.963-2.77c2.82 2.116 5.942 3.323 9.015 3.323 3.121 0 5.388-1.611 5.388-4.129v-.101c0-2.618-3.072-3.626-6.496-4.583-4.079-1.157-8.61-2.566-8.61-7.352v-.101c0-4.48 3.726-7.453 8.862-7.453 3.172 0 6.697 1.109 9.365 2.871l-1.762 2.921c-2.417-1.562-5.187-2.519-7.705-2.519-3.07 0-5.035 1.611-5.035 3.777v.1c0 2.469 3.224 3.425 6.696 4.482 4.029 1.208 8.359 2.771 8.359 7.452v.102c0 4.934-4.078 7.804-9.264 7.804-3.727.003-7.856-1.457-10.776-3.824zM755.363 201.927h3.877v15.257c1.712-2.82 4.431-5.086 8.912-5.086 6.295 0 9.971 4.229 9.971 10.423v16.164h-3.877v-15.207c0-4.834-2.619-7.854-7.201-7.854-4.481 0-7.805 3.271-7.805 8.156v14.905h-3.877v-36.758zM790.258 233.7v4.984h-3.876v-36.758h3.876v15.962c2.115-3.123 5.188-5.791 9.971-5.791 6.244 0 12.438 4.935 12.438 13.495v.101c0 8.51-6.143 13.546-12.438 13.546-4.834 0-7.957-2.618-9.971-5.539zm18.431-7.957v-.101c0-6.143-4.23-10.069-9.166-10.069-4.834 0-9.416 4.077-9.416 10.02v.101c0 6.043 4.582 10.071 9.416 10.071 5.037 0 9.166-3.726 9.166-10.022zM818.206 225.795v-.102c0-7.353 5.74-13.596 13.595-13.596 7.805 0 13.545 6.144 13.545 13.495v.101c0 7.353-5.79 13.596-13.646 13.596-7.804 0-13.494-6.143-13.494-13.494zm23.162 0v-.102c0-5.589-4.179-10.171-9.668-10.171-5.64 0-9.517 4.582-9.517 10.07v.101c0 5.589 4.128 10.121 9.617 10.121 5.641 0 9.568-4.532 9.568-10.019zM850.384 231.132v-.101c0-5.59 4.531-8.511 11.129-8.511 3.323 0 5.64.454 7.955 1.108v-.806c0-4.634-2.819-7.051-7.705-7.051-3.071 0-5.488.757-7.906 1.863l-1.156-3.172c2.869-1.309 5.64-2.214 9.467-2.214 3.677 0 6.546 1.007 8.408 2.868 1.813 1.814 2.72 4.331 2.72 7.654v15.912h-3.827v-3.878c-1.813 2.316-4.783 4.433-9.366 4.433-4.885.002-9.719-2.768-9.719-8.105zm19.135-2.014V226.7c-1.914-.553-4.433-1.107-7.604-1.107-4.835 0-7.603 2.114-7.603 5.237v.1c0 3.273 3.02 5.187 6.545 5.187 4.784-.001 8.662-2.871 8.662-6.999zM881.503 212.651h3.878v6.798c1.913-4.331 5.689-7.452 10.624-7.252v4.18h-.302c-5.689 0-10.322 4.08-10.322 11.935v10.373h-3.878v-26.034zM899.329 225.743v-.101c0-8.509 6.192-13.545 12.437-13.545 4.835 0 7.956 2.618 9.972 5.538v-15.709h3.877v36.758h-3.877v-5.237c-2.115 3.123-5.188 5.792-9.972 5.792-6.245 0-12.437-4.935-12.437-13.496zm22.559-.05v-.101c0-5.991-4.583-10.02-9.415-10.02-5.035 0-9.166 3.725-9.166 10.02v.101c0 6.144 4.23 10.071 9.166 10.071 4.832.001 9.415-4.078 9.415-10.071zM932.11 235.361l1.964-2.77c2.819 2.116 5.94 3.323 9.014 3.323 3.123 0 5.389-1.611 5.389-4.129v-.101c0-2.618-3.072-3.626-6.497-4.583-4.078-1.157-8.609-2.566-8.609-7.352v-.101c0-4.48 3.726-7.453 8.861-7.453 3.173 0 6.697 1.109 9.365 2.871l-1.762 2.921c-2.418-1.562-5.187-2.519-7.705-2.519-3.069 0-5.034 1.611-5.034 3.777v.1c0 2.469 3.223 3.425 6.696 4.482 4.028 1.208 8.359 2.771 8.359 7.452v.102c0 4.934-4.079 7.804-9.265 7.804-3.728.003-7.855-1.457-10.776-3.824z"/></g><g fill-rule="nonzero"><g fill="#3a3a49"><path d="M271.109 166.751c-3.629 4.384-8.351 7.979-14.168 10.795-5.819 2.811-12.48 4.221-19.983 4.221-6.26 0-12.042-1.156-17.36-3.475-5.318-2.312-9.916-5.501-13.793-9.566-3.876-4.071-6.878-8.881-9.006-14.449-2.13-5.567-3.19-11.541-3.19-17.926 0-6.381 1.095-12.35 3.283-17.917 2.19-5.569 5.222-10.383 9.103-14.45 3.877-4.063 8.472-7.254 13.793-9.57 5.315-2.314 11.04-3.472 17.171-3.472 7.626 0 14.104 1.347 19.421 4.036 5.313 2.689 9.85 6.412 13.602 11.165l-6.379 4.876c-2.878-3.752-6.472-6.725-10.791-8.912-4.314-2.187-9.602-3.283-15.853-3.283-5.008 0-9.605 1.002-13.792 3.003-4.195 1.997-7.821 4.69-10.884 8.064-3.068 3.382-5.441 7.354-7.13 11.92-1.689 4.564-2.535 9.413-2.535 14.539 0 5.134.872 9.982 2.627 14.544 1.751 4.568 4.155 8.538 7.223 11.919 3.064 3.374 6.693 6.07 10.885 8.068 4.19 2.004 8.726 3.002 13.607 3.002 6.251 0 11.787-1.126 16.606-3.378 4.813-2.253 8.66-5.252 11.542-9.009l6.001 5.255zM341.665 135.417c-2.625-.624-5.911-1.158-9.85-1.598-3.943-.438-8.978-.653-15.105-.653-6.38 0-11.447.782-15.201 2.342-3.752 1.565-6.599 3.506-8.539 5.817-1.94 2.314-3.189 4.818-3.753 7.507-.562 2.69-.844 5.096-.844 7.222 0 6.256 2.096 10.825 6.286 13.7 4.192 2.883 9.54 4.316 16.042 4.316 4.253 0 8.259-.754 12.012-2.251 3.754-1.502 7.038-3.503 9.854-6.007 2.812-2.496 5.033-5.344 6.659-8.536 1.626-3.189 2.44-6.412 2.44-9.665v-12.194h-.001zm.75 44.097a34.018 34.018 0 01-.185-3.754c-.127-1.246-.189-2.752-.189-4.504v-6.192c-2.251 3.253-4.723 5.977-7.411 8.163-2.691 2.194-5.507 3.912-8.448 5.159-2.938 1.251-5.818 2.126-8.629 2.625-2.816.499-5.415.753-7.788.753-3.63 0-7.256-.374-10.885-1.123-3.629-.75-6.879-2.096-9.757-4.036-2.879-1.936-5.226-4.566-7.037-7.883-1.814-3.31-2.72-7.53-2.72-12.668 0-4.127.686-8.034 2.064-11.726 1.375-3.688 3.564-6.876 6.565-9.57 3.005-2.688 6.878-4.815 11.635-6.38 4.754-1.563 10.508-2.342 17.264-2.342 5.256 0 9.946.185 14.076.56 4.129.378 7.626.813 10.508 1.313v-4.88c0-4.755-.562-8.692-1.689-11.82-1.127-3.125-2.816-5.628-5.067-7.509-2.254-1.872-5.004-3.189-8.257-3.937-3.255-.753-7.007-1.127-11.261-1.127-7.13 0-12.793 1.033-16.98 3.098-4.195 2.064-7.414 4.031-9.665 5.912l-4.505-5.818c2.376-2.255 6.22-4.63 11.539-7.133 5.318-2.501 11.791-3.753 19.425-3.753 11.132 0 19.729 2.379 25.801 7.134 6.064 4.755 9.1 12.634 9.1 23.642v46.818c0 2.187.063 4.101.187 5.719.124 2.005.252 3.753.375 5.259h-8.066zM363.972 162.623c3.626 3.629 7.789 6.416 12.479 8.354 4.692 1.939 10.227 2.907 16.605 2.907 3.502 0 6.818-.347 9.946-1.035 3.126-.686 5.88-1.688 8.259-3 2.373-1.313 4.248-2.97 5.627-4.974 1.376-1.998 2.065-4.377 2.065-7.127 0-3.124-.628-5.695-1.875-7.697-1.255-2.001-3.099-3.656-5.54-4.974-2.436-1.313-5.504-2.44-9.195-3.375a840.09 840.09 0 00-12.666-3.097c-4.003-.874-7.662-1.903-10.977-3.098-3.315-1.188-6.162-2.655-8.535-4.411-2.38-1.748-4.258-3.968-5.633-6.657-1.374-2.689-2.064-6.036-2.064-10.043 0-3.876.875-7.285 2.63-10.224 1.749-2.941 4.092-5.409 7.037-7.414 2.936-1.997 6.313-3.472 10.133-4.41 3.812-.939 7.785-1.407 11.914-1.407 6.755 0 12.729 1.255 17.921 3.753 5.192 2.503 9.414 5.695 12.666 9.569l-5.817 5.254a36.715 36.715 0 00-10.416-7.88c-3.939-1.997-8.665-3.002-14.164-3.002-2.755 0-5.509.219-8.259.658-2.754.439-5.256 1.249-7.507 2.436-2.254 1.191-4.066 2.818-5.441 4.884-1.378 2.065-2.065 4.784-2.065 8.159 0 2.754.78 5.068 2.347 6.945 1.563 1.875 3.596 3.44 6.098 4.689 2.501 1.256 5.375 2.288 8.633 3.098 3.249.817 6.501 1.593 9.757 2.35a115.18 115.18 0 0110.601 2.811c3.566 1.127 6.818 2.599 9.757 4.41 2.938 1.819 5.318 4.127 7.133 6.944 1.81 2.811 2.72 6.351 2.72 10.604 0 4.379-1.002 8.131-3.001 11.256-2.003 3.129-4.633 5.723-7.883 7.788-3.253 2.063-6.944 3.598-11.069 4.596-4.128.999-8.257 1.505-12.388 1.505-8.132 0-15.043-1.194-20.731-3.569-5.695-2.372-10.544-5.564-14.545-9.57l5.443-6.006zM511.849 166.751c-3.628 4.384-8.352 7.979-14.17 10.795-5.817 2.811-12.478 4.221-19.979 4.221-6.26 0-12.043-1.156-17.362-3.475-5.318-2.312-9.914-5.501-13.791-9.566-3.881-4.071-6.88-8.881-9.008-14.449-2.129-5.567-3.19-11.541-3.19-17.926 0-6.381 1.094-12.35 3.284-17.917 2.189-5.569 5.223-10.383 9.104-14.45 3.877-4.063 8.469-7.254 13.791-9.57 5.314-2.314 11.042-3.472 17.172-3.472 7.626 0 14.102 1.347 19.421 4.036 5.313 2.689 9.849 6.412 13.601 11.165l-6.378 4.876c-2.877-3.752-6.471-6.725-10.79-8.912-4.316-2.187-9.604-3.283-15.854-3.283-5.007 0-9.607 1.002-13.794 3.003-4.195 1.997-7.819 4.69-10.883 8.064-3.067 3.382-5.442 7.354-7.133 11.92-1.687 4.564-2.53 9.413-2.53 14.539 0 5.134.87 9.982 2.625 14.544 1.75 4.568 4.157 8.538 7.224 11.919 3.064 3.374 6.691 6.07 10.883 8.068 4.191 2.004 8.726 3.002 13.609 3.002 6.249 0 11.786-1.126 16.602-3.378 4.815-2.253 8.662-5.252 11.545-9.009l6.001 5.255zM580.888 135.417c-2.625-.624-5.913-1.158-9.851-1.598-3.945-.438-8.979-.653-15.107-.653-6.377 0-11.449.782-15.201 2.342-3.75 1.565-6.598 3.506-8.538 5.817-1.94 2.314-3.188 4.818-3.751 7.507-.564 2.69-.845 5.096-.845 7.222 0 6.256 2.096 10.825 6.286 13.7 4.191 2.883 9.54 4.316 16.042 4.316 4.252 0 8.258-.754 12.01-2.251 3.757-1.502 7.039-3.503 9.851-6.007 2.817-2.496 5.039-5.344 6.664-8.536 1.628-3.189 2.44-6.412 2.44-9.665v-12.194zm.749 44.097a34.25 34.25 0 01-.186-3.754c-.125-1.246-.189-2.752-.189-4.504v-6.192c-2.249 3.253-4.721 5.977-7.41 8.163-2.688 2.194-5.507 3.912-8.446 5.159-2.938 1.251-5.817 2.126-8.632 2.625-2.813.499-5.412.753-7.789.753a53.69 53.69 0 01-10.882-1.123c-3.632-.75-6.879-2.096-9.759-4.036-2.878-1.936-5.224-4.566-7.035-7.883-1.815-3.31-2.72-7.53-2.72-12.668 0-4.127.684-8.034 2.066-11.726 1.372-3.688 3.562-6.876 6.562-9.57 3.007-2.688 6.881-4.815 11.635-6.38 4.755-1.563 10.512-2.342 17.264-2.342 5.258 0 9.947.185 14.078.56 4.127.378 7.626.813 10.509 1.313v-4.88c0-4.755-.567-8.692-1.689-11.82-1.129-3.125-2.815-5.628-5.066-7.509-2.255-1.872-5.008-3.189-8.257-3.937-3.253-.753-7.01-1.127-11.261-1.127-7.13 0-12.792 1.033-16.98 3.098-4.194 2.064-7.413 4.031-9.663 5.912l-4.506-5.818c2.374-2.255 6.218-4.63 11.537-7.133 5.317-2.501 11.789-3.753 19.427-3.753 11.131 0 19.729 2.379 25.8 7.134 6.063 4.755 9.102 12.634 9.102 23.642v46.818c0 2.187.062 4.101.185 5.719.126 2.005.254 3.753.376 5.259h-8.071zM668.144 108.395c-1.877-1.748-4.066-3.314-6.565-4.695-2.131-1.244-4.881-2.371-8.259-3.378-3.378-.998-7.259-1.497-11.635-1.497-4.505 0-8.851.718-13.042 2.156-4.192 1.438-7.944 3.722-11.262 6.85-3.313 3.128-5.976 7.13-7.973 12.01-2.002 4.88-3.003 10.697-3.003 17.453 0 4.878.563 9.509 1.69 13.882 1.127 4.38 2.909 8.262 5.348 11.635 2.44 3.382 5.598 6.07 9.475 8.072 3.879 2.001 8.633 2.999 14.262 2.999 5.258 0 9.822-.965 13.699-2.904 3.877-1.941 7.101-4.347 9.665-7.229 2.565-2.874 4.475-5.907 5.723-9.097 1.249-3.192 1.877-6.033 1.877-8.541v-37.716zm.374 71.119a63.61 63.61 0 01-.187-4.88c-.128-1.377-.188-2.974-.188-4.785v-5.348c-1.877 3.253-4.38 6.131-7.505 8.635-2.629 2.125-5.942 4.096-9.945 5.908-4.008 1.816-8.82 2.72-14.453 2.72-6.63 0-12.379-1.157-17.263-3.469-4.88-2.314-8.912-5.477-12.104-9.479-3.184-4.001-5.563-8.723-7.129-14.165-1.563-5.442-2.342-11.291-2.342-17.548 0-7.001 1.088-13.352 3.279-19.048 2.19-5.689 5.258-10.535 9.195-14.54 3.941-4.002 8.632-7.101 14.074-9.29 5.443-2.187 11.416-3.283 17.922-3.283 3.628 0 6.972.438 10.035 1.316 3.063.874 5.852 1.815 8.353 2.814a76.98 76.98 0 017.883 4.13V54.349h8.258v114.187c0 2.187.063 4.101.186 5.719 0 2.005.063 3.753.188 5.259h-8.257zM758.965 131.286c-1.123-10.63-4.504-18.701-10.133-24.209-5.628-5.503-12.947-8.253-21.953-8.253-4.634 0-8.856.849-12.665 2.535-3.82 1.687-7.103 4.001-9.854 6.94-2.754 2.939-4.974 6.381-6.664 10.323-1.688 3.937-2.659 8.162-2.909 12.664h64.178zm5.444 35.279c-3.757 4.755-8.851 8.477-15.293 11.166-6.446 2.689-13.047 4.032-19.802 4.032-6.378 0-12.289-1.097-17.732-3.28-5.439-2.189-10.1-5.287-13.977-9.292-3.882-3.999-6.915-8.788-9.104-14.355-2.187-5.567-3.285-11.726-3.285-18.481 0-6.257 1.033-12.135 3.1-17.643 2.064-5.503 4.909-10.317 8.537-14.445 3.626-4.131 8.008-7.383 13.132-9.763 5.131-2.375 10.762-3.562 16.894-3.562 5.878 0 11.351 1.028 16.42 3.094a36.315 36.315 0 0113.133 9.104c3.688 4.006 6.57 8.977 8.635 14.916 2.062 5.946 3.095 12.793 3.095 20.547h-73.559c.124 4.884 1.062 9.479 2.813 13.795 1.748 4.315 4.127 8.072 7.13 11.26 3.004 3.192 6.601 5.693 10.791 7.504 4.191 1.816 8.848 2.721 13.978 2.721 2.633 0 5.349-.275 8.167-.84a41.01 41.01 0 008.159-2.538c2.628-1.12 5.038-2.436 7.228-3.938 2.187-1.502 4.032-3.192 5.534-5.065l6.006 5.063z"/></g><g fill="#f15f3f"><path d="M785.288 165.502l7.11-7.795c8.342 8.067 17.503 13.127 27.211 13.127 13.675 0 23.11-9.024 23.11-21.194v-.273c0-11.896-9.846-20.102-23.793-20.102-8.068 0-14.495 2.462-20.102 5.47l-7.247-4.786 2.735-46.628h55.106v9.981h-45.672l-2.051 30.63c5.606-2.461 10.939-4.238 18.87-4.238 18.597 0 33.091 11.075 33.091 29.263v.273c0 18.733-14.221 31.45-34.185 31.45-13.671 0-25.569-6.564-34.183-15.178zM870.203 131.453v-.273c0-26.802 15.999-49.501 40.613-49.501 24.613 0 40.201 22.426 40.201 49.228v.273c0 26.802-15.861 49.5-40.475 49.5-24.75 0-40.339-22.426-40.339-49.227zm69.603 0v-.273c0-20.922-11.487-39.656-29.263-39.656-17.914 0-29.127 18.323-29.127 39.382v.273c0 20.921 11.486 39.654 29.4 39.654 17.913.001 28.99-18.458 28.99-39.38z"/></g></g></svg>