<?xml version="1.0" encoding="utf-8"?><svg xmlns="http://www.w3.org/2000/svg" viewBox="0 0 49.83 49.83" width="49.83" height="49.83"><defs><style>.qcls-1{fill:transparent}.qcls-2{fill:#fff}</style></defs><g id="qLayer_1" data-name="Layer 1"><path class="qcls-1" d="M49.83 3.51v42.81a3.51 3.51 0 01-3.52 3.51H3.51A3.51 3.51 0 010 46.32V3.51A3.51 3.51 0 013.51 0h42.8a3.51 3.51 0 013.52 3.51z"/><path class="qcls-2" d="M27.1 25.75l4 4c1.13 1.14.21 1.94.21 1.94s-.8.92-1.94-.22l-4-4a2.3 2.3 0 111.11-3.86 2.29 2.29 0 01.62 2.14zM30.38 43.74H19.13a1 1 0 01-1-1v-3.25a1 1 0 011-1h11.25a1 1 0 011 1v3.22a1 1 0 01-1 1.03zm-11.25-4.27v3.24h11.25v-3.25z"/><circle class="qcls-2" cx="24.76" cy="25.14" r="2.46"/><path class="qcls-2" d="M43.69 23.71A19 19 0 0026 6.1h-1.27c-.43 0-.94 0-1.4.05a19 19 0 00-11.18 4.72 19.82 19.82 0 00-1.87 1.91 18.88 18.88 0 00-4.49 11c0 .44-.05.89-.05 1.34s0 .89.05 1.33a18.88 18.88 0 004.49 11 19.11 19.11 0 001.45 1.53l.42.39L15 36.42l1.7-1.69a1.39 1.39 0 00.21-1.73 1.33 1.33 0 00-2-.17l-1.73 1.72a14.92 14.92 0 01-3.31-8.13h2.49a1.38 1.38 0 001.39-1.11 1.34 1.34 0 00-1.32-1.56H9.84a15 15 0 013.31-8.13l1.73 1.73a1.33 1.33 0 00.94.39 1.34 1.34 0 001-.47 1.4 1.4 0 00-.13-1.87L15 13.67a15 15 0 018.34-3.54v2.55a1.4 1.4 0 001.11 1.39A1.34 1.34 0 0026 12.75v-2.63a15 15 0 018.47 3.56l-1.68 1.68a1.4 1.4 0 00-.13 1.87 1.35 1.35 0 002 .08l1.71-1.72a15 15 0 013.31 8.12h-2.62a1.4 1.4 0 00-1.39 1.11A1.34 1.34 0 0037 26.38h2.69a15 15 0 01-3.31 8.12l-1.66-1.66a1.39 1.39 0 00-1.77-.2 1.34 1.34 0 00-.17 2l1.73 1.73 2.85 2.85.41-.39a17.48 17.48 0 001.45-1.53 18.89 18.89 0 004.49-11v-1.33c0-.45.02-.82-.02-1.26z"/></g></svg>