<svg xmlns="http://www.w3.org/2000/svg" viewBox="0 0 49.83 49.83"><defs><style>.cls-1{fill:#b22672;}.cls-2{fill:#fff;}</style></defs><title>i-2</title><g id="Layer_1" data-name="Layer 1"><path class="cls-1" d="M49.83,3.51V46.32a3.51,3.51,0,0,1-3.52,3.51H3.51A3.51,3.51,0,0,1,0,46.32V3.51A3.51,3.51,0,0,1,3.51,0h42.8A3.51,3.51,0,0,1,49.83,3.51Z"/><path class="cls-2" d="M25,7.74A17.18,17.18,0,1,1,7.74,24.92,17.17,17.17,0,0,1,25,7.74Zm.7,5.53c1-.23,1.44.79,2.34.7l-.41-.36.05,0,.69.14.08-.12a3.37,3.37,0,0,0-.29-.35c-.1-.09-.26-.12-.34-.21s0-.2,0-.3.22,0,.27.08c.35.39.56.37.8-.13l-.74-.33c-.4-.2-.49-.3-.48-.61l2,1.29-.14.33a4.13,4.13,0,0,1,.56,0c.36,0,.51.35.32.53.08.14.22.27.21.39s-.19.19-.3.27-.26.14-.39.22,0,.06-.05.11l.26.07c0,.14-.05.3,0,.38a12.08,12.08,0,0,0,1.14,1.5c.4.39.87.24,1.14-.25.15-.27.26-.56.41-.84a.78.78,0,0,1,.75-.45,1.36,1.36,0,0,0,.56-.14c.47-.23.91-.49,1.37-.75,0,0,0,0,0,0a15,15,0,0,0-8-4,1.28,1.28,0,0,0-.38.05v.06l.38.11c-.24.43-1,.5-1.73.17l.86-.41c-.37-.1-.72-.09-1.06-.15a9.25,9.25,0,0,0-2,.24c-.64,0-.75.11-.92.73l.21.12-.58.14c-.41-.36-.52-.36-.88.09.14.13.34.23.42.4a.68.68,0,0,1-.05.48c0,.07-.21.06-.32.09,0-.15,0-.29.05-.44a.32.32,0,0,0,0-.09l-.64-.18c.05.21.14.37.1.43a.47.47,0,0,1-.36.21c-.45,0-.9-.1-1.36-.12a1.77,1.77,0,0,0-.54.13v.11L18,12.16V12a3.38,3.38,0,0,1,.69-.14c.28,0,.56.07.85.06s.52,0,.57-.37l-.77-.29a15.21,15.21,0,0,0-5.8,4.26l.16.14c.79.85,1.57,1.66,1.31,3a2.25,2.25,0,0,0,1.18,2.49,1.61,1.61,0,0,1,.4.42c.45.64.89,1.28,1.35,1.91a.79.79,0,0,0,.19.17l0-.05L17.14,22l.12-.1c.13.08.3.12.39.23a7.79,7.79,0,0,1,1.23,1.62c.42,1,1.32,1.29,2.14,1.71a.71.71,0,0,0,.43,0,.69.69,0,0,1,.77.23.91.91,0,0,0,.51.32,1.19,1.19,0,0,1,.92.54,1.36,1.36,0,0,0,1.38.67c.28,0,.44.14.48.41a.9.9,0,0,1-.26.81,1.43,1.43,0,0,0-.4,1.13.52.52,0,0,1,0,.33c-.17.22,0,.4.06.57a5.78,5.78,0,0,0,1.83,2.21.9.9,0,0,1,.44.92c0,.54-.07,1.09-.16,1.63-.13.74-.32,1.47-.45,2.21-.05.33,0,.68,0,1a4.34,4.34,0,0,1-.12.89,1.87,1.87,0,0,1-.33.48l0,.12,1.56-.13a8.91,8.91,0,0,0,.44-.87,1.5,1.5,0,0,1,1.2-1.08.79.79,0,0,0,.66-1c.22,0,.54,0,.66-.16.47-.58.88-1.21,1.33-1.82a1.84,1.84,0,0,1,.55-.56,3.57,3.57,0,0,0,.94-.58,1.28,1.28,0,0,0,.45-1.07,1.44,1.44,0,0,1,.51-1.15,2.15,2.15,0,0,0,.51-.71.53.53,0,0,0-.3-.79,7,7,0,0,0-.91-.33c-.45-.15-.91-.31-1.37-.42-.11,0-.26.09-.39.15a.28.28,0,0,0-.09.07l-.21-.14.27-.25-.66.07a1.82,1.82,0,0,1,.06-.18c.28-.5.24-.74-.22-1a4.14,4.14,0,0,0-.61-.26,5.56,5.56,0,0,1-.9-.39,2.12,2.12,0,0,0-1.44-.51.5.5,0,0,1-.31-.08.62.62,0,0,0-.79,0,.34.34,0,0,1-.31,0,.51.51,0,0,0-.64.14.7.7,0,0,1-.81.27,1,1,0,0,0-.34,0c-.7,0-1-.29-.8-1a.37.37,0,0,0-.38-.51c-.76,0-.83-.12-.48-.77a.21.21,0,0,0,0-.07l0-.44a2.83,2.83,0,0,0-.52.08c-.08,0-.15.12-.2.21a1,1,0,0,1-1.67-.27,1.49,1.49,0,0,1,1.13-1.91l1.18-.2a1,1,0,0,1,1.09.57,5.88,5.88,0,0,0,.36.51l.15-.05a1.54,1.54,0,0,0,0-.61c-.27-.62,0-1,.51-1.29l.21-.15c.17-.12.3-.24.21-.49a.47.47,0,0,1,.12-.31,4.72,4.72,0,0,1,.37-.41c.1-.1.19-.22.29-.31s.34-.28.51-.41.62-.5.94-.72a1.18,1.18,0,0,1,.39-.06l0,.08-.52.33A1,1,0,0,0,29,18.57,1.46,1.46,0,0,1,30.36,18l.47.07c-.22-.33-.37-.58-.54-.81s-.36-.25-.55,0a4.25,4.25,0,0,0-.21.43,1,1,0,0,1-.84.55c-.34,0-.48-.09-.43-.44s-.05-.44-.38-.31-.55.27-.85.42a.65.65,0,0,1,.59-.62c.25,0,.52,0,.77,0a7.87,7.87,0,0,0,1.3-.26c.53-.19.56-.4.12-.75a3.49,3.49,0,0,1-1.23-1.51.46.46,0,0,0-.33-.23c-.11,0-.25.13-.32.25-.18.28-.33.32-.59.11a1.06,1.06,0,0,1-.25-.27c-.29-.6-.88-.63-1.42-.73-.35-.07-.51.12-.44.48a5.27,5.27,0,0,0,.25.86.47.47,0,0,1-.26.7c-.36.15-.33.35-.15.6s0,.3-.14.36a.38.38,0,0,1-.53-.37A.46.46,0,0,0,24,16c-.16-.06-.33-.1-.49-.17-.52-.2-1.06-.37-1.55-.61s-.62-.74-.16-1.16c.29-.25.64-.43.94-.66.15-.11.34-.24.39-.4.1-.32.3-.38.59-.36.52,0,.66-.09.75-.6s.47-.8,1-.47c.27.15.5.36.77.53s.26.37.06.58S25.94,13,25.65,13.27Zm14.21,9.61a4.42,4.42,0,0,1-1.29,1.46s0,.05-.06.09c-.27.6-.71,1.16-.48,1.9a1.22,1.22,0,0,1,0,.33,2.38,2.38,0,0,0,1.61,2.12A13.81,13.81,0,0,0,39.86,22.88ZM39.17,20a1.61,1.61,0,0,0-.35,1.53.94.94,0,0,0,1,.55ZM23,10.31c-.4.07-.79.14-1.19.23a.66.66,0,0,0-.28.16s0,.17.07.18a.66.66,0,0,0,.37,0C22.28,10.7,22.61,10.5,23,10.31Z"/></g></svg>