<svg xmlns="http://www.w3.org/2000/svg" viewBox="0 0 49.83 49.83"><defs><style>.cls-1{fill:#3ab0c8;}.cls-2{fill:#fff;}</style></defs><title>i-11</title><g id="Layer_1" data-name="Layer 1"><path class="cls-1" d="M49.83,3.51V46.32a3.51,3.51,0,0,1-3.52,3.51H3.51A3.51,3.51,0,0,1,0,46.32V3.51A3.51,3.51,0,0,1,3.51,0h42.8A3.51,3.51,0,0,1,49.83,3.51Z"/><path class="cls-2" d="M14.29,21.32v-4.2A10.87,10.87,0,0,1,23.91,6.24,10.51,10.51,0,0,1,32.07,9a10.7,10.7,0,0,1,3.48,7.88v4.4h-5v-4.4a5.58,5.58,0,0,0-11.16,0v4.4H14.86Zm17.22-1.09h3v-3.4A9.7,9.7,0,0,0,31.4,9.69,9.54,9.54,0,0,0,24,7.24a9.85,9.85,0,0,0-8.71,9.88v3.11h3.06v-3.4a6.58,6.58,0,0,1,13.16,0Z"/><path class="cls-2" d="M37.48,21.52H12.34a1.59,1.59,0,0,0-1.59,1.59V41.54a1.59,1.59,0,0,0,1.59,1.59H37.48a1.59,1.59,0,0,0,1.59-1.59V23.11A1.59,1.59,0,0,0,37.48,21.52ZM24,37.48v-5a2.87,2.87,0,1,1,1.92,0v5a1,1,0,0,1-1.92,0Z"/></g></svg>