<?xml version="1.0" encoding="utf-8"?><svg xmlns="http://www.w3.org/2000/svg" viewBox="0 0 49.83 49.83" width="49.83" height="49.83"><defs><style>.bcls-1{fill:#fdb528}.bcls-2{fill:#fff}</style></defs><g id="bLayer_1" data-name="Layer 1"><path class="bcls-1" d="M49.83 3.51v42.81a3.51 3.51 0 01-3.52 3.51H3.51A3.51 3.51 0 010 46.32V3.51A3.51 3.51 0 013.51 0h42.8a3.51 3.51 0 013.52 3.51z"/><path class="bcls-2" d="M26.13 25.27A1.32 1.32 0 1124.81 24a1.32 1.32 0 011.32 1.27z"/><path class="bcls-2" d="M24.81 9.84a15.5 15.5 0 1015.5 15.51 15.52 15.52 0 00-15.5-15.51zM11.56 25.89h-.62a.63.63 0 110-1.26h.62a.63.63 0 110 1.26zm12.62-14.5a.63.63 0 111.26 0V12a.63.63 0 01-1.26 0zm-8.29 23.68l-.45.45a.63.63 0 01-.44.19.67.67 0 01-.45-.19.64.64 0 010-.89l.45-.45a.64.64 0 01.89 0 .62.62 0 010 .89zm0-18.72a.64.64 0 01-.89 0l-.45-.45a.65.65 0 010-.9.64.64 0 01.89 0l.45.46a.62.62 0 010 .89zm9.55 22.79a.63.63 0 11-1.26 0v-.64a.63.63 0 011.26 0zm-.63-11.35a2.53 2.53 0 01-2.45-1.9h-4.48a.63.63 0 110-1.26h4.49a2.55 2.55 0 011.81-1.81v-6.38a.63.63 0 111.26 0v6.39a2.52 2.52 0 01-.63 5zm10.25 7.73a.61.61 0 01-.44.19.63.63 0 01-.44-.19l-.45-.45a.63.63 0 01.89-.89l.44.45a.62.62 0 010 .89zm0-19.62l-.44.45a.69.69 0 01-.44.18.67.67 0 01-.45-.18.64.64 0 010-.89l.45-.46a.63.63 0 11.88.9zm3.63 10h-.64a.63.63 0 010-1.26h.64a.63.63 0 110 1.26z"/><path class="bcls-2" d="M24.81 6.6a18.75 18.75 0 1018.75 18.75A18.77 18.77 0 0024.81 6.6zm0 35.15a16.41 16.41 0 1116.39-16.4 16.42 16.42 0 01-16.38 16.4z"/></g></svg>