<?xml version="1.0" encoding="utf-8"?><svg xmlns="http://www.w3.org/2000/svg" width="400" height="399.599" viewBox="0 0 400 399.599"><g fill-rule="evenodd"><path d="M.047 12.687c.029 7.789.17 11.957.366 10.795C2.219 12.756 10.652 3.587 21.271.805l2.905-.761L12.088.022 0 0l.047 12.687M378.219.645c11.382 2.752 20.124 12.851 21.373 24.691.187 1.774.32-2.44.354-11.25L400 0l-12.088.033c-11.428.032-11.957.065-9.693.612m-175.645 53.26c-2.169.702-2.985 1.589-12.61 13.721-5.451 6.872-12.985 16.36-16.743 21.085a26029.966 26029.966 0 00-55.131 69.531 46937.346 46937.346 0 01-34.882 44.078c-6.243 7.869-11.603 14.792-11.912 15.384-1.391 2.667-.36 6.873 2.155 8.792l1.411 1.076 27.005.2 27.004.2.2 57.942c.148 43.028.319 58.148.665 58.741.727 1.249 2.62 2.904 3.856 3.372.779.294 21.912.425 68.648.425 76.549 0 69.402.326 71.786-3.276l1.099-1.661.106-57.871.107-57.872h23.815c27.439 0 25.954.2 27.921-3.749 2.061-4.136 2.059-4.141-11.249-22.425-5.918-8.131-15.06-20.719-20.314-27.972-7.445-10.276-66.525-91.546-82.935-114.083-3.85-5.288-6.488-6.775-10.002-5.638m18.605 102.992c5.392 1.028 9.558 2.769 9.197 3.843-.092.274-.903 3.91-1.803 8.079-2.146 9.948-1.806 9.614-8.154 8.004-12.812-3.25-18.555.87-18.107 12.987.279 7.557-.793 6.793 9.537 6.793h8.767l.981.981c.962.963.98 1.105.98 7.611 0 9.119.597 8.591-9.714 8.591h-7.753l-.262 3.097c-.409 4.833-1.643 8.177-4.496 12.189-.743 1.044-1.351 1.988-1.351 2.098 0 .109 7.583.199 16.852.199 15.12 0 16.926.068 17.582.661 1.245 1.126 1.104 17.813-.157 18.697-.786.55-4.515.622-32.279.622-27.764 0-31.493-.072-32.279-.622-.849-.595-.888-.88-.888-6.478v-5.856l2.279-2.013c10.008-8.847 13.315-13.543 13.3-18.887-.011-3.896.314-3.707-6.346-3.707-8.183 0-7.634.617-7.634-8.591 0-9.052-.337-8.592 6.275-8.592h4.498l-.292-1.898c-3.987-25.916 14.55-42.899 41.267-37.808m178.415 216.629c-.034 11.055-9.614 22.342-21.425 25.244l-3.144.773 12.487.028L400 399.6v-13.986c0-7.692-.09-13.986-.2-13.986-.11 0-.202.855-.206 1.898M.04 387.113L0 399.6l12.488-.031c11.344-.029 12.268-.081 10.089-.561-11.186-2.467-19.509-10.795-21.969-21.985-.479-2.178-.531-1.253-.568 10.09" fill="#fbfbfb"/><path d="M24.376.423C13.977 1.979 5.291 9.249 1.725 19.381L.599 22.577.49 198.601C.367 394.702.115 377.203 3.156 383.475c3.689 7.608 10.082 12.845 18.226 14.927 4.835 1.237 352.301 1.263 357.133.027 9.657-2.47 17.082-9.771 20.143-19.808.877-2.874 1.398-348.788.534-354.436-1.727-11.29-9.507-19.929-20.97-23.284C375.611.137 29.412-.33 24.376.423m182.831 53.254c2.175.841 2.745 1.52 11.98 14.255 39.275 54.163 54.274 74.817 64.132 88.312a27086.082 27086.082 0 0129.334 40.216c1.777 2.449 5.808 7.991 8.957 12.315 7.238 9.938 7.78 11.231 6.247 14.9-1.941 4.644-.997 4.497-28.74 4.497h-23.792l-.001 57.642c-.001 64.631.265 59.054-2.933 61.61l-1.536 1.227-68.395.096-68.394.095-1.597-.907c-.973-.552-1.988-1.604-2.598-2.692l-1-1.786-.105-57.643-.105-57.642h-26.343c-27.833 0-27.683.01-29.726-1.924-4.774-4.516-4.177-6.04 8.71-22.252 36.432-45.829 66.992-84.383 96.72-122.023 24.393-30.884 23.851-30.359 29.185-28.296m1.384 102.993c-20.29 1.446-31.206 16.362-28.128 38.435l.265 1.898h-4.561c-6.65 0-6.337-.403-6.337 8.166 0 8.617-.607 7.956 7.552 8.218l6.234.199.118 3.385c.19 5.463-3.575 11.607-10.537 17.195-1.506 1.209-3.239 2.678-3.852 3.266l-1.113 1.068v5.563c0 4.882.089 5.644.731 6.225 1.229 1.112 63.793 1.004 64.39-.112.848-1.586.53-17.518-.36-17.994-.498-.267-6.821-.414-17.782-.414-9.355 0-17.009-.078-17.009-.174 0-.096.959-1.607 2.131-3.358 2.429-3.629 3.351-6.201 4.004-11.167l.458-3.483 7.992-.199c4.396-.11 8.217-.346 8.492-.523.369-.239.499-2.192.499-7.47 0-9.172.972-8.391-10.436-8.391-10.058 0-9.018.591-9.546-5.424-1.206-13.725 5.044-18.611 19.302-15.09 5.44 1.343 4.978 1.863 7.107-8.009 1.955-9.063 2.094-8.336-1.869-9.818-4.571-1.711-11.22-2.457-17.745-1.992" fill="#34b4cc"/><path d="M.198 199.8c0 94.835.046 133.632.102 86.214.056-47.418.056-125.01 0-172.428C.244 66.169.198 104.965.198 199.8m208.898-43.269c.608.091 1.507.089 1.998-.006.492-.095-.005-.17-1.104-.167-1.099.003-1.501.081-.894.173m4.796 0c.607.091 1.506.089 1.998-.006.491-.095-.006-.17-1.105-.167-1.099.003-1.501.081-.893.173m-12.401 31.281c0 .769.083 1.084.183.699a3.263 3.263 0 000-1.398c-.1-.385-.183-.07-.183.699m-31.897 17.383c0 3.736.06 5.318.134 3.516.073-1.802.074-4.859 0-6.793-.073-1.934-.133-.459-.134 3.277m52.348 0c-.001 3.736.059 5.318.133 3.516.074-1.802.074-4.859.001-6.793-.073-1.934-.134-.459-.134 3.277m-45.718 25.974c-.971.989-1.675 1.798-1.565 1.798.11 0 .994-.809 1.964-1.798.971-.989 1.675-1.798 1.565-1.798-.11 0-.994.809-1.964 1.798m57.711 10.19c0 4.505.058 6.348.129 4.096.072-2.253.072-5.94 0-8.192-.071-2.253-.129-.41-.129 4.096m-65.95 2.997c.001 2.637.065 3.664.143 2.282.079-1.383.078-3.54-.001-4.796-.079-1.255-.143-.124-.142 2.514M113.187 399.5c47.637.056 125.589.056 173.227 0 47.637-.055 8.661-.101-86.614-.101s-134.251.046-86.613.101" fill="#64c4d4"/><path d="M203.896 53.422a3.268 3.268 0 001.399 0c.384-.1.07-.182-.7-.182-.769 0-1.084.082-.699.182m-16.309 112.112l-1.173 1.299 1.298-1.173c1.211-1.095 1.483-1.424 1.174-1.424-.069 0-.653.584-1.299 1.298m-8.074 19.481c0 .769.083 1.084.183.699a3.263 3.263 0 000-1.398c-.1-.385-.183-.07-.183.699m0 3.197c0 .769.083 1.084.183.699a3.268 3.268 0 000-1.399c-.1-.384-.183-.069-.183.7m-5.169 25.472c1.713.075 4.411.075 5.994-.001 1.583-.076.181-.137-3.115-.137-3.297.001-4.592.063-2.879.138m30.401.289c-.124.322-.132.817-.019 1.099.113.282.22.112.237-.378.032-.885.082-.891 7.724-1.008l7.693-.118-7.705-.091c-6.462-.076-7.741.004-7.93.496m-21.201 3.41c0 1.428.073 2.013.162 1.298.088-.714.088-1.883 0-2.597-.089-.714-.162-.13-.162 1.299m144.629 3.396c.004.879.086 1.192.182.695.095-.497.092-1.216-.009-1.599-.1-.382-.178.025-.173.904m-199.307 64.336c0 31.428.047 44.345.105 28.702a9382.77 9382.77 0 000-57.142c-.058-15.787-.105-2.989-.105 28.44m69.68-53.642c.167.167 7.846.257 17.063.2l16.759-.105-17.064-.2c-9.384-.109-16.926-.062-16.758.105m-13.231 19.776c8.626.06 22.742.06 31.368 0 8.627-.061 1.569-.11-15.684-.11s-24.311.049-15.684.11" fill="#7ac4d6"/><path d="M399.798 199.8c0 94.616.046 133.322.102 86.014.056-47.308.056-124.72 0-172.028-.056-47.307-.102-8.601-.102 86.014m-187.303-24.086c.718.089 1.797.087 2.397-.004.601-.091.013-.164-1.306-.162-1.318.003-1.81.077-1.091.166m12.08 1.709l-1.398.294 1.275.053c.701.029 1.386-.128 1.522-.347.136-.22.191-.376.124-.347-.068.029-.753.185-1.523.347m-19.805 1.298l-1.174 1.299 1.299-1.174c.714-.645 1.299-1.23 1.299-1.298 0-.309-.33-.037-1.424 1.173m-2.832 9.491c0 1.868.069 2.632.153 1.698.084-.934.084-2.462 0-3.397-.084-.934-.153-.169-.153 1.699m-22.425 2.397c0 .77.083 1.084.183.7a3.268 3.268 0 000-1.399c-.1-.385-.183-.07-.183.699m23.187 5.595c.139.509 1.505.601 9.121.611l8.958.013-8.772-.121c-6.37-.087-8.868-.254-9.122-.611-.253-.357-.304-.328-.185.108m-29.358.696c1.383.078 3.54.077 4.796-.002 1.255-.079.124-.143-2.514-.142-2.637.001-3.664.065-2.282.144m48.999 8.295c0 3.736.06 5.318.134 3.516.074-1.802.074-4.859.001-6.793-.074-1.934-.134-.459-.135 3.277m-17.653 11.388c0 .77.082 1.084.183.7a3.3 3.3 0 000-1.399c-.101-.384-.183-.07-.183.699m122.515 1.181c.368.869.725 1.42.793 1.226.126-.36-1.01-2.806-1.303-2.806-.088 0 .141.711.51 1.58M70.43 220.779c.005.879.087 1.192.182.695.096-.497.092-1.216-.008-1.599-.1-.382-.178.025-.174.904m256.337 3.899l-.705 1.296.805-.943c.685-.803 1.051-1.661.705-1.652-.055.002-.417.586-.805 1.299m-237.756 3.394c7.308.061 19.266.061 26.573 0 7.308-.061 1.329-.111-13.286-.111-14.616 0-20.595.05-13.287.111m198.002 0c6.538.061 17.238.061 23.776 0 6.539-.062 1.189-.112-11.888-.112s-18.426.05-11.888.112m-111.2 3.197l-2.586 2.697 2.697-2.586c1.484-1.422 2.697-2.636 2.697-2.697 0-.294-.407.08-2.808 2.586M168.1 348.751c18.499.058 48.889.058 67.533 0 18.644-.057 3.508-.104-33.635-.104s-52.397.047-33.898.104M.093 373.626c0 .77.082 1.084.182.7a3.268 3.268 0 000-1.399c-.1-.385-.182-.07-.182.699" fill="#aed9e7"/></g></svg>