<?xml version="1.0" encoding="utf-8"?><svg xmlns="http://www.w3.org/2000/svg" viewBox="0 0 49.83 49.83" width="49.83" height="49.83"><defs><style>.fcls-1{fill:transparent}.fcls-2{fill:#fff}</style></defs><g id="fLayer_1" data-name="Layer 1"><path class="fcls-1" d="M49.83 3.51v42.81a3.51 3.51 0 01-3.52 3.51H3.51A3.51 3.51 0 010 46.32V3.51A3.51 3.51 0 013.51 0h42.8a3.51 3.51 0 013.52 3.51z"/><path class="fcls-2" d="M15.43 7.64L3.94 12.93l11.49 5.09 11.5-5.09-11.5-5.29zM3.98 13.8v13.98l11.06 4.96.02-13.94-11.08-5zM26.87 14.02v3.92l-5.71 2.64v9.96l-5.15 2.29v-14l10.86-4.81z"/><path class="fcls-2" d="M34.16 15.82L22.67 21l11.49 5.08L45.65 21l-11.49-5.18zM22.71 21.97l-.01 13.77 10.85 4.83-.03-13.79-10.81-4.81zM45.67 22.12l-10.83 4.77-.04 13.71 10.86-4.83.01-13.65z"/></g></svg>