<?xml version="1.0" encoding="UTF-8"?><svg width="449" height="909" xmlns="http://www.w3.org/2000/svg" xmlns:xlink="http://www.w3.org/1999/xlink" viewBox="0 0 449 909"><defs><linearGradient x1="49.55%" y1="0%" x2="49.836%" y2="100%" id="hb"><stop stop-color="#FBDDCB" stop-opacity=".275" offset="0%"/><stop stop-color="#FBDDCB" offset="5%"/><stop stop-color="#FBDDCB" offset="95%"/><stop stop-color="#FBDDCB" stop-opacity=".275" offset="100%"/></linearGradient><linearGradient x1="100%" y1="0%" x2="100%" y2="100%" id="he"><stop stop-color="#FBDDCB" stop-opacity=".275" offset="0%"/><stop stop-color="#FBDDCB" offset="5%"/><stop stop-color="#FBDDCB" offset="95%"/><stop stop-color="#FBDDCB" stop-opacity=".275" offset="100%"/></linearGradient><linearGradient x1="100%" y1="0%" x2="100%" y2="100%" id="hh"><stop stop-color="#FBDDCB" stop-opacity=".275" offset="0%"/><stop stop-color="#FBDDCB" offset="5%"/><stop stop-color="#FBDDCB" offset="95%"/><stop stop-color="#FBDDCB" stop-opacity=".275" offset="100%"/></linearGradient><linearGradient x1="14.282%" y1="15.045%" x2="87.281%" y2="83.353%" id="hl"><stop stop-color="#1C1518" offset="0%"/><stop stop-color="#191715" offset="100%"/></linearGradient><path d="M2.182 3.328A2.175 2.175 0 000 5.508V67.96c0 1.208.973 2.182 2.182 2.182h16.803a2.178 2.178 0 002.182-2.182V5.507c0-1.208-.973-2.18-2.182-2.18H2.182z" id="ha"/><path d="M2.182 3.328A2.175 2.175 0 000 5.508V67.96c0 1.208.973 2.182 2.182 2.182h16.803a2.178 2.178 0 002.182-2.182V5.507c0-1.208-.973-2.18-2.182-2.18H2.182z" id="hd"/><path d="M2.182 3.328A2.175 2.175 0 000 5.508V67.96c0 1.208.973 2.182 2.182 2.182h16.803a2.178 2.178 0 002.182-2.182V5.507c0-1.208-.973-2.18-2.182-2.18H2.182z" id="hg"/><circle id="hj" cx="34.66" cy="34.18" r="34.128"/></defs><g fill="none" fill-rule="evenodd"><path d="M0 117.1h20.576v34.87H0zM2.182 194.315A2.175 2.175 0 000 196.495v62.453c0 1.209.973 2.182 2.182 2.182h16.803a2.178 2.178 0 002.182-2.182v-62.453c0-1.209-.973-2.18-2.182-2.18H2.182z" fill="#AA7F6D" fill-rule="nonzero"/><g transform="translate(0 190.988)"><mask id="hc" fill="#fff"><use xlink:href="#ha"/></mask><path d="M2.646 5.273A1.94 1.94 0 00.7 7.217v59.035a1.94 1.94 0 001.945 1.944h4.617l7.489-33.452L6.457 5.273H2.646z" fill="url(#hb)" fill-rule="nonzero" mask="url(#hc)"/></g><path d="M2.182 277.691A2.175 2.175 0 000 279.871v62.454c0 1.208.973 2.182 2.182 2.182h16.803a2.178 2.178 0 002.182-2.182V279.87c0-1.209-.973-2.18-2.182-2.18H2.182z" fill="#AA7F6D" fill-rule="nonzero"/><g transform="translate(0 274.364)"><mask id="hf" fill="#fff"><use xlink:href="#hd"/></mask><path d="M2.646 5.273A1.94 1.94 0 00.7 7.217v59.035a1.94 1.94 0 001.945 1.944h8.824V5.273H2.646z" fill="url(#he)" fill-rule="nonzero" mask="url(#hf)"/></g><g><path d="M446.258 261.103a2.175 2.175 0 002.182-2.18V196.47a2.178 2.178 0 00-2.182-2.182h-16.803a2.178 2.178 0 00-2.182 2.182v62.454c0 1.209.973 2.18 2.182 2.18h16.803z" fill="#AA7F6D" fill-rule="nonzero"/><g transform="rotate(-180 224.22 132.215)"><mask id="hi" fill="#fff"><use xlink:href="#hg"/></mask><path d="M2.646 5.273A1.94 1.94 0 00.7 7.217v59.035a1.94 1.94 0 001.945 1.944h8.824V5.273H2.646z" fill="url(#hh)" fill-rule="nonzero" mask="url(#hi)"/></g></g><g><path d="M74.512 1h299.416c38.66 0 70 31.34 70 70v767.05c0 38.66-31.34 70-70 70H74.512c-38.66 0-70-31.34-70-70V71c0-38.66 31.34-70 70-70zM30.318 111.372V797.68h387.804V111.372H30.318z" stroke="#979797" fill="#D4A089"/><path d="M4.512 73.457V87.17h439.416V73.457H4.512zm0 748.467v13.67h439.416v-13.67H4.512z" fill-opacity=".065" fill="#000" fill-rule="nonzero"/><g fill-rule="nonzero"><path d="M71.752 11.126h304.936c31.48 0 57 25.52 57 57v772.8c0 31.48-25.52 57-57 57H71.752c-31.48 0-57-25.52-57-57v-772.8c0-31.48 25.52-57 57-57zM30.318 111.372V797.68h387.804V111.372H30.318z" fill="#FAFBFD"/><path d="M73.875 11.126c-32.753 0-59.123 26.367-59.123 59.121v768.555c0 32.754 26.37 59.123 59.123 59.123h6.42c-32.754 0-59.123-26.37-59.123-59.123V70.247c0-32.754 26.37-59.12 59.123-59.12h-6.42zm294.27 0c32.754 0 59.123 26.367 59.123 59.121v768.555c0 32.754-26.37 59.123-59.123 59.123h6.42c32.753 0 59.123-26.37 59.123-59.123V70.247c0-32.754-26.37-59.12-59.123-59.12h-6.42z" fill="#FEFEFE"/></g></g><g><g transform="translate(190 813.26)"><circle fill="#895A45" fill-rule="nonzero" cx="34.22" cy="34.18" r="34.128"/><g transform="translate(91)"><mask id="hk" fill="#fff"><use xlink:href="#hj"/></mask><g fill-rule="nonzero" mask="url(#hk)"><g fill="#F1CAB8"><path d="M-103.306 33.597s16.967-2.981 26.597 2.98c9.63 5.962 15.59 28.202 12.152 39.207-3.44 11.006-51.589-20.864-38.75-42.187zM-55.845-4.006s-2.522 22.24 2.293 28.431c4.815 6.19 31.641-8.483 34.851-15.362 3.21-6.878-32.329-23.157-37.144-13.069zM-40.483 55.837s3.21 10.776 12.381 14.215c9.172 3.44 22.7-45.856 10.777-46.544-11.923-.688-21.782 15.591-23.158 32.329z"/></g><g fill="#FEFEFD"><path d="M-97.116 37.494s15.362-5.732 20.407.688c5.044 6.42.917 25.221-5.962 28.89-6.878 3.668-21.323-22.7-14.445-29.578zM-54.469-2.63s-1.605 14.215.459 15.133c2.063.917 8.483-10.777 5.502-16.509-2.98-5.732-5.961 1.376-5.961 1.376zM-29.936 30.387s7.108-5.045 12.381-4.815c5.274.229-.553 42.489-9.724 40.884-9.172-1.605-11.694-11.464-11.694-11.464l9.037-24.605z"/></g></g></g><circle fill="#FAFBFD" fill-rule="nonzero" cx="34.22" cy="34.18" r="30.376"/></g></g><g transform="translate(146 27.051)"><path d="M16.115 33.35a7.745 7.745 0 11-15.49-.01 7.745 7.745 0 0115.49.01z" fill="url(#hl)"/><g fill-rule="nonzero"><path d="M13.334 33.585a5.125 5.125 0 11-10.25-.007 5.125 5.125 0 0110.25.007z" fill="#000"/><path d="M12.998 33.585a4.79 4.79 0 11-9.579 0 4.79 4.79 0 019.579 0z" fill="#001A49"/><path d="M11.168 33.417a2.876 2.876 0 11-5.751-.015 2.876 2.876 0 015.751.015h0z" stroke="#555" stroke-width=".575" fill="#232323" opacity=".75"/></g><path d="M8.65 30.22c-1.483-.12-3.759 1.825-4.166 3.961 1.619-.526 3.378-3.142 4.166-3.962z" fill="#FFF" fill-rule="nonzero"/><path fill="#232426" fill-rule="nonzero" d="M40.249 29.582h75.942v7.134H40.249z"/><circle fill="#2C2C2C" fill-rule="nonzero" cx="78.22" cy="4.994" r="4.872"/></g></g></svg>