<?xml version="1.0" encoding="UTF-8"?><svg width="141" height="281" xmlns="http://www.w3.org/2000/svg" xmlns:xlink="http://www.w3.org/1999/xlink" viewBox="0 0 141 281"><defs><path d="M63.163 10.083h14.244a1.317 1.317 0 010 2.633H63.163a1.317 1.317 0 110-2.633z" id="ga"/></defs><g><path d="M139.297 97.189v158.557c0 15.508-7.929 24.516-24.516 24.516h-89.1c-17.128 0-24.516-8.468-24.516-24.516V104.043H.787c-.348-.18-.57-.256-.696-.568a1.786 1.786 0 01-.058-.321V84.187a.62.62 0 01.058-.23c.157-.22.45-.374.696-.434h.378v-5.175H.787c-.348-.18-.57-.256-.696-.568a1.786 1.786 0 01-.058-.321V58.492a.62.62 0 01.058-.23c.157-.22.45-.374.696-.434h.378v-9.06H.787a.755.755 0 01-.754-.755v-9.288c0-.418.337-.756.754-.756h.378V25.058C1.165 9.01 8.553.542 25.68.542h89.1c17.127 0 24.516 8.468 24.516 24.516v39.515h.377c.245.06.54.215.696.434a.62.62 0 01.058.23V96.3c0 .044-.036.267-.058.322-.127.311-.347.387-.696.567h-.377zm-35.15-86.026v.108c0 3.012-2.294 6.828-7.573 6.828H43.995c-5.279 0-7.573-3.816-7.573-6.828v-.108c0-1.393 0-2.818-2.488-2.818H23.44c-8.77 0-14.065 5.303-14.065 14.089v235.828c0 8.786 5.295 14.09 14.065 14.09h93.581c8.77 0 14.065-5.304 14.065-14.09V22.434c0-8.786-5.294-14.089-14.065-14.089h-10.386c-2.488 0-2.488 1.425-2.488 2.818z" fill="#E3E4E6"/><use fill="#FFF" xlink:href="#ga"/></g></svg>