<?xml version="1.0" encoding="utf-8"?><svg xmlns="http://www.w3.org/2000/svg" viewBox="0 0 49.83 49.83" width="49.83" height="49.83"><defs><style>.lcls-1{fill:#3ab0c8}.lcls-2{fill:#fff}</style></defs><g id="lLayer_1" data-name="Layer 1"><path class="lcls-1" d="M49.83 3.51v42.81a3.51 3.51 0 01-3.52 3.51H3.51A3.51 3.51 0 010 46.32V3.51A3.51 3.51 0 013.51 0h42.8a3.51 3.51 0 013.52 3.51z"/><path class="lcls-2" d="M14.29 21.32v-4.2a10.87 10.87 0 019.62-10.88A10.51 10.51 0 0132.07 9a10.7 10.7 0 013.48 7.88v4.4h-5v-4.4a5.58 5.58 0 00-11.16 0v4.4h-4.53zm17.22-1.09h3v-3.4a9.7 9.7 0 00-3.11-7.14A9.54 9.54 0 0024 7.24a9.85 9.85 0 00-8.71 9.88v3.11h3.06v-3.4a6.58 6.58 0 0113.16 0zM37.48 21.52H12.34a1.59 1.59 0 00-1.59 1.59v18.43a1.59 1.59 0 001.59 1.59h25.14a1.59 1.59 0 001.59-1.59V23.11a1.59 1.59 0 00-1.59-1.59zM24 37.48v-5a2.87 2.87 0 111.92 0v5a1 1 0 01-1.92 0z"/></g></svg>