<?xml version="1.0" encoding="utf-8"?><svg xmlns="http://www.w3.org/2000/svg" viewBox="0 0 49.83 49.83" width="49.83" height="49.83"><defs><style>.ncls-1{fill:transparent}.ncls-2{fill:#fff}</style></defs><g id="nLayer_1" data-name="Layer 1"><path class="ncls-1" d="M49.83 3.51v42.81a3.51 3.51 0 01-3.52 3.51H3.51A3.51 3.51 0 010 46.32V3.51A3.51 3.51 0 013.51 0h42.8a3.51 3.51 0 013.52 3.51z"/><path class="ncls-1" d="M29.21 37.01H18.94v4.46H22v2.5h4.16v-2.5h3.05v-4.46z"/><path class="ncls-2" d="M26.65 44.47H21.5V42h-3.06v-5.49h11.27V42h-3.06zm-4.15-1h3.15V41h3.06v-3.49h-9.27V41h3.06z"/><path class="ncls-1" d="M28.96 7.38h3.85v9.29h-3.85z"/><path class="ncls-2" d="M33.3 17.16h-4.85V6.88h4.85zm-3.85-1h2.85V7.88h-2.85z"/><path class="ncls-1" d="M15.35 7.38h3.85v9.29h-3.85z"/><path class="ncls-2" d="M19.7 17.16h-4.85V6.88h4.85zm-3.85-1h2.85V7.88h-2.85z"/><path class="ncls-2" d="M9.51 16.66v4.59h2.13v8.25A7.34 7.34 0 0018.8 37h10.55a7.34 7.34 0 007.17-7.51v-8.24h2.12v-4.59z"/><path class="ncls-1" d="M29.33 26.57l-7.65 4.26c-.23.22-.83.22-.83 0V21.5c0-.24.6-.24.82 0l7.68 4.24a.59.59 0 01-.02.83z"/></g></svg>