<?xml version="1.0" encoding="utf-8"?><svg xmlns="http://www.w3.org/2000/svg" viewBox="0 0 49.83 49.83" width="49.83" height="49.83"><defs><style>.ucls-1{fill:#a0d5b3}.ucls-2{fill:#fff}</style></defs><g id="uLayer_1" data-name="Layer 1"><path class="ucls-1" d="M49.83 3.51v42.81a3.51 3.51 0 01-3.52 3.51H3.51A3.51 3.51 0 010 46.32V3.51A3.51 3.51 0 013.51 0h42.8a3.51 3.51 0 013.52 3.51z"/><path class="ucls-2" d="M30 22.94a7.41 7.41 0 01-2.39 1.59 7.38 7.38 0 01-5.59 0 7.52 7.52 0 01-2.39-1.59 7.32 7.32 0 01-1.58-8 7.34 7.34 0 016.77-4.53A7.44 7.44 0 0130 12.57 7.52 7.52 0 0131.63 15a7.24 7.24 0 01.55 2.8 7.32 7.32 0 01-.55 2.8A7.47 7.47 0 0130 22.94zM16.77 39.76h19.17v-5.92a12.7 12.7 0 00-.14-1.41 10 10 0 00-.8-2.61 7.89 7.89 0 00-.69-1.16 8.1 8.1 0 00-.89-1 7.68 7.68 0 00-1.06-.89 9 9 0 00-1.2-.77 13.17 13.17 0 00-1.34-.57l-.37-.13-.69-.3-.58-.21-.47.4-.56.48-.29.25-.22.16-.21.15a1.51 1.51 0 01-.22.11l-.24.1-.25.08-.25.06h-1.06l-.27-.06-.22-.07-.23-.1-.24-.13-.22-.15L23 26l-.27-.24-.53-.45-.44-.38-.55.16-.67.2-.35.11a8.94 8.94 0 00-1.33.52 9.33 9.33 0 00-1.25.74 9.13 9.13 0 00-1.11.91 8.74 8.74 0 00-1 1.08 9.71 9.71 0 00-.76 1.22 8.57 8.57 0 00-.56 1.32 9.55 9.55 0 00-.35 1.4 8.72 8.72 0 00-.07 1.41v5.79h3zM39.86 21a3.5 3.5 0 01-1.18.79 3.62 3.62 0 01-2.79 0 3.5 3.5 0 01-1.18-.79 3.71 3.71 0 01-.79-1.18 3.59 3.59 0 010-2.78 3.86 3.86 0 01.79-1.19 3.82 3.82 0 011.18-.85 3.74 3.74 0 012.79 0 3.82 3.82 0 011.18.79 3.86 3.86 0 01.79 1.21 3.59 3.59 0 010 2.78 3.71 3.71 0 01-.79 1.22z"/><path class="ucls-2" d="M32 25.21a10.87 10.87 0 011 .64 9.41 9.41 0 011.19 1 8.67 8.67 0 011 1.18 8.55 8.55 0 01.77 1.3h6.86v-2.91c0-.24 0-.47-.07-.69s-.09-.45-.15-.67a5.9 5.9 0 00-.25-.63 3.68 3.68 0 00-.34-.58 4.47 4.47 0 00-.44-.52 3.75 3.75 0 00-.53-.44 5.17 5.17 0 00-.59-.36 6.11 6.11 0 00-.67-.29l-.18-.06-.38-.18-.28-.1-.24.2-.27.24-.15.12-.11.09-.1.07-.11.05-.12.05H36.71l-.12-.07-.12-.07-.1-.08-.14-.12-.23-.26-.22-.18-.27.08-.33.1-.18.05a4.77 4.77 0 00-.66.26 3.9 3.9 0 00-.62.37 4.13 4.13 0 00-.55.45 4 4 0 00-.48.54 5.63 5.63 0 00-.38.6 3.81 3.81 0 00-.27.66zM14.75 21a3.4 3.4 0 01-1.18.79 3.59 3.59 0 01-2.78 0 3.57 3.57 0 01-2-2 3.59 3.59 0 010-2.78 3.67 3.67 0 01.78-1.19 3.86 3.86 0 011.22-.82 3.71 3.71 0 012.78 0 3.71 3.71 0 011.18.79 3.54 3.54 0 01.79 1.21 3.59 3.59 0 010 2.78 3.4 3.4 0 01-.79 1.22z"/><path class="ucls-2" d="M8.16 29.33h5.69A10.66 10.66 0 0114.7 28a9.36 9.36 0 011.07-1.2 10.19 10.19 0 011.24-1l.54-.36a2.37 2.37 0 00-.09-.36 4.35 4.35 0 00-.25-.63 3.94 3.94 0 00-.78-1.1 3.75 3.75 0 00-.53-.44 3.87 3.87 0 00-.59-.36 6.86 6.86 0 00-.66-.29l-.19-.06-.34-.2-.29-.1-.23.2-.28.24-.15.12a1 1 0 01-.1.09l-.11.07-.11.05-.12.05H11.6l-.12-.07-.11-.07-.11-.08-.13-.12-.27-.23-.22-.18-.27.08-.33.1-.17.05a5.46 5.46 0 00-.67.26 4.41 4.41 0 00-.62.37 4.89 4.89 0 00-.55.45 4 4 0 00-.47.54 3.6 3.6 0 00-.38.6 3.85 3.85 0 00-.28.66 4.09 4.09 0 00-.17.69 4.34 4.34 0 00-.06.71v2.88h1.49z"/></g></svg>