<?xml version="1.0" encoding="UTF-8" standalone="no"?><!DOCTYPE svg PUBLIC "-//W3C//DTD SVG 1.1//EN" "http://www.w3.org/Graphics/SVG/1.1/DTD/svg11.dtd"><svg width="100%" height="100%" viewBox="0 0 953 185" version="1.1" xmlns="http://www.w3.org/2000/svg" xmlns:xlink="http://www.w3.org/1999/xlink" xml:space="preserve" xmlns:serif="http://www.serif.com/" style="fill-rule:evenodd;clip-rule:evenodd;stroke-linejoin:round;stroke-miterlimit:1.41421;"><rect id="Artboard1" x="0" y="0" width="953" height="185" style="fill:none;"/><g><g><rect x="101.098" y="4.5" width="65.39" height="65.989" style="fill:#3ab0c8;"/><rect x="101.098" y="104.794" width="65.39" height="65.989" style="fill:#b22672;"/><rect x="200.414" y="4.5" width="65.407" height="65.989" style="fill:#f15f3f;"/><rect x="4.1" y="4.5" width="65.391" height="65.989" style="fill:#fdb528;"/><rect x="4.1" y="104.794" width="65.391" height="65.989" style="fill:#a0d5b3;"/></g><g><g><path d="M269.109,165.751c-3.629,4.384 -8.351,7.979 -14.168,10.795c-5.819,2.811 -12.48,4.221 -19.983,4.221c-6.26,0 -12.042,-1.156 -17.36,-3.475c-5.318,-2.312 -9.916,-5.501 -13.793,-9.566c-3.876,-4.071 -6.878,-8.881 -9.006,-14.449c-2.13,-5.567 -3.19,-11.541 -3.19,-17.926c0,-6.381 1.095,-12.35 3.283,-17.917c2.19,-5.569 5.222,-10.383 9.103,-14.45c3.877,-4.063 8.472,-7.254 13.793,-9.57c5.315,-2.314 11.04,-3.472 17.171,-3.472c7.626,0 14.104,1.347 19.421,4.036c5.313,2.689 9.85,6.412 13.602,11.165l-6.379,4.876c-2.878,-3.752 -6.472,-6.725 -10.791,-8.912c-4.314,-2.187 -9.602,-3.283 -15.853,-3.283c-5.008,0 -9.605,1.002 -13.792,3.003c-4.195,1.997 -7.821,4.69 -10.884,8.064c-3.068,3.382 -5.441,7.354 -7.13,11.92c-1.689,4.564 -2.535,9.413 -2.535,14.539c0,5.134 0.872,9.982 2.627,14.544c1.751,4.568 4.155,8.538 7.223,11.919c3.064,3.374 6.693,6.07 10.885,8.068c4.19,2.004 8.726,3.002 13.607,3.002c6.251,0 11.787,-1.126 16.606,-3.378c4.813,-2.253 8.66,-5.252 11.542,-9.009l6.001,5.255Z" style="fill:#fff;fill-rule:nonzero;"/><path d="M339.665,134.417c-2.625,-0.624 -5.911,-1.158 -9.85,-1.598c-3.943,-0.438 -8.978,-0.653 -15.105,-0.653c-6.38,0 -11.447,0.782 -15.201,2.342c-3.752,1.565 -6.599,3.506 -8.539,5.817c-1.94,2.314 -3.189,4.818 -3.753,7.507c-0.562,2.69 -0.844,5.096 -0.844,7.222c0,6.256 2.096,10.825 6.286,13.7c4.192,2.883 9.54,4.316 16.042,4.316c4.253,0 8.259,-0.754 12.012,-2.251c3.754,-1.502 7.038,-3.503 9.854,-6.007c2.812,-2.496 5.033,-5.344 6.659,-8.536c1.626,-3.189 2.44,-6.412 2.44,-9.665l0,-12.194l-0.001,0Zm0.75,44.097c-0.126,-1.128 -0.185,-2.375 -0.185,-3.754c-0.127,-1.246 -0.189,-2.752 -0.189,-4.504l0,-6.192c-2.251,3.253 -4.723,5.977 -7.411,8.163c-2.691,2.194 -5.507,3.912 -8.448,5.159c-2.938,1.251 -5.818,2.126 -8.629,2.625c-2.816,0.499 -5.415,0.753 -7.788,0.753c-3.63,0 -7.256,-0.374 -10.885,-1.123c-3.629,-0.75 -6.879,-2.096 -9.757,-4.036c-2.879,-1.936 -5.226,-4.566 -7.037,-7.883c-1.814,-3.31 -2.72,-7.53 -2.72,-12.668c0,-4.127 0.686,-8.034 2.064,-11.726c1.375,-3.688 3.564,-6.876 6.565,-9.57c3.005,-2.688 6.878,-4.815 11.635,-6.38c4.754,-1.563 10.508,-2.342 17.264,-2.342c5.256,0 9.946,0.185 14.076,0.56c4.129,0.378 7.626,0.813 10.508,1.313l0,-4.88c0,-4.755 -0.562,-8.692 -1.689,-11.82c-1.127,-3.125 -2.816,-5.628 -5.067,-7.509c-2.254,-1.872 -5.004,-3.189 -8.257,-3.937c-3.255,-0.753 -7.007,-1.127 -11.261,-1.127c-7.13,0 -12.793,1.033 -16.98,3.098c-4.195,2.064 -7.414,4.031 -9.665,5.912l-4.505,-5.818c2.376,-2.255 6.22,-4.63 11.539,-7.133c5.318,-2.501 11.791,-3.753 19.425,-3.753c11.132,0 19.729,2.379 25.801,7.134c6.064,4.755 9.1,12.634 9.1,23.642l0,46.818c0,2.187 0.063,4.101 0.187,5.719c0.124,2.005 0.252,3.753 0.375,5.259l-8.066,0Z" style="fill:#fff;fill-rule:nonzero;"/><path d="M361.972,161.623c3.626,3.629 7.789,6.416 12.479,8.354c4.692,1.939 10.227,2.907 16.605,2.907c3.502,0 6.818,-0.347 9.946,-1.035c3.126,-0.686 5.88,-1.688 8.259,-3c2.373,-1.313 4.248,-2.97 5.627,-4.974c1.376,-1.998 2.065,-4.377 2.065,-7.127c0,-3.124 -0.628,-5.695 -1.875,-7.697c-1.255,-2.001 -3.099,-3.656 -5.54,-4.974c-2.436,-1.313 -5.504,-2.44 -9.195,-3.375c-3.692,-0.938 -7.914,-1.969 -12.666,-3.097c-4.003,-0.874 -7.662,-1.903 -10.977,-3.098c-3.315,-1.188 -6.162,-2.655 -8.535,-4.411c-2.38,-1.748 -4.258,-3.968 -5.633,-6.657c-1.374,-2.689 -2.064,-6.036 -2.064,-10.043c0,-3.876 0.875,-7.285 2.63,-10.224c1.749,-2.941 4.092,-5.409 7.037,-7.414c2.936,-1.997 6.313,-3.472 10.133,-4.41c3.812,-0.939 7.785,-1.407 11.914,-1.407c6.755,0 12.729,1.255 17.921,3.753c5.192,2.503 9.414,5.695 12.666,9.569l-5.817,5.254c-3.002,-3.25 -6.472,-5.875 -10.416,-7.88c-3.939,-1.997 -8.665,-3.002 -14.164,-3.002c-2.755,0 -5.509,0.219 -8.259,0.658c-2.754,0.439 -5.256,1.249 -7.507,2.436c-2.254,1.191 -4.066,2.818 -5.441,4.884c-1.378,2.065 -2.065,4.784 -2.065,8.159c0,2.754 0.78,5.068 2.347,6.945c1.563,1.875 3.596,3.44 6.098,4.689c2.501,1.256 5.375,2.288 8.633,3.098c3.249,0.817 6.501,1.593 9.757,2.35c3.501,0.748 7.037,1.686 10.601,2.811c3.566,1.127 6.818,2.599 9.757,4.41c2.938,1.819 5.318,4.127 7.133,6.944c1.81,2.811 2.72,6.351 2.72,10.604c0,4.379 -1.002,8.131 -3.001,11.256c-2.003,3.129 -4.633,5.723 -7.883,7.788c-3.253,2.063 -6.944,3.598 -11.069,4.596c-4.128,0.999 -8.257,1.505 -12.388,1.505c-8.132,0 -15.043,-1.194 -20.731,-3.569c-5.695,-2.372 -10.544,-5.564 -14.545,-9.57l5.443,-6.006Z" style="fill:#fff;fill-rule:nonzero;"/><path d="M509.849,165.751c-3.628,4.384 -8.352,7.979 -14.17,10.795c-5.817,2.811 -12.478,4.221 -19.979,4.221c-6.26,0 -12.043,-1.156 -17.362,-3.475c-5.318,-2.312 -9.914,-5.501 -13.791,-9.566c-3.881,-4.071 -6.88,-8.881 -9.008,-14.449c-2.129,-5.567 -3.19,-11.541 -3.19,-17.926c0,-6.381 1.094,-12.35 3.284,-17.917c2.189,-5.569 5.223,-10.383 9.104,-14.45c3.877,-4.063 8.469,-7.254 13.791,-9.57c5.314,-2.314 11.042,-3.472 17.172,-3.472c7.626,0 14.102,1.347 19.421,4.036c5.313,2.689 9.849,6.412 13.601,11.165l-6.378,4.876c-2.877,-3.752 -6.471,-6.725 -10.79,-8.912c-4.316,-2.187 -9.604,-3.283 -15.854,-3.283c-5.007,0 -9.607,1.002 -13.794,3.003c-4.195,1.997 -7.819,4.69 -10.883,8.064c-3.067,3.382 -5.442,7.354 -7.133,11.92c-1.687,4.564 -2.53,9.413 -2.53,14.539c0,5.134 0.87,9.982 2.625,14.544c1.75,4.568 4.157,8.538 7.224,11.919c3.064,3.374 6.691,6.07 10.883,8.068c4.191,2.004 8.726,3.002 13.609,3.002c6.249,0 11.786,-1.126 16.602,-3.378c4.815,-2.253 8.662,-5.252 11.545,-9.009l6.001,5.255Z" style="fill:#fff;fill-rule:nonzero;"/><path d="M578.888,134.417c-2.625,-0.624 -5.913,-1.158 -9.851,-1.598c-3.945,-0.438 -8.979,-0.653 -15.107,-0.653c-6.377,0 -11.449,0.782 -15.201,2.342c-3.75,1.565 -6.598,3.506 -8.538,5.817c-1.94,2.314 -3.188,4.818 -3.751,7.507c-0.564,2.69 -0.845,5.096 -0.845,7.222c0,6.256 2.096,10.825 6.286,13.7c4.191,2.883 9.54,4.316 16.042,4.316c4.252,0 8.258,-0.754 12.01,-2.251c3.757,-1.502 7.039,-3.503 9.851,-6.007c2.817,-2.496 5.039,-5.344 6.664,-8.536c1.628,-3.189 2.44,-6.412 2.44,-9.665l0,-12.194Zm0.749,44.097c-0.125,-1.128 -0.186,-2.375 -0.186,-3.754c-0.125,-1.246 -0.189,-2.752 -0.189,-4.504l0,-6.192c-2.249,3.253 -4.721,5.977 -7.41,8.163c-2.688,2.194 -5.507,3.912 -8.446,5.159c-2.938,1.251 -5.817,2.126 -8.632,2.625c-2.813,0.499 -5.412,0.753 -7.789,0.753c-3.627,0 -7.254,-0.374 -10.882,-1.123c-3.632,-0.75 -6.879,-2.096 -9.759,-4.036c-2.878,-1.936 -5.224,-4.566 -7.035,-7.883c-1.815,-3.31 -2.72,-7.53 -2.72,-12.668c0,-4.127 0.684,-8.034 2.066,-11.726c1.372,-3.688 3.562,-6.876 6.562,-9.57c3.007,-2.688 6.881,-4.815 11.635,-6.38c4.755,-1.563 10.512,-2.342 17.264,-2.342c5.258,0 9.947,0.185 14.078,0.56c4.127,0.378 7.626,0.813 10.509,1.313l0,-4.88c0,-4.755 -0.567,-8.692 -1.689,-11.82c-1.129,-3.125 -2.815,-5.628 -5.066,-7.509c-2.255,-1.872 -5.008,-3.189 -8.257,-3.937c-3.253,-0.753 -7.01,-1.127 -11.261,-1.127c-7.13,0 -12.792,1.033 -16.98,3.098c-4.194,2.064 -7.413,4.031 -9.663,5.912l-4.506,-5.818c2.374,-2.255 6.218,-4.63 11.537,-7.133c5.317,-2.501 11.789,-3.753 19.427,-3.753c11.131,0 19.729,2.379 25.8,7.134c6.063,4.755 9.102,12.634 9.102,23.642l0,46.818c0,2.187 0.062,4.101 0.185,5.719c0.126,2.005 0.254,3.753 0.376,5.259l-8.071,0Z" style="fill:#fff;fill-rule:nonzero;"/><path d="M666.144,107.395c-1.877,-1.748 -4.066,-3.314 -6.565,-4.695c-2.131,-1.244 -4.881,-2.371 -8.259,-3.378c-3.378,-0.998 -7.259,-1.497 -11.635,-1.497c-4.505,0 -8.851,0.718 -13.042,2.156c-4.192,1.438 -7.944,3.722 -11.262,6.85c-3.313,3.128 -5.976,7.13 -7.973,12.01c-2.002,4.88 -3.003,10.697 -3.003,17.453c0,4.878 0.563,9.509 1.69,13.882c1.127,4.38 2.909,8.262 5.348,11.635c2.44,3.382 5.598,6.07 9.475,8.072c3.879,2.001 8.633,2.999 14.262,2.999c5.258,0 9.822,-0.965 13.699,-2.904c3.877,-1.941 7.101,-4.347 9.665,-7.229c2.565,-2.874 4.475,-5.907 5.723,-9.097c1.249,-3.192 1.877,-6.033 1.877,-8.541l0,-37.716Zm0.374,71.119c-0.125,-1.623 -0.187,-3.254 -0.187,-4.88c-0.128,-1.377 -0.188,-2.974 -0.188,-4.785l0,-5.348c-1.877,3.253 -4.38,6.131 -7.505,8.635c-2.629,2.125 -5.942,4.096 -9.945,5.908c-4.008,1.816 -8.82,2.72 -14.453,2.72c-6.63,0 -12.379,-1.157 -17.263,-3.469c-4.88,-2.314 -8.912,-5.477 -12.104,-9.479c-3.184,-4.001 -5.563,-8.723 -7.129,-14.165c-1.563,-5.442 -2.342,-11.291 -2.342,-17.548c0,-7.001 1.088,-13.352 3.279,-19.048c2.19,-5.689 5.258,-10.535 9.195,-14.54c3.941,-4.002 8.632,-7.101 14.074,-9.29c5.443,-2.187 11.416,-3.283 17.922,-3.283c3.628,0 6.972,0.438 10.035,1.316c3.063,0.874 5.852,1.815 8.353,2.814c2.753,1.248 5.379,2.625 7.883,4.13l0,-44.853l8.258,0l0,114.187c0,2.187 0.063,4.101 0.186,5.719c0,2.005 0.063,3.753 0.188,5.259l-8.257,0Z" style="fill:#fff;fill-rule:nonzero;"/><path d="M756.965,130.286c-1.123,-10.63 -4.504,-18.701 -10.133,-24.209c-5.628,-5.503 -12.947,-8.253 -21.953,-8.253c-4.634,0 -8.856,0.849 -12.665,2.535c-3.82,1.687 -7.103,4.001 -9.854,6.94c-2.754,2.939 -4.974,6.381 -6.664,10.323c-1.688,3.937 -2.659,8.162 -2.909,12.664l64.178,0Zm5.444,35.279c-3.757,4.755 -8.851,8.477 -15.293,11.166c-6.446,2.689 -13.047,4.032 -19.802,4.032c-6.378,0 -12.289,-1.097 -17.732,-3.28c-5.439,-2.189 -10.1,-5.287 -13.977,-9.292c-3.882,-3.999 -6.915,-8.788 -9.104,-14.355c-2.187,-5.567 -3.285,-11.726 -3.285,-18.481c0,-6.257 1.033,-12.135 3.1,-17.643c2.064,-5.503 4.909,-10.317 8.537,-14.445c3.626,-4.131 8.008,-7.383 13.132,-9.763c5.131,-2.375 10.762,-3.562 16.894,-3.562c5.878,0 11.351,1.028 16.42,3.094c5.064,2.065 9.44,5.102 13.133,9.104c3.688,4.006 6.57,8.977 8.635,14.916c2.062,5.946 3.095,12.793 3.095,20.547l-73.559,0c0.124,4.884 1.062,9.479 2.813,13.795c1.748,4.315 4.127,8.072 7.13,11.26c3.004,3.192 6.601,5.693 10.791,7.504c4.191,1.816 8.848,2.721 13.978,2.721c2.633,0 5.349,-0.275 8.167,-0.84c2.813,-0.563 5.533,-1.41 8.159,-2.538c2.628,-1.12 5.038,-2.436 7.228,-3.938c2.187,-1.502 4.032,-3.192 5.534,-5.065l6.006,5.063Z" style="fill:#fff;fill-rule:nonzero;"/></g><g><path d="M783.288,164.502l7.11,-7.795c8.342,8.067 17.503,13.127 27.211,13.127c13.675,0 23.11,-9.024 23.11,-21.194l0,-0.273c0,-11.896 -9.846,-20.102 -23.793,-20.102c-8.068,0 -14.495,2.462 -20.102,5.47l-7.247,-4.786l2.735,-46.628l55.106,0l0,9.981l-45.672,0l-2.051,30.63c5.606,-2.461 10.939,-4.238 18.87,-4.238c18.597,0 33.091,11.075 33.091,29.263l0,0.273c0,18.733 -14.221,31.45 -34.185,31.45c-13.671,0 -25.569,-6.564 -34.183,-15.178Z" style="fill:#f15f3f;fill-rule:nonzero;"/><path d="M868.203,130.453l0,-0.273c0,-26.802 15.999,-49.501 40.613,-49.501c24.613,0 40.201,22.426 40.201,49.228l0,0.273c0,26.802 -15.861,49.5 -40.475,49.5c-24.75,0 -40.339,-22.426 -40.339,-49.227Zm69.603,0l0,-0.273c0,-20.922 -11.487,-39.656 -29.263,-39.656c-17.914,0 -29.127,18.323 -29.127,39.382l0,0.273c0,20.921 11.486,39.654 29.4,39.654c17.913,0.001 28.99,-18.458 28.99,-39.38Z" style="fill:#f15f3f;fill-rule:nonzero;"/></g></g></g></svg>