<svg xmlns="http://www.w3.org/2000/svg" viewBox="0 0 49.83 49.83"><defs><style>.cls-1{fill:#fdb528;}.cls-2{fill:#fff;}</style></defs><title>i-8</title><g id="Layer_1" data-name="Layer 1"><path class="cls-1" d="M49.83,3.51V46.32a3.51,3.51,0,0,1-3.52,3.51H3.51A3.51,3.51,0,0,1,0,46.32V3.51A3.51,3.51,0,0,1,3.51,0h42.8A3.51,3.51,0,0,1,49.83,3.51Z"/><path class="cls-2" d="M26.13,25.27A1.32,1.32,0,1,1,24.81,24,1.32,1.32,0,0,1,26.13,25.27Z"/><path class="cls-2" d="M24.81,9.84a15.5,15.5,0,1,0,15.5,15.51A15.52,15.52,0,0,0,24.81,9.84ZM11.56,25.89h-.62a.63.63,0,1,1,0-1.26h.62a.63.63,0,1,1,0,1.26Zm12.62-14.5a.63.63,0,1,1,1.26,0V12a.63.63,0,0,1-1.26,0ZM15.89,35.07l-.45.45a.63.63,0,0,1-.44.19.67.67,0,0,1-.45-.19.64.64,0,0,1,0-.89l.45-.45a.64.64,0,0,1,.89,0A.62.62,0,0,1,15.89,35.07Zm0-18.72a.64.64,0,0,1-.89,0l-.45-.45a.65.65,0,0,1,0-.9.64.64,0,0,1,.89,0l.45.46A.62.62,0,0,1,15.89,16.35Zm9.55,22.79a.63.63,0,1,1-1.26,0V38.5a.63.63,0,0,1,1.26,0Zm-.63-11.35a2.53,2.53,0,0,1-2.45-1.9H17.88a.63.63,0,1,1,0-1.26h4.49a2.55,2.55,0,0,1,1.81-1.81V16.44a.63.63,0,1,1,1.26,0v6.39a2.52,2.52,0,0,1-.63,5Zm10.25,7.73a.61.61,0,0,1-.44.19.63.63,0,0,1-.44-.19l-.45-.45a.63.63,0,0,1,.89-.89l.44.45A.62.62,0,0,1,35.06,35.52Zm0-19.62-.44.45a.69.69,0,0,1-.44.18.67.67,0,0,1-.45-.18.64.64,0,0,1,0-.89l.45-.46a.63.63,0,1,1,.88.9Zm3.63,10h-.64a.63.63,0,0,1,0-1.26h.64a.63.63,0,1,1,0,1.26Z"/><path class="cls-2" d="M24.81,6.6A18.75,18.75,0,1,0,43.56,25.35,18.77,18.77,0,0,0,24.81,6.6Zm0,35.15a16.41,16.41,0,1,1,16.39-16.4A16.42,16.42,0,0,1,24.82,41.75Z"/></g></svg>