<svg xmlns="http://www.w3.org/2000/svg" viewBox="0 0 49.83 49.83"><defs><style>.cls-1{fill:#f15f3f;}.cls-2{fill:#fff;}</style></defs><title>i-6</title><g id="Layer_1" data-name="Layer 1"><path class="cls-1" d="M49.83,3.51V46.32a3.51,3.51,0,0,1-3.52,3.51H3.51A3.51,3.51,0,0,1,0,46.32V3.51A3.51,3.51,0,0,1,3.51,0h42.8A3.51,3.51,0,0,1,49.83,3.51Z"/><path class="cls-2" d="M40,11.68v-2a3.75,3.75,0,0,0-3.71-3.8h0a3.75,3.75,0,0,0-3.7,3.8v2Z"/><path class="cls-2" d="M19.76,25.12a7.48,7.48,0,0,0,7.37,7.58,7.39,7.39,0,0,0,2.46-.43V43.9H23.71a1.14,1.14,0,0,1-1.21-1.23l.07-2.89a13.49,13.49,0,0,1-3.32-1.38L17.2,40.51a1.18,1.18,0,0,1-1.78,0l-3.74-3.83a1.32,1.32,0,0,1,0-1.84l2.08-2.14a14.73,14.73,0,0,1-1.33-3.4l-2.83.07a1.2,1.2,0,0,1-1.2-1.23l.12-5.57a1.33,1.33,0,0,1,1.25-1.29l2.83-.06a15.39,15.39,0,0,1,1.49-3.46l-2-2a1.26,1.26,0,0,1,0-1.82l3.95-4.06a1.23,1.23,0,0,1,1.78,0l2,2a15.2,15.2,0,0,1,3.38-1.52l.06-2.89a1.32,1.32,0,0,1,1.25-1.29h5V18a7.19,7.19,0,0,0-2.46-.43A7.48,7.48,0,0,0,19.76,25.12Z"/><path class="cls-2" d="M32.6,37.78l3.63,6.53s0,0,.07,0,.05,0,.07,0L40,37.72Z"/><rect class="cls-2" x="32.62" y="12.85" width="7.41" height="23.77"/></g></svg>