<svg xmlns="http://www.w3.org/2000/svg" viewBox="0 0 49.83 49.83"><defs><style>.cls-1{fill:transparent}.cls-2{fill:#fff;}</style></defs><title>i-4</title><g id="Layer_1" data-name="Layer 1"><path class="cls-1" d="M49.83,3.51V46.32a3.51,3.51,0,0,1-3.52,3.51H3.51A3.51,3.51,0,0,1,0,46.32V3.51A3.51,3.51,0,0,1,3.51,0h42.8A3.51,3.51,0,0,1,49.83,3.51Z"/><path class="cls-2" d="M24.68,17.77a7,7,0,1,0,7,7A7,7,0,0,0,24.68,17.77Zm2.74,10.74h-5V27.33a1.28,1.28,0,0,0,1-1.39v-.6h-.89V24.21h.89v-1A2.21,2.21,0,0,1,24,21.58a2.32,2.32,0,0,1,1.71-.64,2.86,2.86,0,0,1,1.21.26v1.34a1.87,1.87,0,0,0-1.08-.34c-.64,0-1,.39-1,1.19v.82h1.4v1.13H24.9v.44a1.68,1.68,0,0,1-.78,1.48h3.3Z"/><path class="cls-1" d="M12.15,15.35H6.59v5.56A8.14,8.14,0,0,0,12.15,15.35Z"/><path class="cls-2" d="M6.09,21.58V14.85h6.73l-.19.64a8.66,8.66,0,0,1-5.9,5.9Zm1-5.73v4.37a7.73,7.73,0,0,0,4.37-4.37Z"/><path class="cls-1" d="M6.59,28.63v5.56h5.56A8.14,8.14,0,0,0,6.59,28.63Z"/><path class="cls-2" d="M12.82,34.69H6.09V28l.64.18a8.66,8.66,0,0,1,5.9,5.9Zm-5.73-1h4.37a7.71,7.71,0,0,0-4.37-4.36Z"/><path class="cls-1" d="M37.21,34.19h5.56V28.63a8.1,8.1,0,0,0-5.56,5.56Z"/><path class="cls-2" d="M43.27,34.69H36.54l.19-.64a8.63,8.63,0,0,1,5.9-5.9l.64-.18Zm-5.37-1h4.37V29.32a7.66,7.66,0,0,0-4.37,4.37Z"/><path class="cls-1" d="M42.77,20.91V15.35H37.21A8.14,8.14,0,0,0,42.77,20.91Z"/><path class="cls-2" d="M43.27,21.58l-.64-.19a8.66,8.66,0,0,1-5.9-5.9l-.19-.64h6.73ZM37.9,15.85a7.76,7.76,0,0,0,4.37,4.37V15.85Z"/><path class="cls-2" d="M42.8,13.09H6.61a1.14,1.14,0,0,0-1.13,1.13v21a1.4,1.4,0,0,0,1.4,1.4H42.8a1.14,1.14,0,0,0,1.13-1.13V14.22A1.14,1.14,0,0,0,42.8,13.09Zm-1.15,7.82V34.19H7.71V15.35H41.65Z"/></g></svg>
