<?xml version="1.0" encoding="UTF-8"?>
<svg width="50px" height="50px" viewBox="0 0 50 50" version="1.1" xmlns="http://www.w3.org/2000/svg" xmlns:xlink="http://www.w3.org/1999/xlink">
    <g id="banknote" fill-rule="nonzero">
        <path d="M49.83,3.51 L49.83,46.32 C49.8300038,47.2526451 49.4588289,48.1469461 48.7984118,48.805487 C48.1379947,49.4640279 47.2426413,49.8326571 46.31,49.83 L3.51,49.83 C1.57148053,49.83 7.12440481e-15,48.2585195 0,46.32 L0,3.51 C-2.37400167e-16,1.57148053 1.57148053,-9.31543118e-16 3.51,-1.28764085e-15 L46.31,-1.28764085e-15 C47.2426413,-0.00265710851 48.1379947,0.36597206 48.7984118,1.02451296 C49.4588289,1.68305387 49.8300038,2.57735492 49.83,3.51 Z" id="Path" fill="transparent"></path>
        <path d="M24.68,17.77 C26.5365154,17.77 28.3169928,18.5074979 29.6297475,19.8202525 C30.9425021,21.1330072 31.68,22.9134846 31.68,24.77 C31.68,28.6359932 28.5459932,31.77 24.68,31.77 C20.8140068,31.77 17.68,28.6359932 17.68,24.77 C17.68,20.9040068 20.8140068,17.77 24.68,17.77 Z" id="Shape" fill="#FFFFFF"></path>
        <path d="M12.15,15.35 L6.59,15.35 L6.59,20.91 C9.27493127,20.1340528 11.3740528,18.0349313 12.15,15.35 L12.15,15.35 Z" id="Path" fill="transparent"></path>
        <path d="M6.09,21.58 L6.09,14.85 L12.82,14.85 L12.63,15.49 C11.8028722,18.3369132 9.57691316,20.5628722 6.73,21.39 L6.09,21.58 Z M7.09,15.85 L7.09,20.22 C9.09093128,19.434331 10.674331,17.8509313 11.46,15.85 L7.09,15.85 Z" id="Shape" fill="#FFFFFF"></path>
        <path d="M6.59,28.63 L6.59,34.19 L12.15,34.19 C11.3740528,31.5050687 9.27493127,29.4059472 6.59,28.63 L6.59,28.63 Z" id="Path" fill="transparent"></path>
        <path d="M12.82,34.69 L6.09,34.69 L6.09,28 L6.73,28.18 C9.57691316,29.0071278 11.8028722,31.2330868 12.63,34.08 L12.82,34.69 Z M7.09,33.69 L11.46,33.69 C10.6740984,31.6914972 9.09029806,30.111321 7.09,29.33 L7.09,33.69 Z" id="Shape" fill="#FFFFFF"></path>
        <path d="M37.21,34.19 L42.77,34.19 L42.77,28.63 C40.0810714,29.3991665 37.9791665,31.5010714 37.21,34.19 Z" id="Path" fill="transparent"></path>
        <path d="M43.27,34.69 L36.54,34.69 L36.73,34.05 C37.5520872,31.200109 39.780109,28.9720872 42.63,28.15 L43.27,27.97 L43.27,34.69 Z M37.9,33.69 L42.27,33.69 L42.27,29.32 C40.2642745,30.0983319 38.6783319,31.6842745 37.9,33.69 L37.9,33.69 Z" id="Shape" fill="#FFFFFF"></path>
        <path d="M42.77,20.91 L42.77,15.35 L37.21,15.35 C37.9859472,18.0349313 40.0850687,20.1340528 42.77,20.91 L42.77,20.91 Z" id="Path" fill="transparent"></path>
        <path d="M43.27,21.58 L42.63,21.39 C39.7830868,20.5628722 37.5571278,18.3369132 36.73,15.49 L36.54,14.85 L43.27,14.85 L43.27,21.58 Z M37.9,15.85 C38.6887635,17.848903 40.271097,19.4312365 42.27,20.22 L42.27,15.85 L37.9,15.85 Z" id="Shape" fill="#FFFFFF"></path>
        <path d="M42.8,13.09 L6.61,13.09 C5.98818174,13.095431 5.48543104,13.5981817 5.48,14.22 L5.48,35.22 C5.48,35.9931986 6.10680135,36.62 6.88,36.62 L42.8,36.62 C43.4218183,36.614569 43.924569,36.1118183 43.93,35.49 L43.93,14.22 C43.924569,13.5981817 43.4218183,13.095431 42.8,13.09 Z M41.65,20.91 L41.65,34.19 L7.71,34.19 L7.71,15.35 L41.65,15.35 L41.65,20.91 Z" id="Shape" fill="#FFFFFF"></path>
    </g>
</svg>
