<svg id="svg" version="1.1" xmlns="http://www.w3.org/2000/svg" xmlns:xlink="http://www.w3.org/1999/xlink" width="400" height="399.5991983967936" viewBox="0, 0, 400,399.5991983967936"><g id="svgg"><path id="path0" d="M0.047 12.687 C 0.076 20.476,0.217 24.644,0.413 23.482 C 2.219 12.756,10.652 3.587,21.271 0.805 L 24.176 0.044 12.088 0.022 L 0.000 0.000 0.047 12.687 M378.219 0.645 C 389.601 3.397,398.343 13.496,399.592 25.336 C 399.779 27.110,399.912 22.896,399.946 14.086 L 400.000 0.000 387.912 0.033 C 376.484 0.065,375.955 0.098,378.219 0.645 M202.574 53.905 C 200.405 54.607,199.589 55.494,189.964 67.626 C 184.513 74.498,176.979 83.986,173.221 88.711 C 149.822 118.141,139.088 131.678,118.090 158.242 C 105.147 174.615,89.450 194.450,83.208 202.320 C 76.965 210.189,71.605 217.112,71.296 217.704 C 69.905 220.371,70.936 224.577,73.451 226.496 L 74.862 227.572 101.867 227.772 L 128.871 227.972 129.071 285.914 C 129.219 328.942,129.390 344.062,129.736 344.655 C 130.463 345.904,132.356 347.559,133.592 348.027 C 134.371 348.321,155.504 348.452,202.240 348.452 C 278.789 348.452,271.642 348.778,274.026 345.176 L 275.125 343.515 275.231 285.644 L 275.338 227.772 299.153 227.772 C 326.592 227.772,325.107 227.972,327.074 224.023 C 329.135 219.887,329.133 219.882,315.825 201.598 C 309.907 193.467,300.765 180.879,295.511 173.626 C 288.066 163.350,228.986 82.080,212.576 59.543 C 208.726 54.255,206.088 52.768,202.574 53.905 M221.179 156.897 C 226.571 157.925,230.737 159.666,230.376 160.740 C 230.284 161.014,229.473 164.650,228.573 168.819 C 226.427 178.767,226.767 178.433,220.419 176.823 C 207.607 173.573,201.864 177.693,202.312 189.810 C 202.591 197.367,201.519 196.603,211.849 196.603 L 220.616 196.603 221.597 197.584 C 222.559 198.547,222.577 198.689,222.577 205.195 C 222.577 214.314,223.174 213.786,212.863 213.786 L 205.110 213.786 204.848 216.883 C 204.439 221.716,203.205 225.060,200.352 229.072 C 199.609 230.116,199.001 231.060,199.001 231.170 C 199.001 231.279,206.584 231.369,215.853 231.369 C 230.973 231.369,232.779 231.437,233.435 232.030 C 234.680 233.156,234.539 249.843,233.278 250.727 C 232.492 251.277,228.763 251.349,200.999 251.349 C 173.235 251.349,169.506 251.277,168.720 250.727 C 167.871 250.132,167.832 249.847,167.832 244.249 L 167.832 238.393 170.111 236.380 C 180.119 227.533,183.426 222.837,183.411 217.493 C 183.400 213.597,183.725 213.786,177.065 213.786 C 168.882 213.786,169.431 214.403,169.431 205.195 C 169.431 196.143,169.094 196.603,175.706 196.603 L 180.204 196.603 179.912 194.705 C 175.925 168.789,194.462 151.806,221.179 156.897 M399.594 373.526 C 399.560 384.581,389.980 395.868,378.169 398.770 L 375.025 399.543 387.512 399.571 L 400.000 399.600 400.000 385.614 C 400.000 377.922,399.910 371.628,399.800 371.628 C 399.690 371.628,399.598 372.483,399.594 373.526 M0.040 387.113 L 0.000 399.600 12.488 399.569 C 23.832 399.540,24.756 399.488,22.577 399.008 C 11.391 396.541,3.068 388.213,0.608 377.023 C 0.129 374.845,0.077 375.770,0.040 387.113 " stroke="none" fill="#fbfbfb" fill-rule="evenodd"></path><path id="path1" d="M24.376 0.423 C 13.977 1.979,5.291 9.249,1.725 19.381 L 0.599 22.577 0.490 198.601 C 0.367 394.702,0.115 377.203,3.156 383.475 C 6.845 391.083,13.238 396.320,21.382 398.402 C 26.217 399.639,373.683 399.665,378.515 398.429 C 388.172 395.959,395.597 388.658,398.658 378.621 C 399.535 375.747,400.056 29.833,399.192 24.185 C 397.465 12.895,389.685 4.256,378.222 0.901 C 375.611 0.137,29.412 -0.330,24.376 0.423 M207.207 53.677 C 209.382 54.518,209.952 55.197,219.187 67.932 C 258.462 122.095,273.461 142.749,283.319 156.244 C 295.082 172.345,309.043 191.487,312.653 196.460 C 314.430 198.909,318.461 204.451,321.610 208.775 C 328.848 218.713,329.390 220.006,327.857 223.675 C 325.916 228.319,326.860 228.172,299.117 228.172 L 275.325 228.172 275.324 285.814 C 275.323 350.445,275.589 344.868,272.391 347.424 L 270.855 348.651 202.460 348.747 L 134.066 348.842 132.469 347.935 C 131.496 347.383,130.481 346.331,129.871 345.243 L 128.871 343.457 128.766 285.814 L 128.661 228.172 102.318 228.172 C 74.485 228.172,74.635 228.182,72.592 226.248 C 67.818 221.732,68.415 220.208,81.302 203.996 C 117.734 158.167,148.294 119.613,178.022 81.973 C 202.415 51.089,201.873 51.614,207.207 53.677 M208.591 156.670 C 188.301 158.116,177.385 173.032,180.463 195.105 L 180.728 197.003 176.167 197.003 C 169.517 197.003,169.830 196.600,169.830 205.169 C 169.830 213.786,169.223 213.125,177.382 213.387 L 183.616 213.586 183.734 216.971 C 183.924 222.434,180.159 228.578,173.197 234.166 C 171.691 235.375,169.958 236.844,169.345 237.432 L 168.232 238.500 168.232 244.063 C 168.232 248.945,168.321 249.707,168.963 250.288 C 170.192 251.400,232.756 251.292,233.353 250.176 C 234.201 248.590,233.883 232.658,232.993 232.182 C 232.495 231.915,226.172 231.768,215.211 231.768 C 205.856 231.768,198.202 231.690,198.202 231.594 C 198.202 231.498,199.161 229.987,200.333 228.236 C 202.762 224.607,203.684 222.035,204.337 217.069 L 204.795 213.586 212.787 213.387 C 217.183 213.277,221.004 213.041,221.279 212.864 C 221.648 212.625,221.778 210.672,221.778 205.394 C 221.778 196.222,222.750 197.003,211.342 197.003 C 201.284 197.003,202.324 197.594,201.796 191.579 C 200.590 177.854,206.840 172.968,221.098 176.489 C 226.538 177.832,226.076 178.352,228.205 168.480 C 230.160 159.417,230.299 160.144,226.336 158.662 C 221.765 156.951,215.116 156.205,208.591 156.670 " stroke="none" fill="#34b4cc" fill-rule="evenodd"></path><path id="path2" d="M0.198 199.800 C 0.198 294.635,0.244 333.432,0.300 286.014 C 0.356 238.596,0.356 161.004,0.300 113.586 C 0.244 66.169,0.198 104.965,0.198 199.800 M209.096 156.531 C 209.704 156.622,210.603 156.620,211.094 156.525 C 211.586 156.430,211.089 156.355,209.990 156.358 C 208.891 156.361,208.489 156.439,209.096 156.531 M213.892 156.531 C 214.499 156.622,215.398 156.620,215.890 156.525 C 216.381 156.430,215.884 156.355,214.785 156.358 C 213.686 156.361,213.284 156.439,213.892 156.531 M201.491 187.812 C 201.491 188.581,201.574 188.896,201.674 188.511 C 201.775 188.127,201.775 187.498,201.674 187.113 C 201.574 186.728,201.491 187.043,201.491 187.812 M169.594 205.195 C 169.594 208.931,169.654 210.513,169.728 208.711 C 169.801 206.909,169.802 203.852,169.728 201.918 C 169.655 199.984,169.595 201.459,169.594 205.195 M221.942 205.195 C 221.941 208.931,222.001 210.513,222.075 208.711 C 222.149 206.909,222.149 203.852,222.076 201.918 C 222.003 199.984,221.942 201.459,221.942 205.195 M176.224 231.169 C 175.253 232.158,174.549 232.967,174.659 232.967 C 174.769 232.967,175.653 232.158,176.623 231.169 C 177.594 230.180,178.298 229.371,178.188 229.371 C 178.078 229.371,177.194 230.180,176.224 231.169 M233.935 241.359 C 233.935 245.864,233.993 247.707,234.064 245.455 C 234.136 243.202,234.136 239.515,234.064 237.263 C 233.993 235.010,233.935 236.853,233.935 241.359 M167.985 244.356 C 167.986 246.993,168.050 248.020,168.128 246.638 C 168.207 245.255,168.206 243.098,168.127 241.842 C 168.048 240.587,167.984 241.718,167.985 244.356 M113.187 399.500 C 160.824 399.556,238.776 399.556,286.414 399.500 C 334.051 399.445,295.075 399.399,199.800 399.399 C 104.525 399.399,65.549 399.445,113.187 399.500 " stroke="none" fill="#64c4d4" fill-rule="evenodd"></path><path id="path3" d="M203.896 53.422 C 204.281 53.523,204.910 53.523,205.295 53.422 C 205.679 53.322,205.365 53.240,204.595 53.240 C 203.826 53.240,203.511 53.322,203.896 53.422 M187.587 165.534 L 186.414 166.833 187.712 165.660 C 188.923 164.565,189.195 164.236,188.886 164.236 C 188.817 164.236,188.233 164.820,187.587 165.534 M179.513 185.015 C 179.513 185.784,179.596 186.099,179.696 185.714 C 179.797 185.330,179.797 184.700,179.696 184.316 C 179.596 183.931,179.513 184.246,179.513 185.015 M179.513 188.212 C 179.513 188.981,179.596 189.296,179.696 188.911 C 179.797 188.526,179.797 187.897,179.696 187.512 C 179.596 187.128,179.513 187.443,179.513 188.212 M174.344 213.684 C 176.057 213.759,178.755 213.759,180.338 213.683 C 181.921 213.607,180.519 213.546,177.223 213.546 C 173.926 213.547,172.631 213.609,174.344 213.684 M204.745 213.973 C 204.621 214.295,204.613 214.790,204.726 215.072 C 204.839 215.354,204.946 215.184,204.963 214.694 C 204.995 213.809,205.045 213.803,212.687 213.686 L 220.380 213.568 212.675 213.477 C 206.213 213.401,204.934 213.481,204.745 213.973 M183.544 217.383 C 183.544 218.811,183.617 219.396,183.706 218.681 C 183.794 217.967,183.794 216.798,183.706 216.084 C 183.617 215.370,183.544 215.954,183.544 217.383 M328.173 220.779 C 328.177 221.658,328.259 221.971,328.355 221.474 C 328.450 220.977,328.447 220.258,328.346 219.875 C 328.246 219.493,328.168 219.900,328.173 220.779 M128.866 285.115 C 128.866 316.543,128.913 329.460,128.971 313.817 C 129.029 298.175,129.029 272.461,128.971 256.675 C 128.913 240.888,128.866 253.686,128.866 285.115 M198.546 231.473 C 198.713 231.640,206.392 231.730,215.609 231.673 L 232.368 231.568 215.304 231.368 C 205.920 231.259,198.378 231.306,198.546 231.473 M185.315 251.249 C 193.941 251.309,208.057 251.309,216.683 251.249 C 225.310 251.188,218.252 251.139,200.999 251.139 C 183.746 251.139,176.688 251.188,185.315 251.249 " stroke="none" fill="#7ac4d6" fill-rule="evenodd"></path><path id="path4" d="M399.798 199.800 C 399.798 294.416,399.844 333.122,399.900 285.814 C 399.956 238.506,399.956 161.094,399.900 113.786 C 399.844 66.479,399.798 105.185,399.798 199.800 M212.495 175.714 C 213.213 175.803,214.292 175.801,214.892 175.710 C 215.493 175.619,214.905 175.546,213.586 175.548 C 212.268 175.551,211.776 175.625,212.495 175.714 M224.575 177.423 L 223.177 177.717 224.452 177.770 C 225.153 177.799,225.838 177.642,225.974 177.423 C 226.110 177.203,226.165 177.047,226.098 177.076 C 226.030 177.105,225.345 177.261,224.575 177.423 M204.770 178.721 L 203.596 180.020 204.895 178.846 C 205.609 178.201,206.194 177.616,206.194 177.548 C 206.194 177.239,205.864 177.511,204.770 178.721 M201.938 188.212 C 201.938 190.080,202.007 190.844,202.091 189.910 C 202.175 188.976,202.175 187.448,202.091 186.513 C 202.007 185.579,201.938 186.344,201.938 188.212 M179.513 190.609 C 179.513 191.379,179.596 191.693,179.696 191.309 C 179.797 190.924,179.797 190.295,179.696 189.910 C 179.596 189.525,179.513 189.840,179.513 190.609 M202.700 196.204 C 202.839 196.713,204.205 196.805,211.821 196.815 L 220.779 196.828 212.007 196.707 C 205.637 196.620,203.139 196.453,202.885 196.096 C 202.632 195.739,202.581 195.768,202.700 196.204 M173.342 196.900 C 174.725 196.978,176.882 196.977,178.138 196.898 C 179.393 196.819,178.262 196.755,175.624 196.756 C 172.987 196.757,171.960 196.821,173.342 196.900 M222.341 205.195 C 222.341 208.931,222.401 210.513,222.475 208.711 C 222.549 206.909,222.549 203.852,222.476 201.918 C 222.402 199.984,222.342 201.459,222.341 205.195 M204.688 216.583 C 204.688 217.353,204.770 217.667,204.871 217.283 C 204.971 216.898,204.971 216.269,204.871 215.884 C 204.770 215.500,204.688 215.814,204.688 216.583 M327.203 217.764 C 327.571 218.633,327.928 219.184,327.996 218.990 C 328.122 218.630,326.986 216.184,326.693 216.184 C 326.605 216.184,326.834 216.895,327.203 217.764 M70.430 220.779 C 70.435 221.658,70.517 221.971,70.612 221.474 C 70.708 220.977,70.704 220.258,70.604 219.875 C 70.504 219.493,70.426 219.900,70.430 220.779 M326.767 224.678 L 326.062 225.974 326.867 225.031 C 327.552 224.228,327.918 223.370,327.572 223.379 C 327.517 223.381,327.155 223.965,326.767 224.678 M89.011 228.072 C 96.319 228.133,108.277 228.133,115.584 228.072 C 122.892 228.011,116.913 227.961,102.298 227.961 C 87.682 227.961,81.703 228.011,89.011 228.072 M287.013 228.072 C 293.551 228.133,304.251 228.133,310.789 228.072 C 317.328 228.010,311.978 227.960,298.901 227.960 C 285.824 227.960,280.475 228.010,287.013 228.072 M175.813 231.269 L 173.227 233.966 175.924 231.380 C 177.408 229.958,178.621 228.744,178.621 228.683 C 178.621 228.389,178.214 228.763,175.813 231.269 M168.100 348.751 C 186.599 348.809,216.989 348.809,235.633 348.751 C 254.277 348.694,239.141 348.647,201.998 348.647 C 164.855 348.647,149.601 348.694,168.100 348.751 M0.093 373.626 C 0.093 374.396,0.175 374.710,0.275 374.326 C 0.376 373.941,0.376 373.312,0.275 372.927 C 0.175 372.542,0.093 372.857,0.093 373.626 " stroke="none" fill="#aed9e7" fill-rule="evenodd"></path></g></svg>