<svg xmlns="http://www.w3.org/2000/svg" viewBox="0 0 49.83 49.83"><defs><style>.cls-1{fill:transparent;}.cls-2{fill:#fff;}</style></defs><title>i-7</title><g id="Layer_1" data-name="Layer 1"><path class="cls-1" d="M49.83,3.51V46.32a3.51,3.51,0,0,1-3.52,3.51H3.51A3.51,3.51,0,0,1,0,46.32V3.51A3.51,3.51,0,0,1,3.51,0h42.8A3.51,3.51,0,0,1,49.83,3.51Z"/><path class="cls-2" d="M40.36,9.23h-31a2,2,0,0,0-2,2V31H42.34V11.2A2,2,0,0,0,40.36,9.23Zm-15.5,18.1A7.09,7.09,0,1,1,32,20.24,7.1,7.1,0,0,1,24.86,27.33Zm0-13.12a6,6,0,1,0,6,6A6,6,0,0,0,24.86,14.21Zm3.27,6.57-4.94,2.75c-.16.15-.53.15-.53,0v-6c0-.15.37-.15.52,0l4.95,2.73A.4.4,0,0,1,28.13,20.78Z"/><path class="cls-2" d="M30,31.74H7.4v2.07c0,.76.88,1.39,2,1.39H19.7v3.87a.48.48,0,0,0,.06.24H18.44a2.68,2.68,0,0,0-1.57.39,1.51,1.51,0,0,0-.52,1.45c0,.11,0,.22,0,.29a.32.32,0,0,0,.15.29.65.65,0,0,0,.4.12H32.82a.69.69,0,0,0,.41-.12.34.34,0,0,0,.15-.29,1.3,1.3,0,0,1,0-.28,1.49,1.49,0,0,0-.55-1.46,2.57,2.57,0,0,0-1.54-.39H30a.6.6,0,0,0,.05-.24V35.2H40.36c1.09,0,2-.63,2-1.39V31.74Z"/></g></svg>
