<?xml version="1.0" encoding="UTF-8"?>
<svg width="449px" height="909px" viewBox="0 0 449 909" version="1.1" xmlns="http://www.w3.org/2000/svg" xmlns:xlink="http://www.w3.org/1999/xlink">
    <!-- Generator: Sketch 53.2 (72643) - https://sketchapp.com -->
    <title>IPhone_8_vector</title>
    <desc>Created with Sketch.</desc>
    <defs>
        <path d="M2.18197799,3.32768924 C0.973478179,3.32768924 0,4.29867335 0,5.5071751 L0,67.9608063 C0,69.169308 0.973478179,70.1427878 2.18197799,70.1427878 L18.9854592,70.1427878 C20.1939585,70.1427878 21.1674369,69.169308 21.1674369,67.9608063 L21.1674369,5.5071751 C21.1674369,4.29867335 20.1939585,3.32768924 18.9854592,3.32768924 L2.18197799,3.32768924 Z" id="path-1"></path>
        <linearGradient x1="49.5496093%" y1="7.68653509e-06%" x2="49.8355438%" y2="100.000008%" id="linearGradient-3">
            <stop stop-color="#FBDDCB" stop-opacity="0.27450982" offset="0%"></stop>
            <stop stop-color="#FBDDCB" offset="5%"></stop>
            <stop stop-color="#FBDDCB" offset="94.999999%"></stop>
            <stop stop-color="#FBDDCB" stop-opacity="0.27450982" offset="100%"></stop>
        </linearGradient>
        <path d="M2.18197799,3.32768924 C0.973478179,3.32768924 0,4.29867335 0,5.5071751 L0,67.9608063 C0,69.169308 0.973478179,70.1427878 2.18197799,70.1427878 L18.9854592,70.1427878 C20.1939585,70.1427878 21.1674369,69.169308 21.1674369,67.9608063 L21.1674369,5.5071751 C21.1674369,4.29867335 20.1939585,3.32768924 18.9854592,3.32768924 L2.18197799,3.32768924 Z" id="path-4"></path>
        <linearGradient x1="100.000004%" y1="7.68653509e-06%" x2="100.000004%" y2="100.000008%" id="linearGradient-6">
            <stop stop-color="#FBDDCB" stop-opacity="0.27450982" offset="0%"></stop>
            <stop stop-color="#FBDDCB" offset="5%"></stop>
            <stop stop-color="#FBDDCB" offset="94.999999%"></stop>
            <stop stop-color="#FBDDCB" stop-opacity="0.27450982" offset="100%"></stop>
        </linearGradient>
        <path d="M2.18197799,3.32768924 C0.973478179,3.32768924 0,4.29867335 0,5.5071751 L0,67.9608063 C0,69.169308 0.973478179,70.1427878 2.18197799,70.1427878 L18.9854592,70.1427878 C20.1939585,70.1427878 21.1674369,69.169308 21.1674369,67.9608063 L21.1674369,5.5071751 C21.1674369,4.29867335 20.1939585,3.32768924 18.9854592,3.32768924 L2.18197799,3.32768924 Z" id="path-7"></path>
        <linearGradient x1="99.999982%" y1="7.68653509e-06%" x2="99.999982%" y2="100.000008%" id="linearGradient-9">
            <stop stop-color="#FBDDCB" stop-opacity="0.27450982" offset="0%"></stop>
            <stop stop-color="#FBDDCB" offset="5%"></stop>
            <stop stop-color="#FBDDCB" offset="94.999999%"></stop>
            <stop stop-color="#FBDDCB" stop-opacity="0.27450982" offset="100%"></stop>
        </linearGradient>
        <circle id="path-10" cx="34.6597" cy="34.17999" r="34.127758"></circle>
        <linearGradient x1="14.2823481%" y1="15.0448781%" x2="87.28114%" y2="83.3533732%" id="linearGradient-12">
            <stop stop-color="#1C1518" offset="0%"></stop>
            <stop stop-color="#191715" offset="100%"></stop>
        </linearGradient>
    </defs>
    <g id="Page-1" stroke="none" stroke-width="1" fill="none" fill-rule="evenodd">
        <g id="IPhone_8_vector" transform="translate(-66.000000, 0.000000)">
            <g id="buttos" transform="translate(0.000000, 113.051029)">
                <g id="Group" transform="translate(0.242819, 0.021585)" fill="#AA7F6D" fill-rule="nonzero">
                    <rect id="Rectangle" x="65.7571821" y="4.02726502" width="20.5761895" height="34.8695732"></rect>
                </g>
                <g id="Group" transform="translate(66.000001, 77.936591)">
                    <path d="M2.18197799,3.32768924 C0.973478179,3.32768924 0,4.29866852 0,5.5071751 L0,67.9608014 C0,69.169308 0.973478179,70.142783 2.18197799,70.142783 L18.9854587,70.142783 C20.193958,70.142783 21.1674369,69.169308 21.1674369,67.9608014 L21.1674369,5.5071751 C21.1674369,4.29866852 20.193958,3.32768924 18.9854587,3.32768924 L2.18197799,3.32768924 Z" id="Path" fill="#AA7F6D" fill-rule="nonzero"></path>
                    <g id="Clipped">
                        <mask id="mask-2" fill="white">
                            <use xlink:href="#path-1"></use>
                        </mask>
                        <g id="Path"></g>
                        <path d="M2.64576679,5.27271423 C1.56839598,5.27271423 0.701235138,6.13987507 0.701235138,7.21724588 L0.701235138,66.251698 C0.701235138,67.3290688 1.56839598,68.1962296 2.64576679,68.1962296 L7.26306336,68.1962296 L14.751751,34.7435448 L6.45731234,5.27271423 L2.64576679,5.27271423 Z" id="Path" fill="url(#linearGradient-3)" fill-rule="nonzero" mask="url(#mask-2)"></path>
                    </g>
                </g>
                <g id="Group" transform="translate(66.000001, 161.312696)">
                    <path d="M2.18197799,3.32768924 C0.973478179,3.32768924 0,4.29866852 0,5.5071751 L0,67.9608014 C0,69.169308 0.973478179,70.142783 2.18197799,70.142783 L18.9854587,70.142783 C20.193958,70.142783 21.1674369,69.169308 21.1674369,67.9608014 L21.1674369,5.5071751 C21.1674369,4.29866852 20.193958,3.32768924 18.9854587,3.32768924 L2.18197799,3.32768924 Z" id="Path" fill="#AA7F6D" fill-rule="nonzero"></path>
                    <g id="Clipped">
                        <mask id="mask-5" fill="white">
                            <use xlink:href="#path-4"></use>
                        </mask>
                        <g id="Path"></g>
                        <path d="M2.64576679,5.27271423 C1.56839598,5.27271423 0.701235138,6.13987507 0.701235138,7.21724588 L0.701235138,66.251698 C0.701235138,67.3290688 1.56839598,68.1962296 2.64576679,68.1962296 L11.4695596,68.1962296 L11.4695596,5.27271423 L2.64576679,5.27271423 Z" id="Path" fill="url(#linearGradient-6)" fill-rule="nonzero" mask="url(#mask-5)"></path>
                    </g>
                </g>
                <g id="Group" transform="translate(502.348405, 115.104428) rotate(-180.000000) translate(-502.348405, -115.104428) translate(490.256809, 78.829643)">
                    <path d="M2.18197799,3.32768924 C0.973478179,3.32768924 0,4.29866852 0,5.5071751 L0,67.9608014 C0,69.169308 0.973478179,70.142783 2.18197799,70.142783 L18.9854587,70.142783 C20.193958,70.142783 21.1674369,69.169308 21.1674369,67.9608014 L21.1674369,5.5071751 C21.1674369,4.29866852 20.193958,3.32768924 18.9854587,3.32768924 L2.18197799,3.32768924 Z" id="Path" fill="#AA7F6D" fill-rule="nonzero"></path>
                    <g id="Clipped">
                        <mask id="mask-8" fill="white">
                            <use xlink:href="#path-7"></use>
                        </mask>
                        <g id="Path"></g>
                        <path d="M2.64576679,5.27271423 C1.56839598,5.27271423 0.701235138,6.13987507 0.701235138,7.21724588 L0.701235138,66.251698 C0.701235138,67.3290688 1.56839598,68.1962296 2.64576679,68.1962296 L11.4695862,68.1962296 L11.4695862,5.27271423 L2.64576679,5.27271423 Z" id="Path" fill="url(#linearGradient-9)" fill-rule="nonzero" mask="url(#mask-8)"></path>
                    </g>
                </g>
            </g>
            <g id="Group" transform="translate(69.000000, 0.051029)">
                <g transform="translate(0.882000, 0.209500)">
                    <path d="M70.6298,0.739685 L370.04618,0.739685 C408.706112,0.739685 440.04618,32.0797525 440.04618,70.739685 L440.04618,837.790285 C440.04618,876.450217 408.706112,907.790285 370.04618,907.790285 L70.6298,907.790285 C31.9698675,907.790285 0.6298,876.450217 0.6298,837.790285 L0.6298,70.739685 C0.6298,32.0797525 31.9698675,0.739685 70.6298,0.739685 Z M26.435919,111.11161 L26.435919,797.41837 L414.240089,797.41837 L414.240089,111.11161 L26.435919,111.11161 Z" id="Combined-Shape" stroke="#979797" fill="#D4A089"></path>
                    <path d="M0.63,73.19663 L0.63,86.90952 L440.046,86.90952 L440.046,73.19663 L0.63,73.19663 Z M0.63,821.66343 L0.63,835.33335 L440.046,835.33335 L440.046,821.66343 L0.63,821.66343 Z" id="Shape" fill-opacity="0.06542059" fill="#000000" fill-rule="nonzero"></path>
                    <g transform="translate(10.000000, 10.000000)" fill-rule="nonzero">
                        <path d="M57.8698,0.86505 L362.80623,0.86505 C394.286461,0.86505 419.80623,26.3848193 419.80623,57.86505 L419.80623,830.66492 C419.80623,862.145151 394.286461,887.66492 362.80623,887.66492 L57.8698,887.66492 C26.3895693,887.66492 0.8698,862.145151 0.8698,830.66492 L0.8698,57.86505 C0.8698,26.3848193 26.3895693,0.86505 57.8698,0.86505 Z M16.435919,101.11161 L16.435919,787.41837 L404.240089,787.41837 L404.240089,101.11161 L16.435919,101.11161 Z" id="Combined-Shape" fill="#FAFBFD"></path>
                        <path d="M59.9932,0.86557 C27.2395,0.86557 0.8702,27.23293 0.8702,59.98666 L0.8702,828.54135 C0.8702,861.29508 27.2395,887.6644 59.9932,887.6644 L66.4131,887.6644 C33.6594,887.6644 7.2901,861.29508 7.2901,828.54135 L7.2901,59.98666 C7.2901,27.23293 33.6594,0.86557 66.4131,0.86557 L59.9932,0.86557 Z M354.2628,0.86557 C387.0165,0.86557 413.3858,27.23292 413.3858,59.98666 L413.3858,828.54135 C413.3858,861.29508 387.0165,887.6644 354.2628,887.6644 L360.6827,887.6644 C393.4364,887.6644 419.8057,861.29508 419.8057,828.54135 L419.8057,59.98666 C419.8057,27.23292 393.4364,0.86557 360.6827,0.86557 L354.2628,0.86557 Z" id="Shape" fill="#FEFEFE"></path>
                    </g>
                </g>
                <g transform="translate(27.000000, 111.000000)"></g>
            </g>
            <g id="Group" transform="translate(256.000000, 813.051029)">
                <g transform="translate(0.000001, 0.209498)">
                    <circle id="Oval" fill="#895A45" fill-rule="nonzero" cx="34.22" cy="34.17999" r="34.127758"></circle>
                    <g id="Clipped" transform="translate(91.000000, 0.000000)">
                        <mask id="mask-11" fill="white">
                            <use xlink:href="#path-10"></use>
                        </mask>
                        <g id="Oval"></g>
                        <g id="Group" mask="url(#mask-11)">
                            <g transform="translate(-106.439697, -8.000000)">
                                <g>
                                    <path d="M3.13351,41.59651 C3.13351,41.59651 20.1004,38.61584 29.73026,44.57718 C39.36012,50.53853 45.32146,72.77891 41.88222,83.78447 C38.44299,94.79002 -9.7063,62.91977 3.13351,41.59651 L3.13351,41.59651 Z" id="Path" fill="#F1CAB8" fill-rule="nonzero"></path>
                                    <path d="M50.59495,3.99421 C50.59495,3.99421 48.07285,26.2346 52.88778,32.42522 C57.70271,38.61584 84.52874,23.94177 87.73869,17.0633 C90.94865,10.18483 55.40988,-6.09421 50.59495,3.99421 Z" id="Path" fill="#F1CAB8" fill-rule="nonzero"></path>
                                    <path d="M65.95687,63.8369 C65.95687,63.8369 69.16682,74.61317 78.33812,78.05241 C87.50941,81.49164 101.03707,32.19594 89.11439,31.50809 C77.19171,30.82024 67.33256,47.09929 65.95687,63.8369 L65.95687,63.8369 Z" id="Path" fill="#F1CAB8" fill-rule="nonzero"></path>
                                </g>
                                <g transform="translate(7.000000, 1.000000)">
                                    <path d="M2.32413,44.49431 C2.32413,44.49431 17.68605,38.76225 22.73026,45.18216 C27.77447,51.60207 23.64739,70.40322 16.76892,74.07174 C9.89045,77.74025 -4.55434,51.37278 2.32413,44.49431 Z" id="Path" fill="#FEFEFD" fill-rule="nonzero"></path>
                                    <path d="M44.97065,4.3699 C44.97065,4.3699 43.36567,18.58541 45.42921,19.50254 C47.49275,20.41967 53.91266,8.72627 50.93199,2.99421 C47.95132,-2.73785 44.97065,4.3699 44.97065,4.3699 L44.97065,4.3699 Z" id="Path" fill="#FEFEFD" fill-rule="nonzero"></path>
                                    <path d="M69.50386,37.38656 C69.50386,37.38656 76.61161,32.34235 81.88511,32.57163 C87.1586,32.80091 81.33157,75.06079 72.16028,73.45581 C62.98899,71.85084 60.46688,61.9917 60.46688,61.9917 L69.50386,37.38656 Z" id="Path" fill="#FEFEFD" fill-rule="nonzero"></path>
                                </g>
                            </g>
                        </g>
                    </g>
                    <circle id="Oval" fill="#FAFBFD" fill-rule="nonzero" cx="34.22" cy="34.18005" r="30.375862"></circle>
                </g>
            </g>
            <g id="Group" transform="translate(212.000000, 27.051029)">
                <path d="M16.11471,33.35013 C16.1117952,37.6254499 12.6451459,41.0897365 8.369825,41.0897365 C4.09450407,41.0897365 0.627854824,37.6254499 0.62494,33.35013 C0.623052672,30.5818914 2.09880652,28.0231256 4.49585741,26.6384612 C6.89290829,25.2537968 9.84674171,25.2537968 12.2437926,26.6384612 C14.6408435,28.0231256 16.1165973,30.5818914 16.11471,33.35013 L16.11471,33.35013 Z" id="Path" fill="url(#linearGradient-12)"></path>
                <g transform="translate(3.000000, 28.000000)" fill-rule="nonzero" id="Path">
                    <path d="M10.33387,5.58472 C10.3321026,8.41409202 8.03794758,10.7068143 5.208575,10.7068143 C2.37920242,10.7068143 0.0850474439,8.41409202 0.08328,5.58472 C0.0821356827,3.75286588 1.05876105,2.05967307 2.64500282,1.14341551 C4.23124458,0.227157956 6.18590542,0.227157956 7.77214718,1.14341551 C9.35838895,2.05967307 10.3350143,3.75286588 10.33387,5.58472 Z" fill="#000000"></path>
                    <path d="M9.99777,5.58472 C9.99777,8.22972765 7.85356765,10.37393 5.20856,10.37393 C2.56355235,10.37393 0.41935,8.22972765 0.41935,5.58472 C0.419349898,3.8737 1.33216814,2.29265227 2.81395492,1.43714224 C4.29574169,0.581632207 6.12137831,0.581632207 7.60316508,1.43714224 C9.08495186,2.29265227 9.9977701,3.8737 9.99777,5.58472 L9.99777,5.58472 Z" fill="#001A49"></path>
                    <path d="M8.16837,5.41667 C8.16425239,7.00201157 6.87792191,8.2850054 5.292575,8.2850054 C3.70722809,8.2850054 2.42089761,7.00201157 2.41678,5.41667 C2.41410685,4.38746818 2.96164492,3.43530071 3.85251698,2.91992659 C4.74338905,2.40455246 5.84176095,2.40455246 6.73263302,2.91992659 C7.62350508,3.43530071 8.17104315,4.38746818 8.16837,5.41667 L8.16837,5.41667 Z" stroke="#555555" stroke-width="0.57477969" fill="#232323" opacity="0.75"></path>
                </g>
                <path d="M3.98281913,30.8671559 C4.36614054,32.3042945 6.95856376,33.8009054 9.10811153,33.4718135 C8.07184918,32.1218689 5.01908148,31.336572 3.98281913,30.8671559 L3.98281913,30.8671559 Z" id="Path" fill="#FFFFFF" fill-rule="nonzero" transform="translate(6.545465, 32.192473) rotate(109.498297) translate(-6.545465, -32.192473) "></path>
                <rect id="Rectangle" fill="#232426" fill-rule="nonzero" x="40.24915" y="29.58174" width="75.941704" height="7.1335926"></rect>
                <circle id="Oval" fill="#2C2C2C" fill-rule="nonzero" cx="78.22" cy="4.99387" r="4.8722501"></circle>
            </g>
        </g>
    </g>
</svg>