<?xml version="1.0" encoding="UTF-8"?>
<svg width="141px" height="281px" viewBox="0 0 141 281" version="1.1" xmlns="http://www.w3.org/2000/svg" xmlns:xlink="http://www.w3.org/1999/xlink">
    <defs>
        <path d="M63.162605,10.0829104 L77.4067283,10.0829104 C78.1338162,10.0829104 78.7232373,10.6723316 78.7232373,11.3994194 L78.7232373,11.3994194 C78.7232373,12.1265073 78.1338162,12.7159285 77.4067283,12.7159285 L63.162605,12.7159285 C62.4355171,12.7159285 61.846096,12.1265073 61.846096,11.3994194 L61.846096,11.3994194 C61.846096,10.6723316 62.4355171,10.0829104 63.162605,10.0829104 Z" id="path-1"></path>
    </defs>
    <g id="iPhoneX" transform="translate(-169.000000, -96.000000)">
        <g id="iPhone-X" transform="translate(169.000000, 96.000000)">
            <g id="Device">
                <path d="M139.296573,97.1888903 L139.296573,255.745817 C139.296573,271.25364 131.368397,280.261817 114.780573,280.261817 L25.6805732,280.261817 C8.55274992,280.261817 1.16457325,271.79364 1.16457325,255.745817 L1.16457325,104.042512 L0.786814034,104.042512 C0.438607742,103.862292 0.217915615,103.786876 0.0908998569,103.47513 C0.0688608161,103.421037 0.0328666847,103.197985 0.0328666847,103.153832 C0.0328666847,92.5847623 0.0328666847,86.2623502 0.0328666847,84.1865959 C0.0328666847,84.1452345 0.0584391525,84.0021706 0.0907688786,83.9569521 C0.247728068,83.7374189 0.541680119,83.5828655 0.786814034,83.5225119 L1.16457325,83.5225119 L1.16457325,78.3476856 L0.786814034,78.3476856 C0.438607742,78.1674659 0.217915615,78.0920495 0.0908998569,77.7803033 C0.0688608161,77.7262109 0.0328666847,77.5031584 0.0328666847,77.4590059 C0.0328666847,66.889936 0.0328666847,60.5675239 0.0328666847,58.4917696 C0.0328666847,58.4504083 0.0584391525,58.3073443 0.0907688786,58.2621259 C0.247728068,58.0425927 0.541680119,57.8880393 0.786814034,57.8276856 L1.16457325,57.8276856 L1.16457325,48.7686123 L0.786814034,48.7686123 C0.370420411,48.7686123 0.0328666847,48.4301395 0.0328666847,48.0126123 L0.0328666847,38.7246123 C0.0328666847,38.307085 0.370420411,37.9686123 0.786814034,37.9686123 L1.16457325,37.9686123 L1.16457325,25.0578169 C1.16457325,9.00999359 8.55274992,0.541816911 25.6805732,0.541816911 L114.780573,0.541816911 C131.908397,0.541816911 139.296573,9.00999359 139.296573,25.0578169 L139.296573,64.5728903 L139.674332,64.5728903 C139.919466,64.6332439 140.213418,64.7877973 140.370378,65.0073305 C140.402707,65.052549 140.42828,65.1956129 140.42828,65.2369743 C140.42828,67.3127285 140.42828,85.7311407 140.42828,96.3002106 C140.42828,96.344363 140.392286,96.5674156 140.370247,96.621508 C140.243231,96.9332541 140.022539,97.0086705 139.674332,97.1888903 L139.296573,97.1888903 Z M104.147136,11.1628174 L104.147136,11.2711942 C104.147136,14.2834143 101.85292,18.0989369 96.57406,18.0989369 L43.9952733,18.0989369 C38.716413,18.0989369 36.4221971,14.2834143 36.4221971,11.2711942 L36.4221971,11.1628167 C36.4221971,9.76963439 36.4221967,8.34501882 33.9339033,8.34501882 L23.4397806,8.34501882 C14.669614,8.34501882 9.37549615,13.6484375 9.37549615,22.4340116 L9.37549615,258.262076 C9.37549615,267.04765 14.669614,272.351069 23.4397806,272.351069 L117.021366,272.351069 C125.791532,272.351069 131.08565,267.04765 131.08565,258.262076 L131.08565,22.4340116 C131.08565,13.6484375 125.791532,8.34501882 117.021366,8.34501882 L106.635433,8.34501882 C104.147136,8.34501882 104.147136,9.76963486 104.147136,11.1628174 Z" id="Combined-Shape" fill="#E3E4E6"></path>
                <mask id="mask-2" fill="white">
                    <use xlink:href="#path-1"></use>
                </mask>
                <use id="Shape" fill="#FFFFFF" xlink:href="#path-1"></use>
            </g>
        </g>
    </g>
</svg>
