<?xml version="1.0" encoding="UTF-8" standalone="no"?><!DOCTYPE svg PUBLIC "-//W3C//DTD SVG 1.1//EN"
        "http://www.w3.org/Graphics/SVG/1.1/DTD/svg11.dtd">
<svg width="100%" height="100%" viewBox="0 0 961 252" version="1.1" xmlns="http://www.w3.org/2000/svg"
     xmlns:xlink="http://www.w3.org/1999/xlink" xml:space="preserve" xmlns:serif="http://www.serif.com/"
     style="fill-rule:evenodd;clip-rule:evenodd;stroke-linejoin:round;stroke-miterlimit:1.41421;"><rect id="Artboard1" x="0" y="0" width="961" height="252" style="fill:none;"/>
    <g><g><rect x="103.098" y="5.5" width="65.39" height="65.989" style="fill:#3ab0c8;"/>
        <rect x="103.098" y="105.794" width="65.39" height="65.989" style="fill:#b22672;"/><rect
            x="202.414" y="5.5" width="65.407" height="65.989" style="fill:#f15f3f;"/>
        <rect x="6.1" y="5.5" width="65.391" height="65.989" style="fill:#fdb528;"/><rect
            x="6.1" y="105.794" width="65.391" height="65.989" style="fill:#a0d5b3;"/></g>
        <g><path d="M520.354,233.548l2.467,-2.92c3.677,3.324 7.201,4.985 12.086,4.985c4.731,0 7.854,-2.518 7.854,-5.992l0,-0.101c0,-3.273 -1.762,-5.137 -9.163,-6.697c-8.107,-1.762 -11.834,-4.381 -11.834,-10.172l0,-0.102c0,-5.538 4.884,-9.615 11.582,-9.615c5.136,0 8.811,1.459 12.386,4.33l-2.316,3.071c-3.271,-2.67 -6.545,-3.827 -10.171,-3.827c-4.583,0 -7.502,2.518 -7.502,5.688l0,0.102c0,3.324 1.813,5.188 9.566,6.849c7.854,1.711 11.481,4.582 11.481,9.971l0,0.1c0,6.044 -5.036,9.97 -12.035,9.97c-5.589,0 -10.17,-1.863 -14.401,-5.64Z" style="fill:#3a3a49;fill-rule:nonzero;"/>
            <path d="M552.28,231.132l0,-0.101c0,-5.59 4.532,-8.511 11.128,-8.511c3.323,0 5.641,0.454 7.957,1.108l0,-0.806c0,-4.634 -2.821,-7.051 -7.705,-7.051c-3.07,0 -5.488,0.757 -7.906,1.863l-1.157,-3.172c2.87,-1.309 5.64,-2.214 9.467,-2.214c3.676,0 6.545,1.007 8.408,2.868c1.813,1.814 2.721,4.331 2.721,7.654l0,15.912l-3.827,0l0,-3.878c-1.813,2.316 -4.784,4.433 -9.366,4.433c-4.885,0.002 -9.72,-2.768 -9.72,-8.105Zm19.135,-2.014l0,-2.418c-1.914,-0.553 -4.432,-1.107 -7.603,-1.107c-4.834,0 -7.604,2.114 -7.604,5.237l0,0.1c0,3.273 3.021,5.187 6.546,5.187c4.784,-0.001 8.661,-2.871 8.661,-6.999Z"
                  style="fill:#3a3a49;fill-rule:nonzero;"/>
            <path d="M583.098,243.216l1.763,-3.021c2.971,2.166 6.294,3.324 10.021,3.324c5.74,0 9.466,-3.173 9.466,-9.265l0,-3.072c-2.266,3.021 -5.438,5.489 -10.222,5.489c-6.244,0 -12.236,-4.683 -12.236,-12.185l0,-0.103c0,-7.603 6.043,-12.286 12.236,-12.286c4.884,0 8.057,2.418 10.172,5.236l0,-4.683l3.877,0l0,21.502c0,4.028 -1.208,7.1 -3.324,9.215c-2.315,2.316 -5.791,3.475 -9.919,3.475c-4.332,0.001 -8.36,-1.209 -11.834,-3.626Zm21.349,-18.781l0,-0.102c0,-5.337 -4.632,-8.811 -9.566,-8.811c-4.934,0 -9.014,3.423 -9.014,8.762l0,0.1c0,5.237 4.18,8.862 9.014,8.862c4.934,0 9.566,-3.575 9.566,-8.811Z"
                  style="fill:#3a3a49;fill-rule:nonzero;"/>
            <path d="M628.316,235.915c3.574,0 6.093,-1.461 8.207,-3.677l2.418,2.166c-2.619,2.921 -5.791,4.885 -10.726,4.885c-7.15,0 -12.991,-5.488 -12.991,-13.596c0,-7.553 5.287,-13.596 12.487,-13.596c7.704,0 12.136,6.144 12.136,13.797c0,0.353 0,0.755 -0.051,1.359l-20.646,0c0.555,5.49 4.584,8.662 9.166,8.662Zm7.605,-11.783c-0.455,-4.732 -3.174,-8.762 -8.309,-8.762c-4.482,0 -7.907,3.728 -8.461,8.762l16.77,0Z"
                  style="fill:#3a3a49;fill-rule:nonzero;"/>
            <path d="M662.407,203.437l12.236,0c11.077,0 18.731,7.604 18.731,17.524l0,0.101c0,9.92 -7.654,17.623 -18.731,17.623l-12.236,0l0,-35.248Zm12.237,31.572c8.912,0 14.603,-6.043 14.603,-13.848l0,-0.1c0,-7.805 -5.69,-13.948 -14.603,-13.948l-8.259,0l0,27.896l8.259,0Z"
                  style="fill:#3a3a49;fill-rule:nonzero;"/>
            <path d="M699.167,231.132l0,-0.101c0,-5.59 4.53,-8.511 11.129,-8.511c3.321,0 5.64,0.454 7.955,1.108l0,-0.806c0,-4.634 -2.82,-7.051 -7.705,-7.051c-3.071,0 -5.487,0.757 -7.905,1.863l-1.158,-3.172c2.871,-1.309 5.64,-2.214 9.467,-2.214c3.676,0 6.546,1.007 8.409,2.868c1.813,1.814 2.719,4.331 2.719,7.654l0,15.912l-3.826,0l0,-3.878c-1.813,2.316 -4.783,4.433 -9.366,4.433c-4.887,0.002 -9.719,-2.768 -9.719,-8.105Zm19.135,-2.014l0,-2.418c-1.914,-0.553 -4.433,-1.107 -7.604,-1.107c-4.834,0 -7.603,2.114 -7.603,5.237l0,0.1c0,3.273 3.021,5.187 6.546,5.187c4.783,-0.001 8.661,-2.871 8.661,-6.999Z"
                  style="fill:#3a3a49;fill-rule:nonzero;"/>
            <path d="M728.121,235.361l1.963,-2.77c2.82,2.116 5.942,3.323 9.015,3.323c3.121,0 5.388,-1.611 5.388,-4.129l0,-0.101c0,-2.618 -3.072,-3.626 -6.496,-4.583c-4.079,-1.157 -8.61,-2.566 -8.61,-7.352l0,-0.101c0,-4.48 3.726,-7.453 8.862,-7.453c3.172,0 6.697,1.109 9.365,2.871l-1.762,2.921c-2.417,-1.562 -5.187,-2.519 -7.705,-2.519c-3.07,0 -5.035,1.611 -5.035,3.777l0,0.1c0,2.469 3.224,3.425 6.696,4.482c4.029,1.208 8.359,2.771 8.359,7.452l0,0.102c0,4.934 -4.078,7.804 -9.264,7.804c-3.727,0.003 -7.856,-1.457 -10.776,-3.824Z"
                  style="fill:#3a3a49;fill-rule:nonzero;"/>
            <path d="M755.363,201.927l3.877,0l0,15.257c1.712,-2.82 4.431,-5.086 8.912,-5.086c6.295,0 9.971,4.229 9.971,10.423l0,16.164l-3.877,0l0,-15.207c0,-4.834 -2.619,-7.854 -7.201,-7.854c-4.481,0 -7.805,3.271 -7.805,8.156l0,14.905l-3.877,0l0,-36.758Z"
                  style="fill:#3a3a49;fill-rule:nonzero;"/>
            <path d="M790.258,233.7l0,4.984l-3.876,0l0,-36.758l3.876,0l0,15.962c2.115,-3.123 5.188,-5.791 9.971,-5.791c6.244,0 12.438,4.935 12.438,13.495l0,0.101c0,8.51 -6.143,13.546 -12.438,13.546c-4.834,0 -7.957,-2.618 -9.971,-5.539Zm18.431,-7.957l0,-0.101c0,-6.143 -4.23,-10.069 -9.166,-10.069c-4.834,0 -9.416,4.077 -9.416,10.02l0,0.101c0,6.043 4.582,10.071 9.416,10.071c5.037,0 9.166,-3.726 9.166,-10.022Z"
                  style="fill:#3a3a49;fill-rule:nonzero;"/>
            <path d="M818.206,225.795l0,-0.102c0,-7.353 5.74,-13.596 13.595,-13.596c7.805,0 13.545,6.144 13.545,13.495l0,0.101c0,7.353 -5.79,13.596 -13.646,13.596c-7.804,0 -13.494,-6.143 -13.494,-13.494Zm23.162,0l0,-0.102c0,-5.589 -4.179,-10.171 -9.668,-10.171c-5.64,0 -9.517,4.582 -9.517,10.07l0,0.101c0,5.589 4.128,10.121 9.617,10.121c5.641,0 9.568,-4.532 9.568,-10.019Z"
                  style="fill:#3a3a49;fill-rule:nonzero;"/>
            <path d="M850.384,231.132l0,-0.101c0,-5.59 4.531,-8.511 11.129,-8.511c3.323,0 5.64,0.454 7.955,1.108l0,-0.806c0,-4.634 -2.819,-7.051 -7.705,-7.051c-3.071,0 -5.488,0.757 -7.906,1.863l-1.156,-3.172c2.869,-1.309 5.64,-2.214 9.467,-2.214c3.677,0 6.546,1.007 8.408,2.868c1.813,1.814 2.72,4.331 2.72,7.654l0,15.912l-3.827,0l0,-3.878c-1.813,2.316 -4.783,4.433 -9.366,4.433c-4.885,0.002 -9.719,-2.768 -9.719,-8.105Zm19.135,-2.014l0,-2.418c-1.914,-0.553 -4.433,-1.107 -7.604,-1.107c-4.835,0 -7.603,2.114 -7.603,5.237l0,0.1c0,3.273 3.02,5.187 6.545,5.187c4.784,-0.001 8.662,-2.871 8.662,-6.999Z"
                  style="fill:#3a3a49;fill-rule:nonzero;"/>
            <path d="M881.503,212.651l3.878,0l0,6.798c1.913,-4.331 5.689,-7.452 10.624,-7.252l0,4.18l-0.302,0c-5.689,0 -10.322,4.08 -10.322,11.935l0,10.373l-3.878,0l0,-26.034Z"
                  style="fill:#3a3a49;fill-rule:nonzero;"/>
            <path d="M899.329,225.743l0,-0.101c0,-8.509 6.192,-13.545 12.437,-13.545c4.835,0 7.956,2.618 9.972,5.538l0,-15.709l3.877,0l0,36.758l-3.877,0l0,-5.237c-2.115,3.123 -5.188,5.792 -9.972,5.792c-6.245,0 -12.437,-4.935 -12.437,-13.496Zm22.559,-0.05l0,-0.101c0,-5.991 -4.583,-10.02 -9.415,-10.02c-5.035,0 -9.166,3.725 -9.166,10.02l0,0.101c0,6.144 4.23,10.071 9.166,10.071c4.832,0.001 9.415,-4.078 9.415,-10.071Z"
                  style="fill:#3a3a49;fill-rule:nonzero;"/>
            <path d="M932.11,235.361l1.964,-2.77c2.819,2.116 5.94,3.323 9.014,3.323c3.123,0 5.389,-1.611 5.389,-4.129l0,-0.101c0,-2.618 -3.072,-3.626 -6.497,-4.583c-4.078,-1.157 -8.609,-2.566 -8.609,-7.352l0,-0.101c0,-4.48 3.726,-7.453 8.861,-7.453c3.173,0 6.697,1.109 9.365,2.871l-1.762,2.921c-2.418,-1.562 -5.187,-2.519 -7.705,-2.519c-3.069,0 -5.034,1.611 -5.034,3.777l0,0.1c0,2.469 3.223,3.425 6.696,4.482c4.028,1.208 8.359,2.771 8.359,7.452l0,0.102c0,4.934 -4.079,7.804 -9.265,7.804c-3.728,0.003 -7.855,-1.457 -10.776,-3.824Z"
                  style="fill:#3a3a49;fill-rule:nonzero;"/></g>
        <g><g><path d="M271.109,166.751c-3.629,4.384 -8.351,7.979 -14.168,10.795c-5.819,2.811 -12.48,4.221 -19.983,4.221c-6.26,0 -12.042,-1.156 -17.36,-3.475c-5.318,-2.312 -9.916,-5.501 -13.793,-9.566c-3.876,-4.071 -6.878,-8.881 -9.006,-14.449c-2.13,-5.567 -3.19,-11.541 -3.19,-17.926c0,-6.381 1.095,-12.35 3.283,-17.917c2.19,-5.569 5.222,-10.383 9.103,-14.45c3.877,-4.063 8.472,-7.254 13.793,-9.57c5.315,-2.314 11.04,-3.472 17.171,-3.472c7.626,0 14.104,1.347 19.421,4.036c5.313,2.689 9.85,6.412 13.602,11.165l-6.379,4.876c-2.878,-3.752 -6.472,-6.725 -10.791,-8.912c-4.314,-2.187 -9.602,-3.283 -15.853,-3.283c-5.008,0 -9.605,1.002 -13.792,3.003c-4.195,1.997 -7.821,4.69 -10.884,8.064c-3.068,3.382 -5.441,7.354 -7.13,11.92c-1.689,4.564 -2.535,9.413 -2.535,14.539c0,5.134 0.872,9.982 2.627,14.544c1.751,4.568 4.155,8.538 7.223,11.919c3.064,3.374 6.693,6.07 10.885,8.068c4.19,2.004 8.726,3.002 13.607,3.002c6.251,0 11.787,-1.126 16.606,-3.378c4.813,-2.253 8.66,-5.252 11.542,-9.009l6.001,5.255Z" style="fill:#3a3a49;fill-rule:nonzero;"/><path
                d="M341.665,135.417c-2.625,-0.624 -5.911,-1.158 -9.85,-1.598c-3.943,-0.438 -8.978,-0.653 -15.105,-0.653c-6.38,0 -11.447,0.782 -15.201,2.342c-3.752,1.565 -6.599,3.506 -8.539,5.817c-1.94,2.314 -3.189,4.818 -3.753,7.507c-0.562,2.69 -0.844,5.096 -0.844,7.222c0,6.256 2.096,10.825 6.286,13.7c4.192,2.883 9.54,4.316 16.042,4.316c4.253,0 8.259,-0.754 12.012,-2.251c3.754,-1.502 7.038,-3.503 9.854,-6.007c2.812,-2.496 5.033,-5.344 6.659,-8.536c1.626,-3.189 2.44,-6.412 2.44,-9.665l0,-12.194l-0.001,0Zm0.75,44.097c-0.126,-1.128 -0.185,-2.375 -0.185,-3.754c-0.127,-1.246 -0.189,-2.752 -0.189,-4.504l0,-6.192c-2.251,3.253 -4.723,5.977 -7.411,8.163c-2.691,2.194 -5.507,3.912 -8.448,5.159c-2.938,1.251 -5.818,2.126 -8.629,2.625c-2.816,0.499 -5.415,0.753 -7.788,0.753c-3.63,0 -7.256,-0.374 -10.885,-1.123c-3.629,-0.75 -6.879,-2.096 -9.757,-4.036c-2.879,-1.936 -5.226,-4.566 -7.037,-7.883c-1.814,-3.31 -2.72,-7.53 -2.72,-12.668c0,-4.127 0.686,-8.034 2.064,-11.726c1.375,-3.688 3.564,-6.876 6.565,-9.57c3.005,-2.688 6.878,-4.815 11.635,-6.38c4.754,-1.563 10.508,-2.342 17.264,-2.342c5.256,0 9.946,0.185 14.076,0.56c4.129,0.378 7.626,0.813 10.508,1.313l0,-4.88c0,-4.755 -0.562,-8.692 -1.689,-11.82c-1.127,-3.125 -2.816,-5.628 -5.067,-7.509c-2.254,-1.872 -5.004,-3.189 -8.257,-3.937c-3.255,-0.753 -7.007,-1.127 -11.261,-1.127c-7.13,0 -12.793,1.033 -16.98,3.098c-4.195,2.064 -7.414,4.031 -9.665,5.912l-4.505,-5.818c2.376,-2.255 6.22,-4.63 11.539,-7.133c5.318,-2.501 11.791,-3.753 19.425,-3.753c11.132,0 19.729,2.379 25.801,7.134c6.064,4.755 9.1,12.634 9.1,23.642l0,46.818c0,2.187 0.063,4.101 0.187,5.719c0.124,2.005 0.252,3.753 0.375,5.259l-8.066,0Z"
                style="fill:#3a3a49;fill-rule:nonzero;"/><path
                d="M363.972,162.623c3.626,3.629 7.789,6.416 12.479,8.354c4.692,1.939 10.227,2.907 16.605,2.907c3.502,0 6.818,-0.347 9.946,-1.035c3.126,-0.686 5.88,-1.688 8.259,-3c2.373,-1.313 4.248,-2.97 5.627,-4.974c1.376,-1.998 2.065,-4.377 2.065,-7.127c0,-3.124 -0.628,-5.695 -1.875,-7.697c-1.255,-2.001 -3.099,-3.656 -5.54,-4.974c-2.436,-1.313 -5.504,-2.44 -9.195,-3.375c-3.692,-0.938 -7.914,-1.969 -12.666,-3.097c-4.003,-0.874 -7.662,-1.903 -10.977,-3.098c-3.315,-1.188 -6.162,-2.655 -8.535,-4.411c-2.38,-1.748 -4.258,-3.968 -5.633,-6.657c-1.374,-2.689 -2.064,-6.036 -2.064,-10.043c0,-3.876 0.875,-7.285 2.63,-10.224c1.749,-2.941 4.092,-5.409 7.037,-7.414c2.936,-1.997 6.313,-3.472 10.133,-4.41c3.812,-0.939 7.785,-1.407 11.914,-1.407c6.755,0 12.729,1.255 17.921,3.753c5.192,2.503 9.414,5.695 12.666,9.569l-5.817,5.254c-3.002,-3.25 -6.472,-5.875 -10.416,-7.88c-3.939,-1.997 -8.665,-3.002 -14.164,-3.002c-2.755,0 -5.509,0.219 -8.259,0.658c-2.754,0.439 -5.256,1.249 -7.507,2.436c-2.254,1.191 -4.066,2.818 -5.441,4.884c-1.378,2.065 -2.065,4.784 -2.065,8.159c0,2.754 0.78,5.068 2.347,6.945c1.563,1.875 3.596,3.44 6.098,4.689c2.501,1.256 5.375,2.288 8.633,3.098c3.249,0.817 6.501,1.593 9.757,2.35c3.501,0.748 7.037,1.686 10.601,2.811c3.566,1.127 6.818,2.599 9.757,4.41c2.938,1.819 5.318,4.127 7.133,6.944c1.81,2.811 2.72,6.351 2.72,10.604c0,4.379 -1.002,8.131 -3.001,11.256c-2.003,3.129 -4.633,5.723 -7.883,7.788c-3.253,2.063 -6.944,3.598 -11.069,4.596c-4.128,0.999 -8.257,1.505 -12.388,1.505c-8.132,0 -15.043,-1.194 -20.731,-3.569c-5.695,-2.372 -10.544,-5.564 -14.545,-9.57l5.443,-6.006Z"
                style="fill:#3a3a49;fill-rule:nonzero;"/><path
                d="M511.849,166.751c-3.628,4.384 -8.352,7.979 -14.17,10.795c-5.817,2.811 -12.478,4.221 -19.979,4.221c-6.26,0 -12.043,-1.156 -17.362,-3.475c-5.318,-2.312 -9.914,-5.501 -13.791,-9.566c-3.881,-4.071 -6.88,-8.881 -9.008,-14.449c-2.129,-5.567 -3.19,-11.541 -3.19,-17.926c0,-6.381 1.094,-12.35 3.284,-17.917c2.189,-5.569 5.223,-10.383 9.104,-14.45c3.877,-4.063 8.469,-7.254 13.791,-9.57c5.314,-2.314 11.042,-3.472 17.172,-3.472c7.626,0 14.102,1.347 19.421,4.036c5.313,2.689 9.849,6.412 13.601,11.165l-6.378,4.876c-2.877,-3.752 -6.471,-6.725 -10.79,-8.912c-4.316,-2.187 -9.604,-3.283 -15.854,-3.283c-5.007,0 -9.607,1.002 -13.794,3.003c-4.195,1.997 -7.819,4.69 -10.883,8.064c-3.067,3.382 -5.442,7.354 -7.133,11.92c-1.687,4.564 -2.53,9.413 -2.53,14.539c0,5.134 0.87,9.982 2.625,14.544c1.75,4.568 4.157,8.538 7.224,11.919c3.064,3.374 6.691,6.07 10.883,8.068c4.191,2.004 8.726,3.002 13.609,3.002c6.249,0 11.786,-1.126 16.602,-3.378c4.815,-2.253 8.662,-5.252 11.545,-9.009l6.001,5.255Z"
                style="fill:#3a3a49;fill-rule:nonzero;"/><path
                d="M580.888,135.417c-2.625,-0.624 -5.913,-1.158 -9.851,-1.598c-3.945,-0.438 -8.979,-0.653 -15.107,-0.653c-6.377,0 -11.449,0.782 -15.201,2.342c-3.75,1.565 -6.598,3.506 -8.538,5.817c-1.94,2.314 -3.188,4.818 -3.751,7.507c-0.564,2.69 -0.845,5.096 -0.845,7.222c0,6.256 2.096,10.825 6.286,13.7c4.191,2.883 9.54,4.316 16.042,4.316c4.252,0 8.258,-0.754 12.01,-2.251c3.757,-1.502 7.039,-3.503 9.851,-6.007c2.817,-2.496 5.039,-5.344 6.664,-8.536c1.628,-3.189 2.44,-6.412 2.44,-9.665l0,-12.194Zm0.749,44.097c-0.125,-1.128 -0.186,-2.375 -0.186,-3.754c-0.125,-1.246 -0.189,-2.752 -0.189,-4.504l0,-6.192c-2.249,3.253 -4.721,5.977 -7.41,8.163c-2.688,2.194 -5.507,3.912 -8.446,5.159c-2.938,1.251 -5.817,2.126 -8.632,2.625c-2.813,0.499 -5.412,0.753 -7.789,0.753c-3.627,0 -7.254,-0.374 -10.882,-1.123c-3.632,-0.75 -6.879,-2.096 -9.759,-4.036c-2.878,-1.936 -5.224,-4.566 -7.035,-7.883c-1.815,-3.31 -2.72,-7.53 -2.72,-12.668c0,-4.127 0.684,-8.034 2.066,-11.726c1.372,-3.688 3.562,-6.876 6.562,-9.57c3.007,-2.688 6.881,-4.815 11.635,-6.38c4.755,-1.563 10.512,-2.342 17.264,-2.342c5.258,0 9.947,0.185 14.078,0.56c4.127,0.378 7.626,0.813 10.509,1.313l0,-4.88c0,-4.755 -0.567,-8.692 -1.689,-11.82c-1.129,-3.125 -2.815,-5.628 -5.066,-7.509c-2.255,-1.872 -5.008,-3.189 -8.257,-3.937c-3.253,-0.753 -7.01,-1.127 -11.261,-1.127c-7.13,0 -12.792,1.033 -16.98,3.098c-4.194,2.064 -7.413,4.031 -9.663,5.912l-4.506,-5.818c2.374,-2.255 6.218,-4.63 11.537,-7.133c5.317,-2.501 11.789,-3.753 19.427,-3.753c11.131,0 19.729,2.379 25.8,7.134c6.063,4.755 9.102,12.634 9.102,23.642l0,46.818c0,2.187 0.062,4.101 0.185,5.719c0.126,2.005 0.254,3.753 0.376,5.259l-8.071,0Z"
                style="fill:#3a3a49;fill-rule:nonzero;"/><path
                d="M668.144,108.395c-1.877,-1.748 -4.066,-3.314 -6.565,-4.695c-2.131,-1.244 -4.881,-2.371 -8.259,-3.378c-3.378,-0.998 -7.259,-1.497 -11.635,-1.497c-4.505,0 -8.851,0.718 -13.042,2.156c-4.192,1.438 -7.944,3.722 -11.262,6.85c-3.313,3.128 -5.976,7.13 -7.973,12.01c-2.002,4.88 -3.003,10.697 -3.003,17.453c0,4.878 0.563,9.509 1.69,13.882c1.127,4.38 2.909,8.262 5.348,11.635c2.44,3.382 5.598,6.07 9.475,8.072c3.879,2.001 8.633,2.999 14.262,2.999c5.258,0 9.822,-0.965 13.699,-2.904c3.877,-1.941 7.101,-4.347 9.665,-7.229c2.565,-2.874 4.475,-5.907 5.723,-9.097c1.249,-3.192 1.877,-6.033 1.877,-8.541l0,-37.716Zm0.374,71.119c-0.125,-1.623 -0.187,-3.254 -0.187,-4.88c-0.128,-1.377 -0.188,-2.974 -0.188,-4.785l0,-5.348c-1.877,3.253 -4.38,6.131 -7.505,8.635c-2.629,2.125 -5.942,4.096 -9.945,5.908c-4.008,1.816 -8.82,2.72 -14.453,2.72c-6.63,0 -12.379,-1.157 -17.263,-3.469c-4.88,-2.314 -8.912,-5.477 -12.104,-9.479c-3.184,-4.001 -5.563,-8.723 -7.129,-14.165c-1.563,-5.442 -2.342,-11.291 -2.342,-17.548c0,-7.001 1.088,-13.352 3.279,-19.048c2.19,-5.689 5.258,-10.535 9.195,-14.54c3.941,-4.002 8.632,-7.101 14.074,-9.29c5.443,-2.187 11.416,-3.283 17.922,-3.283c3.628,0 6.972,0.438 10.035,1.316c3.063,0.874 5.852,1.815 8.353,2.814c2.753,1.248 5.379,2.625 7.883,4.13l0,-44.853l8.258,0l0,114.187c0,2.187 0.063,4.101 0.186,5.719c0,2.005 0.063,3.753 0.188,5.259l-8.257,0Z"
                style="fill:#3a3a49;fill-rule:nonzero;"/><path
                d="M758.965,131.286c-1.123,-10.63 -4.504,-18.701 -10.133,-24.209c-5.628,-5.503 -12.947,-8.253 -21.953,-8.253c-4.634,0 -8.856,0.849 -12.665,2.535c-3.82,1.687 -7.103,4.001 -9.854,6.94c-2.754,2.939 -4.974,6.381 -6.664,10.323c-1.688,3.937 -2.659,8.162 -2.909,12.664l64.178,0Zm5.444,35.279c-3.757,4.755 -8.851,8.477 -15.293,11.166c-6.446,2.689 -13.047,4.032 -19.802,4.032c-6.378,0 -12.289,-1.097 -17.732,-3.28c-5.439,-2.189 -10.1,-5.287 -13.977,-9.292c-3.882,-3.999 -6.915,-8.788 -9.104,-14.355c-2.187,-5.567 -3.285,-11.726 -3.285,-18.481c0,-6.257 1.033,-12.135 3.1,-17.643c2.064,-5.503 4.909,-10.317 8.537,-14.445c3.626,-4.131 8.008,-7.383 13.132,-9.763c5.131,-2.375 10.762,-3.562 16.894,-3.562c5.878,0 11.351,1.028 16.42,3.094c5.064,2.065 9.44,5.102 13.133,9.104c3.688,4.006 6.57,8.977 8.635,14.916c2.062,5.946 3.095,12.793 3.095,20.547l-73.559,0c0.124,4.884 1.062,9.479 2.813,13.795c1.748,4.315 4.127,8.072 7.13,11.26c3.004,3.192 6.601,5.693 10.791,7.504c4.191,1.816 8.848,2.721 13.978,2.721c2.633,0 5.349,-0.275 8.167,-0.84c2.813,-0.563 5.533,-1.41 8.159,-2.538c2.628,-1.12 5.038,-2.436 7.228,-3.938c2.187,-1.502 4.032,-3.192 5.534,-5.065l6.006,5.063Z"
                style="fill:#3a3a49;fill-rule:nonzero;"/></g>
            <g><path d="M785.288,165.502l7.11,-7.795c8.342,8.067 17.503,13.127 27.211,13.127c13.675,0 23.11,-9.024 23.11,-21.194l0,-0.273c0,-11.896 -9.846,-20.102 -23.793,-20.102c-8.068,0 -14.495,2.462 -20.102,5.47l-7.247,-4.786l2.735,-46.628l55.106,0l0,9.981l-45.672,0l-2.051,30.63c5.606,-2.461 10.939,-4.238 18.87,-4.238c18.597,0 33.091,11.075 33.091,29.263l0,0.273c0,18.733 -14.221,31.45 -34.185,31.45c-13.671,0 -25.569,-6.564 -34.183,-15.178Z" style="fill:#f15f3f;fill-rule:nonzero;"/>
                <path d="M870.203,131.453l0,-0.273c0,-26.802 15.999,-49.501 40.613,-49.501c24.613,0 40.201,22.426 40.201,49.228l0,0.273c0,26.802 -15.861,49.5 -40.475,49.5c-24.75,0 -40.339,-22.426 -40.339,-49.227Zm69.603,0l0,-0.273c0,-20.922 -11.487,-39.656 -29.263,-39.656c-17.914,0 -29.127,18.323 -29.127,39.382l0,0.273c0,20.921 11.486,39.654 29.4,39.654c17.913,0.001 28.99,-18.458 28.99,-39.38Z"
                      style="fill:#f15f3f;fill-rule:nonzero;"/>
            </g>
        </g>
    </g>
</svg>
