<svg xmlns="http://www.w3.org/2000/svg" viewBox="0 0 49.83 49.83"><defs><style>.cls-1{fill:transparent;}.cls-2{fill:#fff;}</style></defs><title>i-1</title><g id="Layer_1" data-name="Layer 1"><path class="cls-1" d="M49.83,3.51V46.32a3.51,3.51,0,0,1-3.52,3.51H3.51A3.51,3.51,0,0,1,0,46.32V3.51A3.51,3.51,0,0,1,3.51,0h42.8A3.51,3.51,0,0,1,49.83,3.51Z"/><polygon class="cls-1" points="29.21 37.01 18.94 37.01 18.94 41.47 22 41.47 22 43.97 26.16 43.97 26.16 41.47 29.21 41.47 29.21 37.01"/><path class="cls-2" d="M26.65,44.47H21.5V42H18.44V36.51H29.71V42H26.65Zm-4.15-1h3.15V41h3.06V37.51H19.44V41H22.5Z"/><rect class="cls-1" x="28.96" y="7.38" width="3.85" height="9.29"/><path class="cls-2" d="M33.3,17.16H28.45V6.88H33.3Zm-3.85-1H32.3V7.88H29.45Z"/><rect class="cls-1" x="15.35" y="7.38" width="3.85" height="9.29"/><path class="cls-2" d="M19.7,17.16H14.85V6.88H19.7Zm-3.85-1H18.7V7.88H15.85Z"/><path class="cls-2" d="M9.51,16.66v4.59h2.13V29.5A7.34,7.34,0,0,0,18.8,37H29.35a7.34,7.34,0,0,0,7.17-7.51V21.25h2.12V16.66Z"/><path class="cls-1" d="M29.33,26.57l-7.65,4.26c-.23.22-.83.22-.83,0V21.5c0-.24.6-.24.82,0l7.68,4.24A.59.59,0,0,1,29.33,26.57Z"/></g></svg>
