<svg xmlns="http://www.w3.org/2000/svg" viewBox="0 0 49.83 49.83"><defs><style>.cls-1{fill:transparent;}.cls-2{fill:#fff;}</style></defs><title>i-3</title><g id="Layer_1" data-name="Layer 1"><path class="cls-1" d="M49.83,3.51V46.32a3.51,3.51,0,0,1-3.52,3.51H3.51A3.51,3.51,0,0,1,0,46.32V3.51A3.51,3.51,0,0,1,3.51,0h42.8A3.51,3.51,0,0,1,49.83,3.51Z"/><path class="cls-2" d="M27.1,25.75l4,4c1.13,1.14.21,1.94.21,1.94s-.8.92-1.94-.22l-4-4a2.3,2.3,0,1,1,1.11-3.86A2.29,2.29,0,0,1,27.1,25.75Z"/><path class="cls-2" d="M30.38,43.74H19.13a1,1,0,0,1-1-1V39.49a1,1,0,0,1,1-1H30.38a1,1,0,0,1,1,1v3.22A1,1,0,0,1,30.38,43.74ZM19.13,39.47l0,3.24,0,0H30.38l0-3.25Z"/><circle class="cls-2" cx="24.76" cy="25.14" r="2.46"/><path class="cls-2" d="M43.69,23.71A19,19,0,0,0,26,6.1c-.42,0-.84,0-1.27,0s-.94,0-1.4.05a19,19,0,0,0-11.18,4.72,19.82,19.82,0,0,0-1.87,1.91,18.88,18.88,0,0,0-4.49,11c0,.44-.05.89-.05,1.34s0,.89.05,1.33a18.88,18.88,0,0,0,4.49,11,19.11,19.11,0,0,0,1.45,1.53l.42.39L15,36.42l1.7-1.69A1.39,1.39,0,0,0,16.91,33a1.33,1.33,0,0,0-2-.17l-1.73,1.72a14.92,14.92,0,0,1-3.31-8.13h2.49a1.38,1.38,0,0,0,1.39-1.11,1.34,1.34,0,0,0-1.32-1.56H9.84a15,15,0,0,1,3.31-8.13l1.73,1.73a1.33,1.33,0,0,0,.94.39,1.34,1.34,0,0,0,1-.47,1.4,1.4,0,0,0-.13-1.87L15,13.67a15,15,0,0,1,8.34-3.54v2.55a1.4,1.4,0,0,0,1.11,1.39A1.34,1.34,0,0,0,26,12.75V10.12a15,15,0,0,1,8.47,3.56l-1.68,1.68a1.4,1.4,0,0,0-.13,1.87,1.35,1.35,0,0,0,2,.08l1.71-1.72a15,15,0,0,1,3.31,8.12H37.06a1.4,1.4,0,0,0-1.39,1.11A1.34,1.34,0,0,0,37,26.38h2.69a15,15,0,0,1-3.31,8.12l-1.66-1.66a1.39,1.39,0,0,0-1.77-.2,1.34,1.34,0,0,0-.17,2l1.73,1.73,2.85,2.85.41-.39a17.48,17.48,0,0,0,1.45-1.53,18.89,18.89,0,0,0,4.49-11c0-.44,0-.88,0-1.33S43.73,24.15,43.69,23.71Z"/></g></svg>
