<svg xmlns="http://www.w3.org/2000/svg" viewBox="0 0 49.83 49.83"><defs><style>.cls-1{fill:transparent;}.cls-2{fill:#fff;}</style></defs><title>i-12</title><g id="Layer_1" data-name="Layer 1"><path class="cls-1" d="M49.83,3.51V46.32a3.51,3.51,0,0,1-3.52,3.51H3.51A3.51,3.51,0,0,1,0,46.32V3.51A3.51,3.51,0,0,1,3.51,0h42.8A3.51,3.51,0,0,1,49.83,3.51Z"/><path class="cls-2" d="M30,22.94a7.41,7.41,0,0,1-2.39,1.59,7.38,7.38,0,0,1-5.59,0,7.52,7.52,0,0,1-2.39-1.59,7.32,7.32,0,0,1-1.58-8,7.34,7.34,0,0,1,6.77-4.53A7.44,7.44,0,0,1,30,12.57,7.52,7.52,0,0,1,31.63,15a7.24,7.24,0,0,1,.55,2.8,7.32,7.32,0,0,1-.55,2.8h0A7.47,7.47,0,0,1,30,22.94ZM16.77,39.76H35.94V35h0V33.84h0a12.7,12.7,0,0,0-.14-1.41,10,10,0,0,0-.8-2.61,7.89,7.89,0,0,0-.69-1.16,8.1,8.1,0,0,0-.89-1,7.68,7.68,0,0,0-1.06-.89A9,9,0,0,0,31.16,26a13.17,13.17,0,0,0-1.34-.57l-.37-.13L28.76,25l-.58-.21-.47.4-.56.48-.29.25-.22.16-.21.15a1.51,1.51,0,0,1-.22.11l-.24.1-.25.08h0l-.25.06-.26,0h-.54l-.26,0-.27-.06-.22-.07h0l-.23-.1-.24-.13-.22-.15L23,26l-.27-.24-.53-.45-.44-.38-.55.16-.67.2-.35.11a8.94,8.94,0,0,0-1.33.52,9.33,9.33,0,0,0-1.25.74,9.13,9.13,0,0,0-1.11.91,8.74,8.74,0,0,0-1,1.08,9.71,9.71,0,0,0-.76,1.22,8.57,8.57,0,0,0-.56,1.32,9.55,9.55,0,0,0-.35,1.4A8.72,8.72,0,0,0,13.76,34v5.79h3Z"/><path class="cls-2" d="M39.86,21a3.5,3.5,0,0,1-1.18.79,3.62,3.62,0,0,1-2.79,0A3.5,3.5,0,0,1,34.71,21a3.71,3.71,0,0,1-.79-1.18,3.59,3.59,0,0,1,0-2.78,3.86,3.86,0,0,1,.79-1.19A3.82,3.82,0,0,1,35.89,15a3.74,3.74,0,0,1,2.79,0,3.82,3.82,0,0,1,1.18.79A3.86,3.86,0,0,1,40.65,17a3.59,3.59,0,0,1,0,2.78h0A3.71,3.71,0,0,1,39.86,21Z"/><path class="cls-2" d="M32,25.21a10.87,10.87,0,0,1,1,.64,9.41,9.41,0,0,1,1.19,1,8.67,8.67,0,0,1,1,1.18,8.55,8.55,0,0,1,.77,1.3h6.86V27h0v-.53h0v-.05h0c0-.24,0-.47-.07-.69s-.09-.45-.15-.67a5.9,5.9,0,0,0-.25-.63,3.68,3.68,0,0,0-.34-.58,4.47,4.47,0,0,0-.44-.52,3.75,3.75,0,0,0-.53-.44,5.17,5.17,0,0,0-.59-.36,6.11,6.11,0,0,0-.67-.29l-.18-.06L39.22,22l-.28-.1-.24.2-.27.24-.15.12-.11.09-.1.07-.11.05-.12.05-.13,0h0l-.12,0-.13,0h-.27l-.13,0-.13,0-.11,0h0l-.11,0-.12-.07-.12-.07-.1-.08-.14-.12L36,22.12l-.22-.18-.27.08-.33.1-.18.05a4.77,4.77,0,0,0-.66.26,3.9,3.9,0,0,0-.62.37,4.13,4.13,0,0,0-.55.45,4,4,0,0,0-.48.54,5.63,5.63,0,0,0-.38.6,3.81,3.81,0,0,0-.27.66Z"/><path class="cls-2" d="M14.75,21a3.4,3.4,0,0,1-1.18.79,3.59,3.59,0,0,1-2.78,0,3.57,3.57,0,0,1-2-2,3.59,3.59,0,0,1,0-2.78,3.67,3.67,0,0,1,.78-1.19A3.86,3.86,0,0,1,10.79,15a3.71,3.71,0,0,1,2.78,0,3.71,3.71,0,0,1,1.18.79A3.54,3.54,0,0,1,15.54,17a3.59,3.59,0,0,1,0,2.78h0A3.4,3.4,0,0,1,14.75,21Z"/><path class="cls-2" d="M8.16,29.33h5.69A10.66,10.66,0,0,1,14.7,28a9.36,9.36,0,0,1,1.07-1.2,10.19,10.19,0,0,1,1.24-1l.54-.36a2.37,2.37,0,0,0-.09-.36,4.35,4.35,0,0,0-.25-.63,3.94,3.94,0,0,0-.78-1.1,3.75,3.75,0,0,0-.53-.44,3.87,3.87,0,0,0-.59-.36,6.86,6.86,0,0,0-.66-.29l-.19-.06L14.12,22l-.29-.1-.23.2-.28.24-.15.12a1,1,0,0,1-.1.09l-.11.07-.11.05-.12.05-.12,0h0l-.13,0-.13,0h-.26l-.13,0-.14,0-.11,0h0l-.11,0-.12-.07-.11-.07-.11-.08-.13-.12-.27-.23-.22-.18-.27.08-.33.1-.17.05a5.46,5.46,0,0,0-.67.26,4.41,4.41,0,0,0-.62.37,4.89,4.89,0,0,0-.55.45,4,4,0,0,0-.47.54,3.6,3.6,0,0,0-.38.6,3.85,3.85,0,0,0-.28.66,4.09,4.09,0,0,0-.17.69,4.34,4.34,0,0,0-.06.71v2.88H8.16Z"/></g></svg>
