<svg viewBox="0 0 953 185" xmlns="http://www.w3.org/2000/svg" fill-rule="evenodd" clip-rule="evenodd" stroke-linejoin="round" stroke-miterlimit="1.414" width="953" height="185"><path fill="none" d="M0 0h953v185H0z"/><path fill="#3ab0c8" d="M101.098 4.5h65.39v65.989h-65.39z"/><path fill="#b22672" d="M101.098 104.794h65.39v65.989h-65.39z"/><path fill="#f15f3f" d="M200.414 4.5h65.407v65.989h-65.407z"/><path fill="#fdb528" d="M4.1 4.5h65.391v65.989H4.1z"/><path fill="#a0d5b3" d="M4.1 104.794h65.391v65.989H4.1z"/><g fill-rule="nonzero"><path d="M269.109 165.751c-3.629 4.384-8.351 7.979-14.168 10.795-5.819 2.811-12.48 4.221-19.983 4.221-6.26 0-12.042-1.156-17.36-3.475-5.318-2.312-9.916-5.501-13.793-9.566-3.876-4.071-6.878-8.881-9.006-14.449-2.13-5.567-3.19-11.541-3.19-17.926 0-6.381 1.095-12.35 3.283-17.917 2.19-5.569 5.222-10.383 9.103-14.45 3.877-4.063 8.472-7.254 13.793-9.57 5.315-2.314 11.04-3.472 17.171-3.472 7.626 0 14.104 1.347 19.421 4.036 5.313 2.689 9.85 6.412 13.602 11.165l-6.379 4.876c-2.878-3.752-6.472-6.725-10.791-8.912-4.314-2.187-9.602-3.283-15.853-3.283-5.008 0-9.605 1.002-13.792 3.003-4.195 1.997-7.821 4.69-10.884 8.064-3.068 3.382-5.441 7.354-7.13 11.92-1.689 4.564-2.535 9.413-2.535 14.539 0 5.134.872 9.982 2.627 14.544 1.751 4.568 4.155 8.538 7.223 11.919 3.064 3.374 6.693 6.07 10.885 8.068 4.19 2.004 8.726 3.002 13.607 3.002 6.251 0 11.787-1.126 16.606-3.378 4.813-2.253 8.66-5.252 11.542-9.009l6.001 5.255zm70.556-31.334c-2.625-.624-5.911-1.158-9.85-1.598-3.943-.438-8.978-.653-15.105-.653-6.38 0-11.447.782-15.201 2.342-3.752 1.565-6.599 3.506-8.539 5.817-1.94 2.314-3.189 4.818-3.753 7.507-.562 2.69-.844 5.096-.844 7.222 0 6.256 2.096 10.825 6.286 13.7 4.192 2.883 9.54 4.316 16.042 4.316 4.253 0 8.259-.754 12.012-2.251 3.754-1.502 7.038-3.503 9.854-6.007 2.812-2.496 5.033-5.344 6.659-8.536 1.626-3.189 2.44-6.412 2.44-9.665v-12.194h-.001zm.75 44.097a34.018 34.018 0 01-.185-3.754c-.127-1.246-.189-2.752-.189-4.504v-6.192c-2.251 3.253-4.723 5.977-7.411 8.163-2.691 2.194-5.507 3.912-8.448 5.159-2.938 1.251-5.818 2.126-8.629 2.625-2.816.499-5.415.753-7.788.753-3.63 0-7.256-.374-10.885-1.123-3.629-.75-6.879-2.096-9.757-4.036-2.879-1.936-5.226-4.566-7.037-7.883-1.814-3.31-2.72-7.53-2.72-12.668 0-4.127.686-8.034 2.064-11.726 1.375-3.688 3.564-6.876 6.565-9.57 3.005-2.688 6.878-4.815 11.635-6.38 4.754-1.563 10.508-2.342 17.264-2.342 5.256 0 9.946.185 14.076.56 4.129.378 7.626.813 10.508 1.313v-4.88c0-4.755-.562-8.692-1.689-11.82-1.127-3.125-2.816-5.628-5.067-7.509-2.254-1.872-5.004-3.189-8.257-3.937-3.255-.753-7.007-1.127-11.261-1.127-7.13 0-12.793 1.033-16.98 3.098-4.195 2.064-7.414 4.031-9.665 5.912l-4.505-5.818c2.376-2.255 6.22-4.63 11.539-7.133 5.318-2.501 11.791-3.753 19.425-3.753 11.132 0 19.729 2.379 25.801 7.134 6.064 4.755 9.1 12.634 9.1 23.642v46.818c0 2.187.063 4.101.187 5.719.124 2.005.252 3.753.375 5.259h-8.066zm21.557-16.891c3.626 3.629 7.789 6.416 12.479 8.354 4.692 1.939 10.227 2.907 16.605 2.907 3.502 0 6.818-.347 9.946-1.035 3.126-.686 5.88-1.688 8.259-3 2.373-1.313 4.248-2.97 5.627-4.974 1.376-1.998 2.065-4.377 2.065-7.127 0-3.124-.628-5.695-1.875-7.697-1.255-2.001-3.099-3.656-5.54-4.974-2.436-1.313-5.504-2.44-9.195-3.375a840.09 840.09 0 00-12.666-3.097c-4.003-.874-7.662-1.903-10.977-3.098-3.315-1.188-6.162-2.655-8.535-4.411-2.38-1.748-4.258-3.968-5.633-6.657-1.374-2.689-2.064-6.036-2.064-10.043 0-3.876.875-7.285 2.63-10.224 1.749-2.941 4.092-5.409 7.037-7.414 2.936-1.997 6.313-3.472 10.133-4.41 3.812-.939 7.785-1.407 11.914-1.407 6.755 0 12.729 1.255 17.921 3.753 5.192 2.503 9.414 5.695 12.666 9.569l-5.817 5.254a36.715 36.715 0 00-10.416-7.88c-3.939-1.997-8.665-3.002-14.164-3.002-2.755 0-5.509.219-8.259.658-2.754.439-5.256 1.249-7.507 2.436-2.254 1.191-4.066 2.818-5.441 4.884-1.378 2.065-2.065 4.784-2.065 8.159 0 2.754.78 5.068 2.347 6.945 1.563 1.875 3.596 3.44 6.098 4.689 2.501 1.256 5.375 2.288 8.633 3.098 3.249.817 6.501 1.593 9.757 2.35a115.18 115.18 0 0110.601 2.811c3.566 1.127 6.818 2.599 9.757 4.41 2.938 1.819 5.318 4.127 7.133 6.944 1.81 2.811 2.72 6.351 2.72 10.604 0 4.379-1.002 8.131-3.001 11.256-2.003 3.129-4.633 5.723-7.883 7.788-3.253 2.063-6.944 3.598-11.069 4.596-4.128.999-8.257 1.505-12.388 1.505-8.132 0-15.043-1.194-20.731-3.569-5.695-2.372-10.544-5.564-14.545-9.57l5.443-6.006zm147.877 4.128c-3.628 4.384-8.352 7.979-14.17 10.795-5.817 2.811-12.478 4.221-19.979 4.221-6.26 0-12.043-1.156-17.362-3.475-5.318-2.312-9.914-5.501-13.791-9.566-3.881-4.071-6.88-8.881-9.008-14.449-2.129-5.567-3.19-11.541-3.19-17.926 0-6.381 1.094-12.35 3.284-17.917 2.189-5.569 5.223-10.383 9.104-14.45 3.877-4.063 8.469-7.254 13.791-9.57 5.314-2.314 11.042-3.472 17.172-3.472 7.626 0 14.102 1.347 19.421 4.036 5.313 2.689 9.849 6.412 13.601 11.165l-6.378 4.876c-2.877-3.752-6.471-6.725-10.79-8.912-4.316-2.187-9.604-3.283-15.854-3.283-5.007 0-9.607 1.002-13.794 3.003-4.195 1.997-7.819 4.69-10.883 8.064-3.067 3.382-5.442 7.354-7.133 11.92-1.687 4.564-2.53 9.413-2.53 14.539 0 5.134.87 9.982 2.625 14.544 1.75 4.568 4.157 8.538 7.224 11.919 3.064 3.374 6.691 6.07 10.883 8.068 4.191 2.004 8.726 3.002 13.609 3.002 6.249 0 11.786-1.126 16.602-3.378 4.815-2.253 8.662-5.252 11.545-9.009l6.001 5.255zm69.039-31.334c-2.625-.624-5.913-1.158-9.851-1.598-3.945-.438-8.979-.653-15.107-.653-6.377 0-11.449.782-15.201 2.342-3.75 1.565-6.598 3.506-8.538 5.817-1.94 2.314-3.188 4.818-3.751 7.507-.564 2.69-.845 5.096-.845 7.222 0 6.256 2.096 10.825 6.286 13.7 4.191 2.883 9.54 4.316 16.042 4.316 4.252 0 8.258-.754 12.01-2.251 3.757-1.502 7.039-3.503 9.851-6.007 2.817-2.496 5.039-5.344 6.664-8.536 1.628-3.189 2.44-6.412 2.44-9.665v-12.194zm.749 44.097a34.25 34.25 0 01-.186-3.754c-.125-1.246-.189-2.752-.189-4.504v-6.192c-2.249 3.253-4.721 5.977-7.41 8.163-2.688 2.194-5.507 3.912-8.446 5.159-2.938 1.251-5.817 2.126-8.632 2.625-2.813.499-5.412.753-7.789.753a53.69 53.69 0 01-10.882-1.123c-3.632-.75-6.879-2.096-9.759-4.036-2.878-1.936-5.224-4.566-7.035-7.883-1.815-3.31-2.72-7.53-2.72-12.668 0-4.127.684-8.034 2.066-11.726 1.372-3.688 3.562-6.876 6.562-9.57 3.007-2.688 6.881-4.815 11.635-6.38 4.755-1.563 10.512-2.342 17.264-2.342 5.258 0 9.947.185 14.078.56 4.127.378 7.626.813 10.509 1.313v-4.88c0-4.755-.567-8.692-1.689-11.82-1.129-3.125-2.815-5.628-5.066-7.509-2.255-1.872-5.008-3.189-8.257-3.937-3.253-.753-7.01-1.127-11.261-1.127-7.13 0-12.792 1.033-16.98 3.098-4.194 2.064-7.413 4.031-9.663 5.912l-4.506-5.818c2.374-2.255 6.218-4.63 11.537-7.133 5.317-2.501 11.789-3.753 19.427-3.753 11.131 0 19.729 2.379 25.8 7.134 6.063 4.755 9.102 12.634 9.102 23.642v46.818c0 2.187.062 4.101.185 5.719.126 2.005.254 3.753.376 5.259h-8.071zm86.507-71.119c-1.877-1.748-4.066-3.314-6.565-4.695-2.131-1.244-4.881-2.371-8.259-3.378-3.378-.998-7.259-1.497-11.635-1.497-4.505 0-8.851.718-13.042 2.156-4.192 1.438-7.944 3.722-11.262 6.85-3.313 3.128-5.976 7.13-7.973 12.01-2.002 4.88-3.003 10.697-3.003 17.453 0 4.878.563 9.509 1.69 13.882 1.127 4.38 2.909 8.262 5.348 11.635 2.44 3.382 5.598 6.07 9.475 8.072 3.879 2.001 8.633 2.999 14.262 2.999 5.258 0 9.822-.965 13.699-2.904 3.877-1.941 7.101-4.347 9.665-7.229 2.565-2.874 4.475-5.907 5.723-9.097 1.249-3.192 1.877-6.033 1.877-8.541v-37.716zm.374 71.119a63.61 63.61 0 01-.187-4.88c-.128-1.377-.188-2.974-.188-4.785v-5.348c-1.877 3.253-4.38 6.131-7.505 8.635-2.629 2.125-5.942 4.096-9.945 5.908-4.008 1.816-8.82 2.72-14.453 2.72-6.63 0-12.379-1.157-17.263-3.469-4.88-2.314-8.912-5.477-12.104-9.479-3.184-4.001-5.563-8.723-7.129-14.165-1.563-5.442-2.342-11.291-2.342-17.548 0-7.001 1.088-13.352 3.279-19.048 2.19-5.689 5.258-10.535 9.195-14.54 3.941-4.002 8.632-7.101 14.074-9.29 5.443-2.187 11.416-3.283 17.922-3.283 3.628 0 6.972.438 10.035 1.316 3.063.874 5.852 1.815 8.353 2.814a76.98 76.98 0 017.883 4.13V53.349h8.258v114.187c0 2.187.063 4.101.186 5.719 0 2.005.063 3.753.188 5.259h-8.257zm90.447-48.228c-1.123-10.63-4.504-18.701-10.133-24.209-5.628-5.503-12.947-8.253-21.953-8.253-4.634 0-8.856.849-12.665 2.535-3.82 1.687-7.103 4.001-9.854 6.94-2.754 2.939-4.974 6.381-6.664 10.323-1.688 3.937-2.659 8.162-2.909 12.664h64.178zm5.444 35.279c-3.757 4.755-8.851 8.477-15.293 11.166-6.446 2.689-13.047 4.032-19.802 4.032-6.378 0-12.289-1.097-17.732-3.28-5.439-2.189-10.1-5.287-13.977-9.292-3.882-3.999-6.915-8.788-9.104-14.355-2.187-5.567-3.285-11.726-3.285-18.481 0-6.257 1.033-12.135 3.1-17.643 2.064-5.503 4.909-10.317 8.537-14.445 3.626-4.131 8.008-7.383 13.132-9.763 5.131-2.375 10.762-3.562 16.894-3.562 5.878 0 11.351 1.028 16.42 3.094a36.315 36.315 0 0113.133 9.104c3.688 4.006 6.57 8.977 8.635 14.916 2.062 5.946 3.095 12.793 3.095 20.547h-73.559c.124 4.884 1.062 9.479 2.813 13.795 1.748 4.315 4.127 8.072 7.13 11.26 3.004 3.192 6.601 5.693 10.791 7.504 4.191 1.816 8.848 2.721 13.978 2.721 2.633 0 5.349-.275 8.167-.84a41.01 41.01 0 008.159-2.538c2.628-1.12 5.038-2.436 7.228-3.938 2.187-1.502 4.032-3.192 5.534-5.065l6.006 5.063z" fill="#fff"/><path d="M783.288 164.502l7.11-7.795c8.342 8.067 17.503 13.127 27.211 13.127 13.675 0 23.11-9.024 23.11-21.194v-.273c0-11.896-9.846-20.102-23.793-20.102-8.068 0-14.495 2.462-20.102 5.47l-7.247-4.786 2.735-46.628h55.106v9.981h-45.672l-2.051 30.63c5.606-2.461 10.939-4.238 18.87-4.238 18.597 0 33.091 11.075 33.091 29.263v.273c0 18.733-14.221 31.45-34.185 31.45-13.671 0-25.569-6.564-34.183-15.178zm84.915-34.049v-.273c0-26.802 15.999-49.501 40.613-49.501 24.613 0 40.201 22.426 40.201 49.228v.273c0 26.802-15.861 49.5-40.475 49.5-24.75 0-40.339-22.426-40.339-49.227zm69.603 0v-.273c0-20.922-11.487-39.656-29.263-39.656-17.914 0-29.127 18.323-29.127 39.382v.273c0 20.921 11.486 39.654 29.4 39.654 17.913.001 28.99-18.458 28.99-39.38z" fill="#f15f3f"/></g></svg>