<?xml version="1.0" encoding="UTF-8" standalone="no"?><!DOCTYPE svg PUBLIC "-//W3C//DTD SVG 1.1//EN" "http://www.w3.org/Graphics/SVG/1.1/DTD/svg11.dtd"><svg viewBox="0 0 1154 312" xmlns="http://www.w3.org/2000/svg" fill-rule="evenodd" clip-rule="evenodd" stroke-linejoin="round" stroke-miterlimit="1.414" width="1154" height="312"><path fill="none" d="M0 0h1154v312H0z"/><path fill="#3ab0c8" d="M124.268 6.888h78.877v79.599h-78.877z"/><path fill="#b22672" d="M124.268 127.869h78.877v79.6h-78.877z"/><path fill="#f15f3f" d="M244.069 6.888h78.899v79.599h-78.899z"/><path fill="#fdb528" d="M7.261 6.888H86.14v79.599H7.261z"/><path fill="#a0d5b3" d="M7.261 127.869H86.14v79.6H7.261z"/><g fill="#221c34" fill-rule="nonzero"><path d="M627.592 281.975l2.977-3.522c4.434 4.009 8.686 6.014 14.578 6.014 5.708 0 9.476-3.038 9.476-7.229v-.121c0-3.949-2.127-6.196-11.055-8.079-9.779-2.125-14.274-5.285-14.274-12.27v-.121c0-6.682 5.892-11.601 13.971-11.601 6.195 0 10.629 1.761 14.941 5.223l-2.794 3.706c-3.947-3.221-7.896-4.616-12.271-4.616-5.526 0-9.05 3.035-9.05 6.862v.121c0 4.01 2.187 6.258 11.542 8.261 9.475 2.064 13.848 5.528 13.848 12.027v.121c0 7.29-6.074 12.026-14.518 12.026-6.742 0-12.268-2.246-17.371-6.802zM666.102 279.06v-.121c0-6.742 5.468-10.267 13.424-10.267 4.01 0 6.804.547 9.599 1.337v-.972c0-5.59-3.403-8.504-9.294-8.504-3.704 0-6.62.911-9.537 2.247l-1.396-3.826c3.462-1.578 6.803-2.672 11.42-2.672 4.433 0 7.896 1.215 10.143 3.461 2.187 2.188 3.28 5.224 3.28 9.232v19.195h-4.616v-4.678c-2.188 2.794-5.771 5.346-11.298 5.346-5.892.001-11.725-3.34-11.725-9.778zm23.083-2.43v-2.915c-2.309-.669-5.347-1.337-9.171-1.337-5.832 0-9.174 2.551-9.174 6.317v.122c0 3.947 3.644 6.255 7.896 6.255 5.773 0 10.449-3.463 10.449-8.442zM703.277 293.637l2.125-3.646c3.584 2.613 7.593 4.01 12.087 4.01 6.926 0 11.42-3.826 11.42-11.176v-3.704c-2.733 3.644-6.562 6.62-12.33 6.62-7.533 0-14.76-5.649-14.76-14.698v-.123c0-9.172 7.289-14.821 14.76-14.821 5.892 0 9.719 2.917 12.27 6.317v-5.648h4.677v25.938c0 4.858-1.457 8.563-4.01 11.114-2.793 2.795-6.984 4.191-11.965 4.191-5.224 0-10.082-1.459-14.274-4.374zm25.753-22.657v-.122c0-6.438-5.587-10.629-11.541-10.629-5.951 0-10.872 4.13-10.872 10.569v.121c0 6.317 5.042 10.689 10.872 10.689 5.954.001 11.541-4.31 11.541-10.628zM757.822 284.829c4.313 0 7.35-1.762 9.901-4.435l2.916 2.613c-3.159 3.523-6.985 5.892-12.938 5.892-8.625 0-15.671-6.62-15.671-16.4 0-9.111 6.377-16.4 15.063-16.4 9.294 0 14.639 7.411 14.639 16.643 0 .426 0 .912-.061 1.642h-24.904c.669 6.619 5.529 10.445 11.055 10.445zm9.174-14.212c-.548-5.71-3.828-10.57-10.023-10.57-5.407 0-9.537 4.495-10.205 10.57h20.228zM798.945 245.652h14.76c13.363 0 22.596 9.172 22.596 21.138v.122c0 11.965-9.232 21.259-22.596 21.259h-14.76v-42.519zm14.76 38.084c10.751 0 17.616-7.29 17.616-16.704v-.12c0-9.415-6.865-16.826-17.616-16.826h-9.962v33.65h9.962zM843.287 279.06v-.121c0-6.742 5.467-10.267 13.424-10.267 4.008 0 6.804.547 9.598 1.337v-.972c0-5.59-3.402-8.504-9.294-8.504-3.705 0-6.62.911-9.536 2.247l-1.397-3.826c3.463-1.578 6.804-2.672 11.42-2.672 4.435 0 7.896 1.215 10.144 3.461 2.188 2.188 3.28 5.224 3.28 9.232v19.195h-4.616v-4.678c-2.188 2.794-5.771 5.346-11.299 5.346-5.893.001-11.724-3.34-11.724-9.778zm23.082-2.43v-2.915c-2.31-.669-5.346-1.337-9.172-1.337-5.832 0-9.172 2.551-9.172 6.317v.122c0 3.947 3.644 6.255 7.896 6.255 5.77 0 10.448-3.463 10.448-8.442zM878.214 284.161l2.369-3.34c3.401 2.552 7.167 4.008 10.872 4.008 3.766 0 6.5-1.943 6.5-4.98v-.121c0-3.158-3.705-4.373-7.836-5.527-4.92-1.397-10.386-3.098-10.386-8.869v-.12c0-5.406 4.494-8.99 10.689-8.99 3.827 0 8.079 1.337 11.299 3.463l-2.128 3.522c-2.914-1.883-6.255-3.037-9.293-3.037-3.705 0-6.073 1.944-6.073 4.555v.122c0 2.977 3.888 4.13 8.078 5.407 4.859 1.456 10.083 3.34 10.083 8.989v.121c0 5.951-4.92 9.414-11.176 9.414-4.495-.001-9.476-1.762-12.998-4.617zM911.075 243.83h4.677v18.404c2.066-3.401 5.345-6.136 10.751-6.136 7.593 0 12.027 5.104 12.027 12.573v19.499h-4.677v-18.343c0-5.833-3.159-9.477-8.688-9.477-5.405 0-9.414 3.947-9.414 9.84v17.979h-4.677V243.83h.001zM953.169 282.157v6.014h-4.677V243.83h4.677v19.255c2.551-3.767 6.256-6.986 12.027-6.986 7.531 0 15.002 5.954 15.002 16.279v.121c0 10.266-7.41 16.34-15.002 16.34-5.832 0-9.597-3.158-12.027-6.682zm22.231-9.597v-.121c0-7.41-5.103-12.147-11.055-12.147-5.831 0-11.358 4.92-11.358 12.087v.121c0 7.29 5.527 12.149 11.358 12.149 6.074-.001 11.055-4.497 11.055-12.089zM986.882 272.621v-.122c0-8.868 6.923-16.4 16.399-16.4 9.415 0 16.338 7.411 16.338 16.279v.121c0 8.868-6.983 16.4-16.461 16.4-9.414 0-16.276-7.411-16.276-16.278zm27.939 0v-.122c0-6.741-5.042-12.27-11.663-12.27-6.802 0-11.479 5.528-11.479 12.148v.121c0 6.743 4.979 12.209 11.602 12.209 6.803.001 11.54-5.465 11.54-12.086zM1025.7 279.06v-.121c0-6.742 5.467-10.267 13.425-10.267 4.008 0 6.802.547 9.596 1.337v-.972c0-5.59-3.401-8.504-9.294-8.504-3.704 0-6.621.911-9.536 2.247l-1.396-3.826c3.461-1.578 6.804-2.672 11.421-2.672 4.434 0 7.896 1.215 10.141 3.461 2.188 2.188 3.281 5.224 3.281 9.232v19.195h-4.616v-4.678c-2.188 2.794-5.77 5.346-11.299 5.346-5.892.001-11.723-3.34-11.723-9.778zm23.082-2.43v-2.915c-2.31-.669-5.347-1.337-9.173-1.337-5.832 0-9.171 2.551-9.171 6.317v.122c0 3.947 3.644 6.255 7.895 6.255 5.771 0 10.449-3.463 10.449-8.442zM1063.23 256.768h4.678v8.199c2.309-5.224 6.863-8.989 12.815-8.746v5.042h-.364c-6.863 0-12.451 4.92-12.451 14.396v12.513h-4.678v-31.404zM1084.74 272.56v-.121c0-10.265 7.471-16.34 15.003-16.34 5.83 0 9.597 3.159 12.027 6.682v-18.95h4.677v44.341h-4.677v-6.318c-2.552 3.767-6.258 6.986-12.027 6.986-7.532-.001-15.003-5.954-15.003-16.28zm27.212-.061v-.121c0-7.228-5.528-12.087-11.357-12.087-6.074 0-11.057 4.494-11.057 12.087v.121c0 7.411 5.104 12.149 11.057 12.149 5.829 0 11.357-4.92 11.357-12.149zM1124.28 284.161l2.37-3.34c3.401 2.552 7.167 4.008 10.873 4.008 3.767 0 6.499-1.943 6.499-4.98v-.121c0-3.158-3.705-4.373-7.836-5.527-4.92-1.397-10.386-3.098-10.386-8.869v-.12c0-5.406 4.494-8.99 10.689-8.99 3.827 0 8.078 1.337 11.298 3.463l-2.126 3.522c-2.916-1.883-6.257-3.037-9.295-3.037-3.704 0-6.072 1.944-6.072 4.555v.122c0 2.977 3.888 4.13 8.078 5.407 4.859 1.456 10.083 3.34 10.083 8.989v.121c0 5.951-4.919 9.414-11.176 9.414-4.495-.001-9.474-1.762-12.999-4.617z"/></g><g fill-rule="nonzero"><g fill="#221c34"><path d="M326.934 201.398c-4.378 5.289-10.073 9.623-17.09 13.022-7.02 3.39-15.055 5.092-24.105 5.092-7.551 0-14.525-1.396-20.941-4.193-6.415-2.787-11.961-6.633-16.638-11.538-4.677-4.91-8.297-10.713-10.864-17.431-2.569-6.716-3.849-13.921-3.849-21.623 0-7.696 1.321-14.896 3.96-21.614 2.642-6.716 6.299-12.524 10.98-17.43 4.676-4.9 10.218-8.751 16.638-11.543 6.411-2.793 13.317-4.189 20.713-4.189 9.199 0 17.012 1.625 23.428 4.869 6.408 3.245 11.881 7.734 16.407 13.469l-7.695 5.882c-3.472-4.526-7.807-8.113-13.018-10.75-5.204-2.637-11.583-3.96-19.123-3.96-6.041 0-11.587 1.208-16.638 3.622-5.061 2.409-9.434 5.659-13.13 9.729-3.7 4.079-6.563 8.869-8.6 14.376-2.038 5.508-3.058 11.356-3.058 17.539 0 6.192 1.052 12.042 3.169 17.545 2.113 5.51 5.012 10.297 8.713 14.377 3.695 4.069 8.073 7.322 13.129 9.732 5.056 2.417 10.527 3.622 16.415 3.622 7.54 0 14.218-1.359 20.031-4.074 5.806-2.719 10.446-6.338 13.923-10.868l7.243 6.337zM412.044 163.602c-3.167-.753-7.13-1.396-11.882-1.926-4.757-.53-10.83-.79-18.221-.79-7.695 0-13.807.944-18.335 2.825-4.526 1.889-7.959 4.229-10.3 7.018-2.341 2.791-3.847 5.813-4.528 9.056-.678 3.244-1.018 6.146-1.018 8.711 0 7.546 2.528 13.059 7.583 16.526 5.056 3.477 11.507 5.207 19.351 5.207 5.131 0 9.962-.909 14.488-2.716 4.53-1.811 8.49-4.225 11.887-7.245 3.392-3.012 6.071-6.447 8.033-10.298 1.962-3.848 2.944-7.735 2.944-11.658v-14.71h-.002zm.905 53.192c-.152-1.36-.224-2.865-.224-4.527-.153-1.505-.228-3.32-.228-5.434v-7.47c-2.715 3.925-5.697 7.209-8.939 9.847-3.246 2.647-6.643 4.719-10.19 6.224-3.545 1.511-7.018 2.564-10.41 3.167-3.397.603-6.532.908-9.395.908-4.378 0-8.751-.452-13.129-1.355-4.377-.903-8.298-2.528-11.77-4.868-3.473-2.336-6.304-5.508-8.489-9.509-2.188-3.992-3.281-9.084-3.281-15.281 0-4.979.828-9.69 2.491-14.145 1.659-4.448 4.298-8.295 7.918-11.544 3.625-3.244 8.297-5.808 14.035-7.696 5.734-1.886 12.675-2.825 20.824-2.825 6.34 0 11.998.223 16.98.676 4.98.455 9.199.98 12.675 1.582v-5.885c0-5.736-.677-10.485-2.037-14.259-1.36-3.769-3.396-6.79-6.112-9.056-2.719-2.26-6.037-3.848-9.96-4.75-3.927-.908-8.453-1.36-13.583-1.36-8.601 0-15.432 1.247-20.482 3.737-5.061 2.492-8.943 4.863-11.658 7.132l-5.434-7.018c2.866-2.718 7.503-5.584 13.919-8.605 6.415-3.016 14.223-4.526 23.432-4.526 13.429 0 23.799 2.87 31.123 8.605 7.316 5.736 10.979 15.24 10.979 28.518v56.477c0 2.638.075 4.946.226 6.9.148 2.417.304 4.525.452 6.342h-9.733v-.002zM438.952 196.421c4.373 4.375 9.395 7.738 15.052 10.074 5.661 2.341 12.336 3.509 20.031 3.509 4.225 0 8.224-.42 11.998-1.25 3.771-.826 7.093-2.035 9.963-3.618 2.863-1.584 5.124-3.582 6.788-6.001 1.66-2.408 2.491-5.278 2.491-8.596 0-3.768-.757-6.871-2.261-9.285-1.515-2.413-3.739-4.412-6.682-6-2.938-1.583-6.639-2.942-11.092-4.069a996.76 996.76 0 00-15.278-3.737c-4.83-1.054-9.243-2.296-13.241-3.736-4-1.434-7.433-3.203-10.295-5.32-2.871-2.109-5.136-4.787-6.795-8.031-1.658-3.243-2.491-7.281-2.491-12.113 0-4.677 1.057-8.789 3.174-12.333 2.11-3.549 4.937-6.524 8.489-8.944 3.541-2.408 7.615-4.188 12.224-5.319 4.597-1.133 9.39-1.698 14.371-1.698 8.149 0 15.354 1.515 21.618 4.526 6.263 3.021 11.355 6.873 15.279 11.543l-7.018 6.338a44.286 44.286 0 00-12.564-9.504c-4.751-2.41-10.451-3.624-17.085-3.624-3.324 0-6.646.265-9.962.795-3.323.529-6.34 1.505-9.056 2.938-2.719 1.437-4.905 3.399-6.563 5.891-1.663 2.491-2.491 5.771-2.491 9.842 0 3.321.94 6.114 2.831 8.377 1.885 2.262 4.337 4.152 7.356 5.657 3.018 1.515 6.483 2.761 10.414 3.737 3.92.986 7.843 1.922 11.771 2.834 4.223.904 8.489 2.034 12.787 3.391 4.302 1.359 8.225 3.134 11.77 5.32 3.545 2.194 6.415 4.978 8.606 8.377 2.183 3.391 3.28 7.66 3.28 12.79 0 5.282-1.208 9.809-3.62 13.578-2.417 3.773-5.589 6.903-9.51 9.394-3.924 2.488-8.376 4.34-13.353 5.544-4.98 1.205-9.96 1.816-14.943 1.816-9.81 0-18.146-1.441-25.008-4.307-6.869-2.86-12.719-6.713-17.546-11.545l6.561-7.241zM617.331 201.398c-4.375 5.289-10.074 9.623-17.093 13.022-7.017 3.39-15.052 5.092-24.1 5.092-7.551 0-14.528-1.396-20.943-4.193-6.416-2.787-11.958-6.633-16.636-11.538-4.681-4.91-8.3-10.713-10.866-17.431-2.569-6.716-3.849-13.921-3.849-21.623 0-7.696 1.32-14.896 3.96-21.614 2.642-6.716 6.301-12.524 10.982-17.43 4.677-4.9 10.216-8.751 16.635-11.543 6.412-2.793 13.319-4.189 20.716-4.189 9.198 0 17.01 1.625 23.426 4.869 6.41 3.245 11.88 7.734 16.407 13.469l-7.693 5.882c-3.472-4.526-7.807-8.113-13.018-10.75-5.205-2.637-11.585-3.96-19.122-3.96-6.041 0-11.589 1.208-16.641 3.622-5.061 2.409-9.432 5.659-13.128 9.729-3.7 4.079-6.565 8.869-8.604 14.376-2.035 5.508-3.053 11.356-3.053 17.539 0 6.192 1.05 12.042 3.167 17.545 2.112 5.51 5.015 10.297 8.714 14.377 3.697 4.069 8.072 7.322 13.127 9.732 5.055 2.417 10.527 3.622 16.417 3.622 7.537 0 14.217-1.359 20.025-4.074 5.81-2.719 10.449-6.338 13.926-10.868l7.244 6.337zM700.611 163.602c-3.167-.753-7.132-1.396-11.882-1.926-4.76-.53-10.833-.79-18.225-.79-7.692 0-13.811.944-18.336 2.825-4.522 1.889-7.959 4.229-10.3 7.018-2.34 2.791-3.846 5.813-4.525 9.056-.681 3.244-1.019 6.146-1.019 8.711 0 7.546 2.528 13.059 7.583 16.526 5.056 3.477 11.508 5.207 19.351 5.207 5.129 0 9.961-.909 14.487-2.716 4.531-1.811 8.491-4.225 11.883-7.245 3.398-3.012 6.078-6.447 8.038-10.298 1.963-3.848 2.944-7.735 2.944-11.658v-14.71h.001zm.904 53.192a41.236 41.236 0 01-.225-4.527c-.15-1.505-.228-3.32-.228-5.434v-7.47c-2.715 3.925-5.694 7.209-8.938 9.847-3.243 2.647-6.644 4.719-10.189 6.224-3.545 1.511-7.018 2.564-10.411 3.167-3.396.603-6.529.908-9.396.908-4.376 0-8.752-.452-13.127-1.355-4.381-.903-8.299-2.528-11.771-4.868-3.473-2.336-6.302-5.508-8.487-9.509-2.189-3.992-3.281-9.084-3.281-15.281 0-4.979.826-9.69 2.493-14.145 1.655-4.448 4.298-8.295 7.916-11.544 3.627-3.244 8.3-5.808 14.034-7.696 5.735-1.886 12.68-2.825 20.825-2.825 6.342 0 11.999.223 16.981.676 4.979.455 9.199.98 12.677 1.582v-5.885c0-5.736-.685-10.485-2.04-14.259-1.358-3.769-3.396-6.79-6.11-9.056-2.719-2.26-6.04-3.848-9.96-4.75-3.924-.908-8.455-1.36-13.584-1.36-8.6 0-15.431 1.247-20.482 3.737-5.06 2.492-8.942 4.863-11.657 7.132l-5.434-7.018c2.864-2.718 7.5-5.584 13.916-8.605 6.415-3.016 14.222-4.526 23.435-4.526 13.428 0 23.799 2.87 31.123 8.605 7.313 5.736 10.979 15.24 10.979 28.518v56.477c0 2.638.072 4.946.223 6.9.15 2.417.307 4.525.452 6.342h-9.734v-.002zM805.865 131.005c-2.264-2.109-4.904-3.998-7.921-5.662-2.569-1.501-5.887-2.861-9.962-4.075-4.073-1.205-8.756-1.807-14.034-1.807-5.435 0-10.677.867-15.731 2.601-5.057 1.734-9.583 4.49-13.585 8.263-3.997 3.774-7.209 8.601-9.617 14.487-2.414 5.887-3.623 12.904-3.623 21.053 0 5.886.679 11.471 2.039 16.746 1.36 5.282 3.509 9.965 6.451 14.034 2.944 4.079 6.754 7.322 11.431 9.737 4.677 2.414 10.412 3.618 17.201 3.618 6.343 0 11.85-1.164 16.527-3.505 4.676-2.341 8.564-5.243 11.657-8.72 3.095-3.467 5.397-7.127 6.903-10.973 1.507-3.853 2.264-7.278 2.264-10.303v-45.494zm.451 85.789a77.127 77.127 0 01-.225-5.886c-.154-1.661-.227-3.588-.227-5.772v-6.452c-2.264 3.925-5.283 7.397-9.054 10.417-3.17 2.563-7.167 4.94-11.995 7.127-4.835 2.19-10.641 3.281-17.435 3.281-7.998 0-14.933-1.396-20.824-4.185-5.886-2.792-10.749-6.606-14.601-11.435-3.842-4.827-6.712-10.521-8.601-17.087-1.885-6.566-2.823-13.62-2.823-21.167 0-8.446 1.313-16.107 3.954-22.977 2.643-6.864 6.344-12.709 11.093-17.54 4.754-4.828 10.412-8.564 16.978-11.206 6.565-2.638 13.771-3.961 21.618-3.961 4.376 0 8.411.53 12.105 1.588 3.696 1.054 7.059 2.19 10.075 3.396a92.804 92.804 0 019.509 4.982V65.812h9.96v137.74c0 2.638.077 4.946.225 6.9 0 2.417.077 4.525.227 6.342h-9.959zM915.421 158.618c-1.354-12.822-5.434-22.558-12.224-29.202-6.789-6.639-15.618-9.956-26.481-9.956-5.59 0-10.682 1.023-15.276 3.057-4.608 2.036-8.568 4.828-11.887 8.373-3.321 3.545-6 7.697-8.039 12.452-2.035 4.75-3.208 9.847-3.509 15.276h77.416zm6.566 42.558c-4.531 5.734-10.676 10.226-18.446 13.469-7.776 3.244-15.738 4.864-23.887 4.864-7.692 0-14.824-1.324-21.39-3.957-6.563-2.642-12.184-6.377-16.86-11.21-4.682-4.823-8.342-10.6-10.981-17.315-2.638-6.716-3.962-14.145-3.962-22.294 0-7.547 1.245-14.637 3.737-21.281 2.492-6.638 5.923-12.447 10.298-17.425 4.375-4.982 9.66-8.906 15.842-11.777 6.188-2.865 12.981-4.298 20.378-4.298 7.091 0 13.691 1.241 19.808 3.733 6.108 2.492 11.388 6.155 15.841 10.981 4.449 4.833 7.926 10.828 10.416 17.993 2.487 7.172 3.732 15.43 3.732 24.784h-88.73c.15 5.892 1.281 11.435 3.394 16.641 2.108 5.206 4.979 9.737 8.602 13.584 3.623 3.851 7.961 6.866 13.017 9.052 5.056 2.19 10.673 3.281 16.86 3.281 3.176 0 6.452-.333 9.851-1.014a49.422 49.422 0 009.843-3.062c3.171-1.351 6.077-2.938 8.719-4.749 2.637-1.813 4.863-3.851 6.676-6.11l7.242 6.11z"/></g><g fill="#f15f3f"><path d="M947.173 199.892l8.577-9.402c10.063 9.731 21.113 15.836 32.824 15.836 16.495 0 27.877-10.887 27.877-25.568v-.329c0-14.351-11.876-24.247-28.701-24.247-9.732 0-17.484 2.969-24.247 6.598l-8.743-5.773 3.3-56.247h66.474v12.041H969.44l-2.475 36.949c6.764-2.969 13.196-5.114 22.764-5.114 22.433 0 39.917 13.36 39.917 35.3v.329c0 22.598-17.154 37.938-41.237 37.938-16.494-.003-30.845-7.92-41.236-18.311zM1049.6 158.819v-.329c0-32.33 19.299-59.712 48.989-59.712 29.69 0 48.494 27.052 48.494 59.381v.331c0 32.33-19.134 59.71-48.824 59.71-29.855 0-48.659-27.052-48.659-59.381zm83.958 0v-.329c0-25.238-13.854-47.835-35.298-47.835-21.607 0-35.135 22.103-35.135 47.504v.331c0 25.237 13.856 47.835 35.465 47.835 21.607 0 34.968-22.267 34.968-47.506z"/></g></g></svg>