<svg xmlns="http://www.w3.org/2000/svg" viewBox="0 0 49.83 49.83"><defs><style>.cls-1{fill:#a0d5b3;}.cls-2{fill:#fff;}</style></defs><title>i-9</title><g id="Layer_1" data-name="Layer 1"><path class="cls-1" d="M49.83,3.51V46.32a3.51,3.51,0,0,1-3.52,3.51H3.51A3.51,3.51,0,0,1,0,46.32V3.51A3.51,3.51,0,0,1,3.51,0h42.8A3.51,3.51,0,0,1,49.83,3.51Z"/><polygon class="cls-2" points="15.43 7.64 3.94 12.93 15.43 18.02 26.93 12.93 15.43 7.64"/><polygon class="cls-2" points="3.98 13.8 3.98 27.78 15.04 32.74 15.06 18.8 3.98 13.8"/><polygon class="cls-2" points="26.87 14.02 26.87 17.94 21.16 20.58 21.16 30.54 16.01 32.83 16.01 18.83 26.87 14.02"/><polygon class="cls-2" points="34.16 15.82 22.67 21 34.16 26.08 45.65 21 34.16 15.82"/><polygon class="cls-2" points="22.71 21.97 22.7 35.74 33.55 40.57 33.52 26.78 22.71 21.97"/><polygon class="cls-2" points="45.67 22.12 34.84 26.89 34.8 40.6 45.66 35.77 45.67 22.12"/></g></svg>