<svg xmlns="http://www.w3.org/2000/svg" viewBox="0 0 49.83 49.83"><defs><style>.cls-1{fill:#fdb528;}.cls-2{fill:none;}.cls-3{fill:#fff;}</style></defs><title>i-13</title><g id="Layer_1" data-name="Layer 1"><path class="cls-1" d="M49.83,3.51V46.32a3.51,3.51,0,0,1-3.52,3.51H3.51A3.51,3.51,0,0,1,0,46.32V3.51A3.51,3.51,0,0,1,3.51,0h42.8A3.51,3.51,0,0,1,49.83,3.51Z"/><path class="cls-2" d="M36.52,11a12,12,0,0,1-5,3.72L28,10.58c2.79-1.21,6.45-2.36,8.17-1.72a1.07,1.07,0,0,1,.67.57C36.9,9.59,37.11,10.07,36.52,11Z"/><path class="cls-3" d="M38.65,12.51a13.73,13.73,0,0,1-5.33,4.33,19.82,19.82,0,0,1-6.37,2,11.63,11.63,0,0,1-1.64.12h-.62l.15-2.73A9.62,9.62,0,0,0,27,16.13a17.62,17.62,0,0,0,4.52-1.42,12.06,12.06,0,0,0,5-3.72c.59-.92.38-1.4.31-1.56a1,1,0,0,0-.67-.57c-1.72-.65-5.39.5-8.17,1.72L26.63,9a4,4,0,0,0-.52-.5c2.32-1.1,7.76-3.36,10.9-2.19a3.69,3.69,0,0,1,2.15,2A4.35,4.35,0,0,1,38.65,12.51Z"/><path class="cls-1" d="M25.31,19.5h-.64l-.51,0,.21-3.74.5,0a9.09,9.09,0,0,0,2.05-.12,17.35,17.35,0,0,0,4.39-1.38,11.53,11.53,0,0,0,4.79-3.54c.45-.69.32-1,.27-1.09s-.08-.2-.37-.29c-1.29-.49-4.34.18-7.81,1.7l-.34.15-1.6-1.88a3.55,3.55,0,0,0-.44-.43l-.65-.5L25.9,8C28.17,7,33.82,4.57,37.19,5.82a4.18,4.18,0,0,1,2.43,2.25,4.85,4.85,0,0,1-.55,4.71,14,14,0,0,1-5.52,4.51A20.47,20.47,0,0,1,27,19.38,12.25,12.25,0,0,1,25.31,19.5Zm-.09-1h.09a12.08,12.08,0,0,0,1.57-.11,19.43,19.43,0,0,0,6.21-2,13.35,13.35,0,0,0,5.14-4.16h0a3.87,3.87,0,0,0,.47-3.77,3.17,3.17,0,0,0-1.86-1.71c-2.76-1-7.64.88-9.85,1.87v0L28.13,10c1.74-.74,6.07-2.39,8.21-1.59a1.56,1.56,0,0,1,.95.84,2,2,0,0,1-.35,2,12.32,12.32,0,0,1-5.21,3.91,18.18,18.18,0,0,1-4.65,1.46,8.94,8.94,0,0,1-1.77.15Z"/><path class="cls-3" d="M34.64,20.65V41.14a1.38,1.38,0,0,1-1.3,1.45H15.11a1.39,1.39,0,0,1-1.3-1.45l-.2-20.49A6,6,0,0,1,15,16.77L21.63,9a3.29,3.29,0,0,1,2.5-1.2,3.19,3.19,0,0,1,2,.7,4,4,0,0,1,.52.5L28,10.58l3.53,4.13A17.62,17.62,0,0,1,27,16.13a2.63,2.63,0,0,0-2.31-1.45,2.79,2.79,0,0,0,0,5.57A2.59,2.59,0,0,0,27,18.88a19.82,19.82,0,0,0,6.37-2A5.86,5.86,0,0,1,34.64,20.65Z"/></g></svg>